<?xml version="1.0" encoding="UTF-8"?>
<svg id="Layer_1" data-name="Layer 1" xmlns="http://www.w3.org/2000/svg" xmlns:xlink="http://www.w3.org/1999/xlink" viewBox="0 0 359.09 162.04">
  <defs>
    <style>
      .cls-1 {
        fill: #fff;
      }

      .cls-2 {
        fill: #3a0319;
      }

      .cls-3 {
        fill: #8cd5e3;
      }

      .cls-4 {
        fill: #d4faff;
      }

      .cls-5 {
        fill: #ffcc4d;
      }

      .cls-6 {
        fill: url(#linear-gradient);
      }
    </style>
    <linearGradient id="linear-gradient" x1="119.28" y1="25.54" x2="123.87" y2="101.73" gradientUnits="userSpaceOnUse">
      <stop offset="0" stop-color="#ffff71"/>
      <stop offset="1" stop-color="#ffda73"/>
    </linearGradient>
  </defs>
  <g>
    <path class="cls-3" d="m37.68,103.87c-8.04,0-14.58-6.55-14.58-14.6v-30.48h-3.21c-8.04,0-14.58-6.55-14.58-14.6s6.54-14.6,14.58-14.6h35.5c8.08,0,14.66,6.55,14.66,14.6s-6.58,14.6-14.66,14.6h-3.13v30.48c0,8.05-6.54,14.6-14.58,14.6Z"/>
    <path class="cls-4" d="m46.2,89.27c0,4.72-3.82,8.54-8.53,8.54s-8.53-3.82-8.53-8.54v-36.53h-9.26c-4.71,0-8.53-3.82-8.53-8.54s3.82-8.54,8.53-8.54h35.5c4.71,0,8.61,3.82,8.61,8.54s-3.9,8.54-8.61,8.54h-9.18v36.53Z"/>
    <path class="cls-3" d="m77.32,104.03c-15.56,0-28.23-12.68-28.23-28.27s12.66-28.35,28.23-28.35c19.53,0,28.31,16.58,28.31,28.35,0,15.59-12.7,28.27-28.31,28.27Zm-.2-29.16"/>
    <path class="cls-4" d="m99.58,75.77c0,12.21-9.99,22.21-22.26,22.21s-22.18-10.01-22.18-22.21,9.99-22.3,22.18-22.3c16.16,0,22.26,13.67,22.26,22.3Zm-16.33,0c0-4.15-1.79-5.94-5.93-5.94-3.25,0-5.85,2.69-5.85,5.94s2.6,5.86,5.85,5.86,5.93-2.6,5.93-5.86Z"/>
    <path class="cls-3" d="m118.07,59.95c-.57.15-1.57.52-2.32.87l-1.33.64h-1.5c-1.44,0-2.77-.44-3.86-1.24-.17.01-.33.02-.5.02-4.94,0-8.29-4.55-9.19-12.48-1.16-10.24,3.46-15.05,8.17-16.14.72-.17,1.45-.25,2.18-.25,9.32,0,14.05,12.77,16.04,20.37l3.12,11.96-10.8-3.76Z"/>
    <path class="cls-2" d="m112.92,55.41c-.41,0-.51-.36-.57-.53-.02-.08-.07-.29-.13-.63-.26-1.45-.95-5.21-1.93-8.06.04.91.11,2.1.18,3.5l.04.79c.03.48.09,1.6-.48,2.57-.18.31-.41.58-.68.8-.26.28-.59.35-.8.35-1.74,0-2.85-4.25-3.18-7.11-.61-5.34.71-8.91,3.52-9.56.27-.06.55-.09.82-.09,5.97,0,10.01,15.21,10.18,15.85l.26.99-.97-.34c-.21-.07-.47-.11-.78-.11-2.05,0-5.22,1.51-5.25,1.53l-.11.05h-.12Z"/>
    <path class="cls-3" d="m118.11,59.39c-.62.14-1.75.55-2.58.94l-1.23.58h-1.38c-1.16,0-2.53-.36-3.69-1.25-.22.02-.44.03-.67.03-4.7,0-7.77-4.26-8.65-11.99-1.12-9.89,3.27-14.51,7.75-15.54.68-.16,1.37-.23,2.06-.23,8.96,0,13.56,12.51,15.51,19.97l2.86,10.96-9.98-3.47Z"/>
    <path class="cls-3" d="m134.99,103.95c-2.04,0-4.01-.43-5.8-1.24-2.7.82-5.46,1.24-8.26,1.24-15.56,0-28.23-12.68-28.23-28.27,0-5.33,1.27-10.2,3.77-14.46,4.14-7.06,12.48-14.18,21.79-14.18,1.34,0,2.68.15,3.99.44.16.04.33.08.49.12l.34-14.92c-.09-3.78,1.29-7.36,3.91-10.08,2.52-2.62,5.95-4.13,9.4-4.13.46,0,.93.03,1.39.08,6.93.81,12.01,7.34,11.47,14.64v56.57c0,7.82-6.4,14.19-14.26,14.19Z"/>
    <g>
      <path class="cls-5" d="m119.39,53.71s-3.85-18.7-10.59-17.54c-6.74,1.17-3.57,19.54-.94,17.1.17-.12.42-.34.65-.69.67-1.01.59-2.5.59-2.5-.25-5.02-.36-7.53,0-7.65.3-.1,1.03,1.02,1.59,2.28,2.17,4.82,1.4,10.4,1.41,10.4,0,0,0,0,0,0,.14-.07.33-.15.56-.25.3-.13.68-.29,1.17-.46.13-.04.54-.18,1.09-.32,1.19-.3,2.16-.37,2.43-.39.55-.04,1.23-.05,2.02,0Z"/>
      <path class="cls-3" d="m111.98,55.73h0c.28-2.85.17-6.82-1.75-10.81-.27-.55-.55-1.07-.85-1.56-.05,1.18.07,3.78.22,6.7,0,.07.07,1.67-.68,2.8-.21.32-.48.6-.78.82-.37.35-.88.42-1.35.17-1.82-.98-3.08-7.69-2.32-12.38.55-3.41,2.01-5.41,4.22-5.79,7.15-1.23,11.01,17.15,11.17,17.93l.14.66-.67-.05c-.65-.05-1.3-.05-1.94,0-.43.03-1.3.12-2.35.38-.53.13-.93.26-1.05.31-.48.16-.85.32-1.14.44-.22.1-.41.18-.55.25l-.34.16Zm-2.83-13.81c.34,0,.99.33,2.01,2.59,1.67,3.72,1.66,7.82,1.53,9.81.27-.11.6-.25,1-.38.13-.04.56-.19,1.13-.33,1.13-.28,2.06-.37,2.52-.41.47-.03.95-.04,1.42-.03-1.21-5.44-4.94-17.35-9.87-16.5-2.2.38-3.06,2.91-3.4,4.96-.77,4.73.6,10.69,1.8,11.33.06.03.1.06.23-.06.25-.19.43-.37.58-.59.57-.86.51-2.19.51-2.2-.36-7.32-.33-7.93.35-8.15.05-.02.12-.04.21-.04Z"/>
    </g>
    <path class="cls-6" d="m143.2,32.94v56.82c0,4.48-3.66,8.14-8.2,8.14-1.87,0-3.74-.65-5.12-1.87-2.84,1.22-5.85,1.87-8.94,1.87-12.18,0-22.18-10.01-22.18-22.21,0-4.52,1.12-8.3,2.94-11.4,3.52-6,11.26-12.68,19.24-10.89,3.58.8,6.11,3.06,7.63,4.78.19-8.5.38-17.01.57-25.51-.19-4.92,4-8.55,7.93-8.09,3.51.41,6.55,4.05,6.13,8.37Zm-16.33,42.75c0-3.25-2.68-5.94-5.93-5.94s-5.85,2.69-5.85,5.94,2.6,5.86,5.85,5.86,5.93-2.6,5.93-5.86Z"/>
    <g>
      <path class="cls-5" d="m133.08,37.29c.84-.35,2.54-1.04,3.83-.27.59.35.87.87,1,1.1,1.45,2.73-.96,8.26-1.07,8.52-1.32,2.96-3.65,7.33-7.79,12.25-.67-.95-1.84-2.38-3.7-3.6-1.52-1.01-2.96-1.53-3.98-1.81.02-.24.07-.62.14-1.07,1.33-8.53,8.05-13.65,11.58-15.13Z"/>
      <path class="cls-1" d="m122.39,53.84c.84-2.88,3.17-9.47,8.25-11.67.71-.31,2.26-.96,3.22-.3,1.5,1.03.84,4.47.02,6.43-1.8,4.26-2.86,6.05-5.99,9.17l-.7-.7c1.4-1.35,3.26-3.5,4.56-6.7.95-2.34,2.02-6.33.96-6.93-1.29-.73-5.07,3.8-5.52,4.35-2.09,2.5-3.31,4.94-4.02,6.64-.25-.09-.51-.18-.76-.28Z"/>
    </g>
    <path class="cls-1" d="m116.68,53.27s-.03,0-.29.03c-.23.03-.38.05-.39.05-.4.04-1.63-5.29-2.72-8.1-1.08-2.76-3.19-6.08-4.42-5.77-1.15.29-1.39,3.7-1.57,6.25-.19,2.72.06,4.33-.11,4.35-.22.03-.86-2.68-.87-5.56,0-.58.02-1.67.34-2.99.29-1.18.57-2.3,1.52-2.9.45-.28.96-.4,1.34-.39.41,0,2.08.19,5.06,7.22,2.3,5.42,2.33,7.73,2.11,7.81Z"/>
    <path class="cls-3" d="m180.48,103.95c-2.04,0-4.01-.43-5.8-1.24-2.7.82-5.46,1.24-8.26,1.24-15.56,0-28.23-12.68-28.23-28.27,0-19.48,16.39-28.28,28.11-28.35v-14.4c0-7.87,6.36-14.27,14.17-14.27s14.26,6.4,14.26,14.27v56.82c0,7.82-6.4,14.19-14.26,14.19Z"/>
    <path class="cls-4" d="m188.69,32.94v56.82c0,4.48-3.66,8.14-8.2,8.14-1.87,0-3.74-.65-5.12-1.87-2.84,1.22-5.85,1.87-8.94,1.87-12.18,0-22.18-10.01-22.18-22.21,0-15.38,13-22.29,22.18-22.29,2.03,0,4.06.33,5.93.81v-21.27c0-4.56,3.66-8.22,8.12-8.22s8.2,3.66,8.2,8.22Zm-16.33,42.75c0-3.25-2.68-5.94-5.93-5.94s-5.85,2.69-5.85,5.94,2.6,5.86,5.85,5.86,5.93-2.6,5.93-5.86Z"/>
    <path class="cls-3" d="m201.75,103.95c-7.82,0-14.17-6.36-14.17-14.19v-56.82c0-7.87,6.36-14.27,14.17-14.27s14.26,6.4,14.26,14.27v56.82c0,7.82-6.4,14.19-14.26,14.19Z"/>
    <path class="cls-4" d="m209.96,32.94v56.82c0,4.48-3.66,8.14-8.2,8.14s-8.12-3.66-8.12-8.14v-56.82c0-4.56,3.66-8.22,8.12-8.22s8.2,3.66,8.2,8.22Z"/>
    <path class="cls-3" d="m245.55,100.91c-17.9,7.33-32.71-2.13-38.09-15.26-8.66-21.14,7.15-35.92,15.69-39.42,9.43-3.86,26.06-3.25,33.24,14.28,1.38,3.38,1.33,7.5-.77,11.33,1.73,1.54,2.73,3.42,3.27,4.72,3.06,7.46,1.39,18.31-13.34,24.35Z"/>
    <path class="cls-4" d="m242.69,74.93l-10.16,4.16s1.08,1.51,4.18.24c5.95-2.44,13.61-7.71,16.58-.48,1.14,2.78,2.98,11.12-10.03,16.45-15.16,6.21-26.19-2.18-30.19-11.95-7.1-17.33,6.43-29.09,12.39-31.53,5.24-2.14,19.09-4.29,25.34,10.97,1.43,3.5.08,8.79-8.1,12.13Zm-4.6-7.4s-2.08-4.62-6.92-2.64c-5.08,2.08-3.08,6.74-3.08,6.74l10-4.09Z"/>
    <path class="cls-3" d="m269.45,103.89c-8.07,0-14.63-6.57-14.63-14.64v-29.72c0-8.12,6.56-14.73,14.63-14.73,2.1,0,4.16.46,6.09,1.35,2.83-.89,5.8-1.35,8.75-1.35,7.8,0,14.96,3.3,20.17,9.3,2.53,2.98,3.73,6.75,3.44,10.69-.29,3.93-2.1,7.5-5.09,10.07-2.63,2.24-6,3.46-9.51,3.46-.38,0-.76-.01-1.14-.04-2.96-.23-5.75-1.34-7.99-3.15v14.12c0,8.07-6.6,14.64-14.71,14.64Z"/>
    <path class="cls-4" d="m301.86,64.34c-.17,2.32-1.2,4.38-3,5.93-1.71,1.46-3.94,2.15-6.26,1.98-2.23-.17-4.37-1.2-5.83-3.01-.69-.77-1.46-1.12-2.49-1.12-3.43,0-6.17,2.83-6.17,6.27v14.86c0,4.72-3.86,8.59-8.66,8.59s-8.58-3.87-8.58-8.59v-29.72c0-4.81,3.86-8.68,8.58-8.68,2.06,0,3.94.77,5.49,1.98,2.92-1.29,6.17-1.98,9.35-1.98,6.09,0,11.58,2.58,15.61,7.21,1.46,1.72,2.14,3.95,1.97,6.27Z"/>
    <path class="cls-3" d="m325.52,105.01c-15.67,0-23.68-8.3-25.94-16.06l-.05-.17-.06-.23c-.85-3.67.1-7.81,2.47-10.79.06-.08.13-.16.2-.24-2.63-2.65-4.37-6.32-4.37-11.46,0-12.96,10.95-22.37,26.03-22.37,10.69,0,17.44,4.77,21.21,8.77l.09.1c3.13,3.47,4.1,8.13,2.6,12.48-.44,1.27-1.06,2.44-1.84,3.48,4.49,2.74,7.92,7.39,7.92,15.42,0,7.29-5.91,21.08-28.26,21.08Z"/>
    <path class="cls-4" d="m347.73,83.93c0,3.35-2.74,15.03-22.21,15.03-17.06,0-19.89-10.91-20.15-11.77-.77-3.35,1.37-7.82,5.83-7.82,6.6,0,3.26,6.1,14.32,6.1,2.74,0,7.89.34,7.89-2.23,0-7.64-29.58-.09-29.58-17.18,0-9.62,8.23-16.32,19.98-16.32,8.58,0,13.89,3.78,16.81,6.87,1.63,1.8,2.14,4.21,1.37,6.44-.77,2.23-2.66,3.86-5.06,4.38l-.17.09c-5.57,0-7.55-4.29-12.95-4.29-.94,0-5.57.17-5.57,2.83,0,8.93,29.5-2.32,29.5,17.87Z"/>
  </g>
  <path class="cls-5" d="m243.69,117.93c-10.26,6.13-20.5,10.25-31.18,13.3-30.2,8.65-60.23,7.46-90.56-.25-34.85-8.86-60.18-6.85-97.64-3.66-1.01.09-1.84.16-2.39.21h0c4.25-1.45,10.26-3.29,17.59-4.83,4.62-.97,23.52-5.08,50.93-2.12,12.14,1.31,24.47,2.66,36.16,5.98,29.75,8.45,59.23,7.92,88.79-.07,9.2-2.49,18.25-5.51,28.3-8.57Z"/>
  <g>
    <path class="cls-5" d="m254.3,135.36c-.63-.14-1-.48-1.03-.94v-.06c0-.74,1.11-1.28,2.76-1.28.37,0,.74-.03.8-.09.09-.06.17-2.85.26-8.78.09-4.79.17-8.83.23-8.98l.03-.11c0-.09-.06-.11-.2-.11l-1.23.09c-.34,0-.54-.06-.85-.2-.85-.37-1.6-1.28-1.6-1.94,0-.14.11-.37.26-.54.34-.37,1.51-.57,4.36-.71.8-.06,1.48-.09,2.08-.09,2.25,0,3.36.37,4.02,1.2.34.43.51.8.51,1.11,0,.23-.09.43-.26.63-.17.17-.4.2-1.91.2h-1.71v9.06l-.03,9.03h.74c.94,0,1.51.17,1.97.54.23.17.34.37.34.57,0,.17-.11.37-.29.6-.51.6-1.05.68-4.82.8l-3.48.11c-.57,0-.71-.06-.97-.11Z"/>
    <path class="cls-5" d="m271.45,120.17c.71-.51,1.45-.77,2.22-.77.2,0,.43.03.66.06,2.31.48,3.73,2.68,4.22,6.64.09.57.14,1.45.17,2.68.03,1.23.03,2.42.03,3.59,0,.83,0,1.54-.03,2.14-.03.6-.06.97-.09,1.11-.31.43-.8.66-1.42.66-.43,0-.88-.11-1.31-.31-.43-.2-.71-.48-.85-.85-.17-.37-.29-.94-.34-1.77-.03-.6-.06-1.45-.06-2.54l.06-3.96c0-1.17-.06-1.99-.14-2.51-.03-.37-.09-.68-.11-.94-.06-.26-.11-.4-.14-.43l-.06-.03c-.14,0-.4.23-.8.71-.43.48-.8,1-1.14,1.57-.88,1.68-1.54,3.16-2.02,4.45-.46,1.25-.88,2.76-1.28,4.5-.23.66-.43,1.14-.57,1.4-.14.29-.31.46-.51.54-.2.09-.46.11-.77.11-.43,0-.91-.06-1.4-.2-.48-.14-.85-.31-1.05-.51l-.31-.34.06-6.33c.03-1.8.03-3.22.06-4.3.03-1.08.03-1.91.06-2.48.03-.54.06-.94.11-1.2.03-.23.09-.37.17-.46.31-.31.74-.48,1.23-.48.37,0,.74.09,1.11.23.37.14.66.37.88.68.14.14.23.4.26.71.03.31.03.86.06,1.57,0,.51,0,1.2.03,2.02.85-2.25,1.8-3.85,2.88-4.82.03,0,.03-.03.06-.03l.11-.11Z"/>
    <path class="cls-5" d="m282.05,135.73c-.2-.11-.48-.34-.63-.51-.2-.31-.23-.51-.26-5.3-.06-3.99-.09-5.02-.23-5.21-.09-.14-.14-.31-.14-.48,0-.2.06-.4.17-.54.14-.17.17-.71.17-2.85,0-2.48-.03-2.65-.23-2.94-.14-.17-.29-.46-.31-.66v-.11c0-.46.4-.85,1.14-1,.97-.2,3.7-.37,5.47-.37.83,0,1.45.03,1.6.11.57.28,1.17.91,1.28,1.34l.03.17c0,.34-.29.68-.74.77-.26.06-1.2.14-2.14.17-1.74.09-2.45.17-2.48.34l.17,4.13.46-.09c.17-.03.34-.06.51-.06,1.11,0,2.25.71,2.25,1.45l-.06.26c-.26.57-1.25.77-3.11,1.14l.09,7.47c0,2.22-.14,2.28-.77,2.62-.37.2-.88.31-1.37.31-.34,0-.66-.06-.88-.17Z"/>
    <path class="cls-5" d="m292.71,135.76c-2.56-.48-4.36-1.88-5.1-3.96-.14-.4-.2-.68-.2-1.08l.03-.6c.03-.83.11-1.08.4-1.65.2-.37.54-.88.77-1.11.46-.46,2.05-1.42,3.05-1.85,1.11-.48,2.31-.68,3.05-.68l-.09-.74c-.03-.37-.17-1.03-.26-1.4-.17-.66-.2-.71-.51-.74h-.06c-.46,0-1.8.37-2.48.71-.37.17-.63.26-.91.26-.2,0-.43-.06-.71-.14-.83-.23-1.6-.97-1.6-1.51,0-.51.8-1,2.45-1.48.8-.2,1.51-.31,2.19-.31.4,0,.77.03,1.14.11,2.56.46,4.1,2.42,4.59,5.78.06.4.09,1.25.09,2.62l-.03,2.65c-.06,4.93-.03,4.73-.91,5.04-.26.09-.63.14-1.11.14l-.8-.03c-.48,0-1.05.03-1.4.06l-.6.03c-.37,0-.68-.03-1-.11Zm1.71-2.19l.14-2.96c.06-1.17.11-2.22.11-2.74,0-.17-.03-.29-.03-.31h-.03c-.17,0-.91.4-1.71.91-.94.63-1.45,1.51-1.45,2.42,0,.63.23,1.23.71,1.8.54.63,1,.91,1.6.91l.66-.03Z"/>
    <path class="cls-5" d="m308.04,120.17c.71-.51,1.45-.77,2.22-.77.2,0,.43.03.66.06,2.31.48,3.73,2.68,4.22,6.64.09.57.14,1.45.17,2.68.03,1.23.03,2.42.03,3.59,0,.83,0,1.54-.03,2.14-.03.6-.06.97-.09,1.11-.31.43-.8.66-1.42.66-.43,0-.88-.11-1.31-.31-.43-.2-.71-.48-.85-.85-.17-.37-.29-.94-.34-1.77-.03-.6-.06-1.45-.06-2.54l.06-3.96c0-1.17-.06-1.99-.14-2.51-.03-.37-.09-.68-.11-.94-.06-.26-.11-.4-.14-.43l-.06-.03c-.14,0-.4.23-.8.71-.43.48-.8,1-1.14,1.57-.88,1.68-1.54,3.16-2.02,4.45-.46,1.25-.88,2.76-1.28,4.5-.23.66-.43,1.14-.57,1.4-.14.29-.31.46-.51.54-.2.09-.46.11-.77.11-.43,0-.91-.06-1.4-.2-.48-.14-.85-.31-1.05-.51l-.31-.34.06-6.33c.03-1.8.03-3.22.06-4.3.03-1.08.03-1.91.06-2.48.03-.54.06-.94.11-1.2.03-.23.09-.37.17-.46.31-.31.74-.48,1.23-.48.37,0,.74.09,1.11.23.37.14.66.37.88.68.14.14.23.4.26.71.03.31.03.86.06,1.57,0,.51,0,1.2.03,2.02.85-2.25,1.8-3.85,2.88-4.82.03,0,.03-.03.06-.03l.11-.11Z"/>
    <path class="cls-5" d="m320.7,135.7c-.88-.26-1.25-.48-1.88-1.2-1.51-1.51-1.88-5.67-1.88-7.24,0,0-.09-1.4-.09-3.28,0-2.54.17-5.98.91-8.12.09-.23.4-.26.68-.26.8.03,1.85.71,2.22,1.6.09.2.11.63.11,1.48,0,1.97,0,.97-.06,2.96,2.79.14,3.59.03,4.53.85.34.31.51.63.51.91-.03.28-.2.51-.54.66-.23.11-.57.14-1.48.14h-1.85c-.68,0-1.14,0-1.17.03-.03.29-.03.23-.03.66v1.31c0,.85,0,1.6.09,2.28.06.71.23,1.77.4,2.31.31,1.2.77,2.14,1.03,2.14.17-.09.83-2.51.83-2.74l-.06.14c.14-.71.26-1.03.48-1.23.34-.37.94-.54,1.51-.54.57.03,1.14.2,1.51.57.2.2.31.43.31.83-.03.4-.14.97-.34,1.88-.37,2.02-1.05,3.13-3.13,3.79-.46.14-.88.23-1.31.23-.48,0-.85-.03-1.31-.17Z"/>
    <path class="cls-5" d="m330.87,136.1c-.71-.26-.94-.57-1.14-1.6-.34-1.85-.6-6.21-.6-9.69,0-1,.03-1.94.06-2.71.14-1.97.14-2.05.43-2.34.23-.2.51-.31.85-.31.85,0,1.97.63,2.28,1.48.06.17.11.8.11,1.43v1.08l.37-.43c1.4-1.74,2.05-2.14,3.68-2.22h.46c.54,0,.77.06,1.17.23.68.29,1.4,1,1.4,1.4,0,.51-.34.77-1.11.85-.46.06-.85.17-1.17.4-.63.4-1.77,1.88-2.25,2.85-.66,1.4-1.28,4.33-1.51,7.27-.09.94-.2,1.57-.31,1.74-.26.43-1.08.71-1.85.71-.31,0-.6-.06-.85-.14Z"/>
    <path class="cls-5" d="m345.35,143.37c-1.45-.37-2.48-1.2-3.08-2.45-.17-.37-.26-.68-.31-.97-.06-.37-.11-.97-.11-1.74,0-.26.03-.43.06-.51.06-.09.14-.2.26-.31.34-.46.88-.68,1.68-.68s1.31.23,1.51.66c.09.17.14.54.17,1.11.11,1.45.8,2.28,1.99,2.42.11,0,.23-.03.31-.09.09-.03.17-.11.29-.2.6-.43,1.11-1.17,1.51-2.22.43-1.05.63-2.76.63-5.19,0-.94-.03-1.99-.11-3.22-.26.77-.68,1.74-1.31,2.85v-.06c-.54,1.05-1.11,1.74-1.68,2.08-.4.31-.91.46-1.45.46h-.63c-.37-.03-.77-.17-1.23-.4t-.03-.03c-.85-.51-1.48-1.23-1.88-2.11-.51-1.14-.77-2.82-.77-5.04s.09-4.19.29-6.04c.11-.85.2-1.34.26-1.43.23-.23.51-.34.94-.34.71,0,1.4.34,2.02,1.03.23.26.34.54.34.8l-.03,1.05c0,3.16.03,5.39.09,6.73.09.71.2,1.51.4,2.39.06.34.11.48.17.48.14,0,.46-.34.97-1.03.94-1.6,1.68-3.48,2.19-5.67l.09-.34c.26-.85.51-2.17.77-3.9.09-.74.2-1.2.37-1.4.17-.17.71-.26,1.62-.26.46,0,.77.09,1,.26.31.2.51.4.6.63.09.26.11,1.05.11,2.45,0,2.88.06,4.96.17,6.21.17,2.08.26,3.76.26,5.07,0,1.23-.06,2.25-.23,3.05-.54,2.71-1.94,4.56-4.13,5.56-.8.37-1.65.54-2.56.54-.74,0-1.23-.06-1.51-.2Z"/>
  </g>
</svg>