<?xml version="1.0" encoding="UTF-8"?>
<svg id="Layer_1" data-name="Layer 1" xmlns="http://www.w3.org/2000/svg" viewBox="0 0 359.09 162.04">
  <defs>
    <style>
      .cls-1 {
        fill: #fff;
      }

      .cls-2 {
        fill: #3a0319;
      }

      .cls-3 {
        fill: #6e6d5c;
      }

      .cls-4 {
        fill: #eaffdc;
      }

      .cls-5 {
        fill: #595844;
      }

      .cls-6 {
        fill: #b2de9a;
      }
    </style>
  </defs>
  <g>
    <path class="cls-4" d="m38.13,104.36c-8.01,0-14.53-6.53-14.53-14.55v-30.38h-3.2c-8.01,0-14.53-6.53-14.53-14.55s6.52-14.55,14.53-14.55h35.38c8.06,0,14.62,6.53,14.62,14.55s-6.56,14.55-14.62,14.55h-3.12v30.38c0,8.02-6.52,14.55-14.53,14.55Z"/>
    <path class="cls-6" d="m46.63,89.81c0,4.7-3.81,8.52-8.5,8.52s-8.5-3.81-8.5-8.52v-36.42h-9.23c-4.7,0-8.5-3.81-8.5-8.52s3.81-8.52,8.5-8.52h35.38c4.7,0,8.58,3.81,8.58,8.52s-3.89,8.52-8.58,8.52h-9.15v36.42Z"/>
    <path class="cls-4" d="m77.65,104.52c-15.51,0-28.14-12.64-28.14-28.17s12.62-28.26,28.14-28.26c19.46,0,28.22,16.52,28.22,28.26,0,15.54-12.66,28.17-28.22,28.17Zm-.2-29.06"/>
    <path class="cls-6" d="m99.83,76.35c0,12.17-9.96,22.14-22.19,22.14s-22.1-9.98-22.1-22.14,9.96-22.22,22.1-22.22c16.11,0,22.19,13.63,22.19,22.22Zm-16.28,0c0-4.14-1.78-5.92-5.91-5.92-3.24,0-5.83,2.68-5.83,5.92s2.59,5.84,5.83,5.84,5.91-2.6,5.91-5.84Z"/>
    <path class="cls-4" d="m118.27,60.59c-.57.15-1.57.52-2.31.87l-1.33.64h-1.5c-1.44,0-2.77-.44-3.85-1.23-.17.01-.33.02-.5.02-4.93,0-8.26-4.53-9.16-12.44-1.16-10.21,3.45-15.01,8.15-16.09.72-.16,1.45-.25,2.17-.25,9.29,0,14,12.72,15.99,20.31l3.11,11.92-10.77-3.75Z"/>
    <path class="cls-2" d="m113.13,56.06c-.41,0-.51-.36-.56-.53-.02-.08-.06-.29-.13-.63-.26-1.44-.95-5.19-1.92-8.04.04.91.1,2.09.18,3.48l.04.79c.03.48.09,1.59-.48,2.57-.18.31-.41.58-.68.79-.26.28-.59.34-.8.34-1.73,0-2.84-4.24-3.17-7.09-.6-5.32.71-8.88,3.5-9.53.27-.06.55-.09.82-.09,5.95,0,9.98,15.16,10.15,15.8l.26.99-.96-.33c-.21-.07-.47-.11-.78-.11-2.04,0-5.2,1.51-5.24,1.52l-.11.05h-.12Z"/>
    <path class="cls-4" d="m118.3,60.02c-.62.14-1.75.54-2.57.94l-1.23.58h-1.37c-1.16,0-2.53-.35-3.68-1.24-.22.02-.44.03-.67.03-4.68,0-7.75-4.25-8.62-11.96-1.12-9.86,3.26-14.47,7.73-15.49.67-.16,1.36-.23,2.05-.23,8.93,0,13.52,12.47,15.46,19.9l2.85,10.93-9.95-3.46Z"/>
    <path class="cls-4" d="m135.14,104.44c-2.03,0-4-.43-5.78-1.23-2.69.82-5.45,1.23-8.23,1.23-15.51,0-28.14-12.64-28.14-28.17,0-5.32,1.26-10.17,3.76-14.42,4.13-7.03,12.44-14.13,21.72-14.13,1.34,0,2.67.15,3.97.44.16.04.33.08.49.12l.33-14.87c-.09-3.77,1.28-7.33,3.89-10.05,2.51-2.62,5.93-4.12,9.37-4.12.46,0,.93.03,1.38.08,6.91.81,11.98,7.32,11.44,14.59v56.39c0,7.8-6.37,14.14-14.21,14.14Z"/>
    <g>
      <path class="cls-5" d="m119.58,54.36s-3.84-18.64-10.56-17.48c-6.72,1.16-3.56,19.47-.94,17.04.17-.12.42-.33.65-.68.66-1.01.59-2.49.59-2.49-.24-5-.36-7.5,0-7.62.3-.1,1.02,1.02,1.59,2.27,2.16,4.8,1.4,10.37,1.41,10.37,0,0,0,0,0,0,.14-.07.33-.15.56-.25.3-.13.68-.29,1.17-.45.13-.04.54-.18,1.09-.32,1.19-.3,2.15-.37,2.43-.39.54-.04,1.23-.05,2.01,0Z"/>
      <path class="cls-5" d="m112.2,56.37h0c.28-2.85.17-6.8-1.74-10.78-.27-.55-.55-1.07-.84-1.56-.05,1.17.07,3.77.22,6.68,0,.07.07,1.66-.67,2.79-.21.32-.47.6-.78.81-.37.35-.87.42-1.34.17-1.81-.97-3.07-7.66-2.31-12.34.55-3.4,2-5.39,4.21-5.77,7.13-1.22,10.97,17.09,11.14,17.87l.13.65-.67-.05c-.64-.05-1.29-.05-1.94,0-.43.03-1.29.12-2.34.38-.53.13-.92.26-1.05.3-.47.16-.84.32-1.13.44-.22.1-.41.18-.55.24l-.34.16Zm-2.82-13.77c.34,0,.99.33,2,2.58,1.67,3.71,1.66,7.8,1.52,9.77.27-.11.6-.25.99-.38.13-.04.56-.19,1.13-.33,1.12-.28,2.06-.37,2.51-.4.47-.03.94-.04,1.41-.03-1.21-5.42-4.92-17.29-9.84-16.45-2.2.38-3.05,2.9-3.38,4.94-.76,4.72.6,10.66,1.79,11.3.06.03.1.06.23-.06.25-.19.43-.37.57-.59.56-.85.51-2.18.51-2.19-.36-7.29-.33-7.9.34-8.13.05-.02.12-.04.21-.04Z"/>
    </g>
    <path class="cls-6" d="m143.31,33.66v56.64c0,4.46-3.64,8.11-8.18,8.11-1.86,0-3.72-.65-5.1-1.87-2.83,1.22-5.83,1.87-8.91,1.87-12.15,0-22.1-9.98-22.1-22.14,0-4.5,1.12-8.28,2.93-11.36,3.51-5.98,11.22-12.64,19.18-10.86,3.57.8,6.09,3.05,7.6,4.76.19-8.48.38-16.95.57-25.43-.19-4.9,3.99-8.52,7.91-8.06,3.5.41,6.53,4.04,6.11,8.35Zm-16.28,42.61c0-3.24-2.67-5.92-5.91-5.92s-5.83,2.68-5.83,5.92,2.59,5.84,5.83,5.84,5.91-2.6,5.91-5.84Z"/>
    <g>
      <path class="cls-5" d="m133.23,38c.84-.35,2.53-1.03,3.82-.26.59.35.87.87.99,1.1,1.45,2.72-.95,8.23-1.07,8.5-1.31,2.95-3.63,7.31-7.76,12.22-.67-.95-1.84-2.37-3.68-3.59-1.51-1-2.95-1.52-3.97-1.8.02-.24.07-.62.14-1.07,1.33-8.5,8.02-13.6,11.54-15.08Z"/>
      <path class="cls-1" d="m122.57,54.5c.84-2.87,3.15-9.44,8.22-11.63.7-.31,2.25-.96,3.21-.3,1.49,1.02.84,4.46.02,6.4-1.8,4.24-2.85,6.03-5.97,9.14l-.7-.7c1.39-1.35,3.25-3.49,4.54-6.68.95-2.34,2.02-6.31.95-6.91-1.28-.72-5.05,3.79-5.51,4.33-2.08,2.49-3.3,4.92-4.01,6.62-.25-.09-.51-.18-.76-.27Z"/>
    </g>
    <path class="cls-1" d="m116.88,53.92s-.03,0-.29.03c-.23.03-.37.05-.39.05-.4.04-1.62-5.27-2.71-8.08-1.07-2.75-3.18-6.06-4.4-5.76-1.14.29-1.38,3.68-1.56,6.23-.19,2.71.06,4.31-.11,4.34-.22.03-.86-2.67-.87-5.54,0-.58.02-1.66.34-2.98.29-1.18.57-2.29,1.51-2.89.45-.28.96-.4,1.34-.39.41,0,2.07.19,5.04,7.19,2.29,5.4,2.32,7.71,2.1,7.79Z"/>
    <path class="cls-4" d="m180.48,104.44c-2.03,0-4-.43-5.78-1.23-2.69.82-5.45,1.23-8.23,1.23-15.51,0-28.14-12.64-28.14-28.17,0-19.42,16.34-28.19,28.02-28.25v-14.36c0-7.84,6.34-14.22,14.13-14.22s14.21,6.38,14.21,14.22v56.64c0,7.8-6.37,14.14-14.21,14.14Z"/>
    <path class="cls-6" d="m188.66,33.66v56.64c0,4.46-3.64,8.11-8.18,8.11-1.86,0-3.72-.65-5.1-1.87-2.83,1.22-5.83,1.87-8.91,1.87-12.15,0-22.1-9.98-22.1-22.14,0-15.33,12.96-22.22,22.1-22.22,2.02,0,4.05.32,5.91.81v-21.2c0-4.54,3.64-8.19,8.1-8.19s8.18,3.65,8.18,8.19Zm-16.28,42.61c0-3.24-2.67-5.92-5.91-5.92s-5.83,2.68-5.83,5.92,2.59,5.84,5.83,5.84,5.91-2.6,5.91-5.84Z"/>
    <path class="cls-4" d="m201.68,104.44c-7.79,0-14.13-6.34-14.13-14.14v-56.64c0-7.84,6.34-14.22,14.13-14.22s14.21,6.38,14.21,14.22v56.64c0,7.8-6.37,14.14-14.21,14.14Z"/>
    <path class="cls-6" d="m209.86,33.66v56.64c0,4.46-3.64,8.11-8.18,8.11s-8.1-3.65-8.1-8.11v-56.64c0-4.54,3.64-8.19,8.1-8.19s8.18,3.65,8.18,8.19Z"/>
    <path class="cls-4" d="m245.33,101.41c-17.84,7.31-32.6-2.12-37.96-15.21-8.63-21.07,7.13-35.81,15.64-39.29,9.4-3.85,25.98-3.24,33.13,14.23,1.38,3.36,1.32,7.48-.77,11.29,1.73,1.53,2.72,3.41,3.26,4.71,3.05,7.44,1.39,18.25-13.3,24.27Z"/>
    <path class="cls-6" d="m242.49,75.52l-10.12,4.15s1.08,1.5,4.16.24c5.93-2.43,13.57-7.69,16.52-.48,1.14,2.77,2.97,11.09-10,16.4-15.11,6.19-26.1-2.17-30.09-11.92-7.07-17.27,6.41-28.99,12.35-31.42,5.22-2.14,19.03-4.28,25.26,10.93,1.43,3.49.08,8.76-8.07,12.09Zm-4.59-7.37s-2.07-4.61-6.9-2.63c-5.06,2.07-3.07,6.72-3.07,6.72l9.97-4.08Z"/>
    <path class="cls-4" d="m269.16,104.38c-8.04,0-14.58-6.55-14.58-14.59v-29.62c0-8.09,6.54-14.68,14.58-14.68,2.1,0,4.15.46,6.07,1.34,2.82-.88,5.78-1.34,8.72-1.34,7.77,0,14.92,3.29,20.11,9.27,2.52,2.97,3.72,6.73,3.43,10.65-.29,3.91-2.09,7.48-5.08,10.04-2.62,2.23-5.98,3.45-9.48,3.45-.38,0-.76-.01-1.14-.04-2.95-.23-5.73-1.34-7.97-3.14v14.07c0,8.05-6.58,14.59-14.67,14.59Z"/>
    <path class="cls-6" d="m301.47,64.96c-.17,2.31-1.2,4.37-2.99,5.91-1.71,1.46-3.93,2.14-6.24,1.97-2.22-.17-4.36-1.2-5.81-3-.68-.77-1.45-1.11-2.48-1.11-3.42,0-6.15,2.83-6.15,6.25v14.81c0,4.71-3.85,8.56-8.63,8.56s-8.55-3.85-8.55-8.56v-29.62c0-4.8,3.85-8.65,8.55-8.65,2.05,0,3.93.77,5.47,1.97,2.91-1.28,6.15-1.97,9.32-1.97,6.07,0,11.54,2.57,15.56,7.19,1.45,1.71,2.14,3.94,1.97,6.25Z"/>
    <path class="cls-4" d="m325.05,105.5c-15.62,0-23.6-8.27-25.86-16.01l-.05-.17-.06-.23c-.84-3.66.1-7.78,2.47-10.75.06-.08.13-.16.2-.24-2.62-2.64-4.35-6.3-4.35-11.42,0-12.92,10.91-22.3,25.95-22.3,10.66,0,17.38,4.75,21.14,8.74l.09.1c3.12,3.46,4.09,8.1,2.59,12.44-.44,1.26-1.06,2.43-1.84,3.46,4.48,2.73,7.9,7.36,7.9,15.37,0,7.27-5.89,21.02-28.17,21.02Z"/>
    <path class="cls-6" d="m347.19,84.48c0,3.34-2.74,14.98-22.14,14.98-17.01,0-19.83-10.87-20.09-11.73-.77-3.34,1.37-7.79,5.81-7.79,6.58,0,3.25,6.08,14.27,6.08,2.74,0,7.86.34,7.86-2.23,0-7.62-29.49-.09-29.49-17.12,0-9.59,8.21-16.27,19.92-16.27,8.55,0,13.85,3.77,16.75,6.85,1.62,1.8,2.14,4.2,1.37,6.42-.77,2.23-2.65,3.85-5.04,4.37l-.17.09c-5.56,0-7.52-4.28-12.91-4.28-.94,0-5.56.17-5.56,2.83,0,8.9,29.4-2.31,29.4,17.81Z"/>
  </g>
  <g>
    <path class="cls-3" d="m5.98,127.33c-.15,0-.09.1-.12.11.24-.02.11-.14.12-.11Z"/>
    <polygon class="cls-3" points="8.39 127.1 8.35 127.14 8.7 127.03 8.39 127.1"/>
    <path class="cls-3" d="m10.64,127.1c-.21-.18-.82.03-1.22-.03l-.07-.04-.18.14c.49-.02,1.12-.12,1.46-.07Z"/>
    <path class="cls-3" d="m11.84,127.48c-.07-.07.26-.06-.28-.02.03,0,.03.01.05.02.05,0,.12,0,.23,0Z"/>
    <path class="cls-3" d="m11.61,127.48c-.24,0,.16.06,0,0h0Z"/>
    <path class="cls-3" d="m12.71,127.44l-.31.06c.07.04.34.05.24.08.32-.03.25-.07.07-.14Z"/>
    <path class="cls-3" d="m13,127.31l-.16.03s.07.02.16-.03Z"/>
    <path class="cls-3" d="m12.5,127.39l.34-.06s-.05-.09-.16.02c.03-.05-.04,0-.19.04Z"/>
    <path class="cls-3" d="m12.3,127.36c-.18-.04-.4-.06-.09-.12-.6.02-.51.15.09.12Z"/>
    <path class="cls-3" d="m10.75,126.91l-.23-.05-.2.06c.1-.03.45.05.44,0Z"/>
    <path class="cls-3" d="m14.65,127.53s-.1-.1-.13-.15l-.23.04c.12.03.34.05.36.11Z"/>
    <path class="cls-3" d="m14.52,127.38l.35-.07c-.31,0-.36.02-.35.07Z"/>
    <polygon class="cls-3" points="13.06 127.11 12.49 127.25 13.17 127.11 13.06 127.11"/>
    <polygon class="cls-3" points="15.97 127.54 15.77 127.63 16.12 127.49 15.97 127.54"/>
    <path class="cls-3" d="m16.84,127.52c-.14.07.2.12.05.17.24-.01.44-.08.62-.13-.19.03-.4.02-.67-.04Z"/>
    <path class="cls-3" d="m17.82,127.48c-.1.02-.2.05-.31.08.1-.02.2-.04.31-.08Z"/>
    <path class="cls-3" d="m15.46,127.34s.08.08.27.11l-.14-.11s-.09,0-.14,0Z"/>
    <path class="cls-3" d="m15.59,127.33h0c.15,0,.25,0,.29,0-.04,0-.13,0-.3,0Z"/>
    <path class="cls-3" d="m15.42,127.34s.02,0,.03,0c-.01-.01-.02-.01-.03,0Z"/>
    <path class="cls-3" d="m13.96,127.21c.2-.06.63-.12.22-.21-.15.07.09.12-.22.21Z"/>
    <path class="cls-3" d="m15.25,127.2l-.37-.02s.07.07-.03.1l.39-.07Z"/>
    <polygon class="cls-3" points="15.43 127.17 15.25 127.2 15.39 127.21 15.43 127.17"/>
    <path class="cls-3" d="m17.19,127.38c.16-.05.33-.05.53-.06-.21-.02-.43-.03-.63-.03-.03.03-.12.09.11.09Z"/>
    <path class="cls-3" d="m16.41,127.35s.02,0,.04,0c-.02,0-.04-.01-.04,0Z"/>
    <path class="cls-3" d="m19.65,127.32s-.02-.01-.03-.02c0,0,0,.01,0,.02h.04Z"/>
    <path class="cls-3" d="m17.05,127.27c-.16-.02-.25,0-.34.04.12-.01.24-.02.38-.02.01-.02.02-.03-.04-.02Z"/>
    <path class="cls-3" d="m18.36,127.43c-.08-.02-.18-.04-.27-.06.08.03.24.09.27.06Z"/>
    <path class="cls-3" d="m16.5,127.37s-.02,0-.02,0c.05.02.05.01.02,0Z"/>
    <path class="cls-3" d="m16.5,127.37c.08-.02.14-.04.21-.07-.1,0-.18.02-.26.04.02,0,.04.02.05.03Z"/>
    <path class="cls-3" d="m20.23,126.63c-.03.1-.44.19-.8.08-.35.07-.12.4.19.58.01-.04.01-.08.37-.14-.13-.05-.8-.13-.5-.22.48-.05.39.04.63.09-.2-.12.61-.18.51-.36l-.42.06s.14-.07.03-.1Z"/>
    <path class="cls-3" d="m18.92,127.29h-.15c.17.03.29.07.52.15.25-.05.3-.08.32-.12h-.73s.05-.03.05-.03Z"/>
    <path class="cls-3" d="m18.11,127.3c.12-.11.47-.15.26-.27-.44,0-.31.09-.57.14.71-.03-.2.06.31.12-.14.02-.26.02-.38.03.13.01.25.03.37.05,0,0-.01,0-.02,0h0s0,0,0,0c-.03-.01-.04-.02,0-.01,0,0,.01,0,.01,0,0-.02.02-.03.03-.04.2.02.03.03-.03.04,0,0,0,.01,0,.02,0,0,0,0,0,0l.71-.06c-.15-.01-.34-.01-.67,0Z"/>
    <path class="cls-3" d="m14.56,126.76s.02.02.02.03c.05-.01.06-.02-.02-.03Z"/>
    <path class="cls-3" d="m14.85,126.83c-.05.01-.09.06-.26.05-.15-.03,0-.05,0-.09-.1.03-.35.08-.04.13h.05c.28.02.65.16.6.17-.08-.1-.16-.17-.35-.26Z"/>
    <path class="cls-3" d="m16.5,127.04l.59-.05-.3-.09.02.06c-.33-.02-.26.05-.3.09Z"/>
    <polygon class="cls-3" points="19.71 127.37 19.63 127.49 19.97 127.33 19.71 127.37"/>
    <polygon class="cls-3" points="20.48 127.36 20.45 127.46 20.65 127.4 20.48 127.36"/>
    <path class="cls-3" d="m63.67,126.13l.17-.03c-.08,0-.13.02-.17.03Z"/>
    <path class="cls-3" d="m62.41,126.13l-.03.05c.06-.03.08-.05.03-.05Z"/>
    <path class="cls-3" d="m39.27,127.35c.25.09.53.24.5.12l-.08-.11c-.18.02-.31,0-.43-.02Z"/>
    <path class="cls-3" d="m52.15,126.7s-.05-.02-.07-.03c-.06.04-.12.07-.17.1.07-.02.16-.05.24-.07Z"/>
    <path class="cls-3" d="m52.32,126.25l.33.07c-.07-.02-.18-.05-.33-.07Z"/>
    <path class="cls-3" d="m70.51,126.02l.2-.11c-.32,0-.18.06-.2.11Z"/>
    <path class="cls-3" d="m28.32,127.32c.22.04.39.06.54.07-.26-.06-.47-.16-.54-.07Z"/>
    <path class="cls-3" d="m63.17,127.28c.11-.02.15-.04.15-.07-.11.02-.17.04-.15.07Z"/>
    <path class="cls-3" d="m29.49,127.38s-.08-.02-.11-.03c-.16.02-.32.03-.51.03.19.05.42.07.63,0Z"/>
    <path class="cls-3" d="m95.32,126.11s.04,0,.06.01c0-.01-.02-.02-.06-.01Z"/>
    <path class="cls-3" d="m102.55,127.2c-.07,0-.19,0-.3,0,.05,0,.14,0,.3,0Z"/>
    <path class="cls-3" d="m23.56,127.41c-.16,0-.03.01,0,0h0Z"/>
    <path class="cls-3" d="m22.77,126.98s.06-.03.06-.05c-.01.03-.04.04-.06.05Z"/>
    <path class="cls-3" d="m31.1,126.71s0,0,.01,0c-.05-.02-.04-.02-.01,0Z"/>
    <path class="cls-3" d="m23.31,127.36c.06.01.13.02.21.03-.03,0-.1-.02-.21-.03Z"/>
    <path class="cls-3" d="m23.35,127.41c-.06,0-.1,0-.14-.01-.02.02,0,.03.14.01Z"/>
    <path class="cls-3" d="m23.78,127.4c-.09,0-.18,0-.26-.01.03,0,.05.01.04.02.05,0,.11,0,.23,0Z"/>
    <path class="cls-3" d="m82.03,126.4s.02,0,.03.01c.16-.04.09-.04-.03-.01Z"/>
    <path class="cls-3" d="m43.5,126.22s-.01,0-.02,0c0,0,.02,0,.02,0h0Z"/>
    <path class="cls-3" d="m44.08,126.14c-.25.14-.39.12-.58.09l.19.31.38-.4Z"/>
    <path class="cls-3" d="m66.67,126.1l-.41-.1c.49-.16.85-.1.47-.24-.06.34-1.59.03-1.65.37l-.27-.07c.08,0,.09-.02.17-.01-.52-.16-.39.25-1.07.2-.24-.03-.4-.08-.24-.12l-.53.08c-.15,0-.12-.07.04-.06l-.8.03h0c-.11.04-.37.13-.5.16-.2-.05.1-.04.05-.08l-.44.08c-.18-.09.19-.17.49-.16-.41-.34-.37.09-1.26-.11l.42-.04c-.27-.19-.6-.12-1.07-.24.11.06.95.3.47.39-.14-.03-.31-.04-.57.03,0-.12-.26-.09-.57-.08l.02-.16c-.34.05-.32.13-.52.2-.38-.02-.46-.14-.55-.24-.61-.03.42.2-.3.23-.51-.06-.87,0-1.48.1-.36-.05.06-.1-.07-.14l-.32.13c-.08,0-.05-.04-.04-.06-.27.05-.02.16-.44.2-.11.18-.86-.26-1.38-.06-.13-.05.06-.1.02-.16-.71.13-.61.1-1.19.27l-.5-.1c.37.12-.1.26-.51.38.13.06.24.11.31.13l-.65.09c-.08-.03-.01-.08.09-.15-.04.01-.09.03-.12.04-.23-.06-.11-.15.05-.24.08.03.16.07.23.1.16-.1.31-.2.28-.3-.04.02-.12.03-.21.04.04-.03.07-.05.05-.07-.02-.02-.09.02-.2.06l-.15-.18-.04.07-.85-.11c-.61.18-1.14.44-2.11.52.24-.13.05-.21.06-.37.26.16.75-.07,1.25-.04-.26-.02-.2-.09-.14-.12l-.9.15c.02-.13-.19-.09-.42-.15.18.25-.67.17-1.03.24-.02-.08.06-.17.51-.15-.49-.19-.63.29-1.12.13.11,0,.17.01.21-.03-.25.07-.87.02-.73-.06h.11c-.72-.03-2.19,0-2.3.21,0-.03.09-.26.14-.3l-1.29.72c.11-.18-.32-.62.28-.72-.17-.03-.38-.06-.75,0,.12.03.29.26.13.28-.44-.2-.3-.11-.85-.28.18.04-.02.33-.3.32.04-.04-.02-.28.08-.31l-.69.28c.17-.05.03-.24-.12-.32.07.06-.6,0-.78.02l.29.07c-.78-.04-.77.4-1.54.38.09-.06.23-.36-.16-.39-.18.14-.8.69-1.48.8l-.13-.08-.52.09c.33-.22,1.24-.67,1.74-.85-.29-.07-.08-.1-.52-.09-.15-.08.24-.12.37-.12l-1.02-.05c.05.17-.78.17-.74.31l1.1-.17c.04.17-.64.48-1.36.45-.18-.07.14-.3.12-.36-.09.06-.68.11-.75.07l.31-.09c-.4-.06-.65.22-1.14.06-.17-.01-.5-.22-.53-.12.27.19.32.78.14.93-.06-.01-.87-.18-1.06-.28-.27-.15.41-.36.18-.49-.01.05-.16.1-.22.12-.17-.04.07-.14-.31-.12-.06.17-.77-.01-.18.14-.37.05-.39-.03-.83-.03.14.11-.39.37-.76.42.02-.04-.06-.1-.1-.13-.76-.02-1.17-.09-1.88-.09-.07-.04-.41-.09-.26-.16-.1.03-.2.09-.41.09-.42-.15.49-.02.17-.2-.03.1-.57.14-.88.2.1.15.72.03,1.03-.03,0,.21-.54.43-1.28.53-.59.05-.26-.14-.36-.11-1.11-.04-.94.37-1.86.22-.36-.13-.02-.27-.1-.36.48-.05.74.09,1.06.08l-.4-.06c.15-.04.47-.08.65-.04-.31-.12-1.87-.02-2.73-.13-.15.05-.41.09-.29.15l.27-.02c.25.11-.51.15-.17.2-.36.08-.77.2-1.28.13l-.1-.15s.33.09.48.04c-.21.07-.78-.21-1.02,0l.36.11c-.36.08-.81.24-1.27.19.21.15.1-.02.43.16-.28-.22,1.16,0,.71-.22.33.21.57.09,1,.26-.01-.05-.15-.1.23-.07.02-.01.06-.03.08-.04.01,0,.02,0,.03,0,0,0-.01,0-.02,0,.02,0,.02,0,0,0-.09-.02-.16-.05-.19-.08.19-.12.79-.11,1-.17.23.02-.09.06.03.11l.31-.09c.03.11.6.19.07.25h.48c.28.07.67.09.91.05.23.02.57-.12.37-.04l.75-.07v.03c.75.01,1.53-.19,2.38.02.25-.03.51-.06.92-.03l.08.1c.32-.03.96.1,1.1,0,.34.26,1.55.06,2.11.1l.02-.13c.39,0,.76-.03,1.24-.08l-.03-.11c.41-.09,1.06.08,1.72.07-.04.04-.21.03-.33,0,.78.25,1.65-.18,2.36,0,.18-.04.3-.03.43,0-.02,0-.03,0-.04,0,.02,0,.05,0,.07,0,.08.02.16.04.25.06-.07-.03-.15-.05-.21-.06.14,0,.34-.02.55-.04l.09.12s.03,0,.05,0c.2.04.16-.06.05-.15.1-.02.2-.04.27-.07.16.19.53-.07.75.14.14-.1,1.02-.08,1.13-.29,0,.03.07.04-.04.04.23.02.45.05.65-.01l.1.15.49-.21c.3.09.42.15.13.27.72-.18.58-.07,1.19-.25l-.03.1c.22,0,.57-.14.7-.05.49.19,2.42.03,3.67.2-.24-.29.58.13.63-.1.07.07.25.11.04.17.64-.07.96.11,1.4-.08.07.07-.14.1-.07.14.05-.01.2-.06.27-.02.07.04-.09.06-.2.09.65-.01.72-.22.77-.42.33.09.5.08.74-.05.12.07.31.13-.1.16.23,0,1.4.1,1.42-.06.07.04.32.01.38,0,.51,0,.56.02,1.06,0l-.14-.03c.2-.19.42-.04.83-.07v.02c.92.14.39-.07,1.31.09l-.05-.12c.09-.26.81.15,1.35.05l-.19-.07c.29-.09.81.35,1.11.38.06.02-.1.04-.19.05.77.15.1-.16.67-.19.11.08-.14.22.25.23.19.07,1.11-.28,1.64-.11-.12-.07-.23-.13.03-.18.41-.02,1.1.25,1.47.04.05.02.07.03.07.05.31-.05,1.01-.09,1.2-.2.29.41,1.93-.2,1.92.18l.96-.02-.03.04c.61.03.83-.07,1.04-.16.14.03.04.06.03.08.89.08.98.06,1.73-.13l.08.12c.2-.07,1.29.19,2.17.05,0,.01-.03.04-.1.06.98-.15,2.36.34,2.72-.11l.65-.11c-.84-.04.13-.2-.22-.27.33-.03.85.14.45.16l-.06-.02c-.15.24,1.04.08,1.02.24,1.65-.01,3.27.12,4.82.13l-.18-.18h.54c.14.05.19.15-.2.15.2.1.65-.09.66-.13.76.07-.29.21-.06.22h.31s-.07-.03-.07-.03c.25-.07.28-.15.74-.15.29.04.15.11.27.12,0,.01.04.02.18,0l.68.02-.27-.14c.3-.07.64,0,.33-.16.46.25,2.54.09,2.82.17.42-.11.84-.1,1.36-.09-.13-.03-.21-.19.24-.17-.16.33.82.15,1.18.39-.32-.16,1.27-.04.76-.27.37.03.02.13.3.2.89-.13,1.95.08,3.05.04.02-.04-.17-.11.07-.18l.58.22c.22-.02.2-.25.59-.1-.06-.04-.14-.09,0-.11,2.14.21,4.38-.18,6.56.23-.29-.09-.1-.09.13-.1-.15-.02,0-.11-.03-.17l.91.17c.17-.17.98-.01,1.07-.17l-.29.03c.38-.19-.54-.41-.48-.65-.43.21-1.13-.31-1.84-.01-.16-.05.13-.08.05-.13-.18.1-.39.12-.79.08l.05-.03c-1.12.03-1.61-.08-2.87-.14l.09.12c-.27-.02-.33-.05-.46-.08-.31.18.76.01.48.21-.36-.24-1.91,0-2.16-.28-.42,0,.12.14-.29.14l-.11-.07-.11.1c-.27-.02-.41-.11-.42-.17.07,0,.19-.02.26-.02-.35-.09-1,.03-1.12,0l.4.05c-1.14.07-2.53-.03-3.63.12l.08.06c-.84.1-.67-.06-1.6-.01h.03c-.18.04-.43.07-.68.06.23-.07-.44-.13-.13-.2-.91.11-.45.09-1.05.29l-.14-.09c-.21.08-.22.13-.68.15.38-.08-.29-.14.13-.25-.97-.2-1.44.2-1.88-.09-.44.26.84.14.59.2.21.08-.37.19-.67.17-.31,0-.53-.33-1.3-.32.08,0,.08-.02.16-.02-.29-.07-.57.09-.93-.02-.2.16-.46,0-.52.19l.71-.05c-.4.05-.78.28-1.45.17.05-.04.25-.09.39-.12-.19-.06-.37.04-.58-.02.06-.2.87-.04,1.3-.19-.21-.08-.82.14-.6-.07-.31.27-.77-.03-1.29.17l.03-.12c-.08.02-.26.07-.41.07l.28-.15c-.43.13-.82-.11-1.23-.04.86,0,.19.14.55.23-1.06.16-.61-.31-1.79-.25.16-.02.6.07.35.13-.22-.02-.52-.07-.66-.13-.78.02.12.12-.21.19-.27-.14-.38.06-.73.11v-.12c-.89-.08-.24.25-1.04.16l.34-.17-.42.04.09-.14c-.46.1-.6.08-1.04.04.1.08-.06.22-.45.22-.27-.07.15-.11-.41-.1.13-.08.27-.17.51-.06.02-.04.12-.08.15-.11-.29-.08-.73-.02-.93-.02.08,0,.17.01.22.03l-.81.17c-.13-.05-.03-.08.07-.12-.16.01-.28.07-.52.08.06-.1.05-.2.39-.25l-.77.11c-.05-.04-.4-.12-.3-.15-.43-.06-1.05.19-1.62.11-.03.02-.09.04-.21.05-.53-.02-1.01-.14-1.64,0l-.36-.18c-.5.04.49.22-.34.29-.58.06-.22-.15-.42-.2-.29.09-.8.27-1.33.13.18-.03.32,0,.48-.02Zm-6.12.08c.12-.03.35-.1.44-.03-.14.14-.24.07-.44.03Zm-9.3.29c.09-.04.22-.02.38.03-.11.01-.24,0-.38-.03Zm-25.91.84s0,0,.01,0c.26.05.17.03-.01,0Zm-.55-.05c-.06.02-.05.03-.03.05.04-.03.16-.03.3-.02-.04-.03-.11-.05-.27-.03Zm58.97-.05l-.11-.03c.24-.03.17,0,.11.03Z"/>
    <path class="cls-3" d="m52.3,126.3s.04.04.05.07c.05-.02.05-.04-.05-.07Z"/>
    <path class="cls-3" d="m70.47,126.04s.01,0,.02,0c.01,0,.02-.01.02-.02l-.04.02Z"/>
    <path class="cls-3" d="m33.29,126.23c.11.02.18.04.22.06,0-.03-.05-.05-.22-.06Z"/>
    <path class="cls-3" d="m21.88,127.46l.35-.03c-.17,0-.23-.02-.32-.04,0,.03.07.07-.04.07Z"/>
    <path class="cls-3" d="m18.82,126.71c-.05.01-.11,0-.16.02v.06c.23,0,.39-.05.16-.07Z"/>
    <path class="cls-3" d="m21.55,127.06c-.03-.1-.25-.07-.49-.05.01,0,.03,0,.04,0-.07.14.19.09.45.05Z"/>
    <path class="cls-3" d="m21,127.02c-.08,0-.15,0-.23,0-.03.06.09.01.23,0Z"/>
    <path class="cls-3" d="m24.09,127.32c-.12-.03-.07.13-.14.09-.13.13.78-.16.14-.09Z"/>
    <polygon class="cls-3" points="21.35 126.73 21.44 126.85 21.58 126.75 21.35 126.73"/>
    <path class="cls-3" d="m23.3,126.82l-.39-.03s-.04.03-.11.04c.24,0,.51.03.5,0Z"/>
    <path class="cls-3" d="m22.8,126.83c-.13,0-.25,0-.32.02.07,0,.22,0,.32-.02Z"/>
    <polygon class="cls-3" points="21.89 126.69 22.01 126.71 22.28 126.72 21.89 126.69"/>
    <path class="cls-3" d="m27.53,126.84l.43-.04s-.07-.07-.23-.05c-.1.03-.26.05-.2.09Z"/>
    <path class="cls-3" d="m26.23,126.5c.12.03.12.05.19.1v-.16s-.19.06-.19.06Z"/>
    <path class="cls-3" d="m27.48,126.46s.62-.12.08-.11c-.04.04-.47.08-.08.11Z"/>
    <polygon class="cls-3" points="33.96 126.66 33.85 126.66 33.86 126.92 33.96 126.66"/>
    <path class="cls-3" d="m39.66,126.05c-.51-.06-.12.16-.58.08-.12.06.38.06.25.11.31-.06.47-.03.33-.2Z"/>
    <path class="cls-3" d="m39.34,126.25s-.1.02-.16.04c.09-.02.13-.03.16-.04Z"/>
    <polygon class="cls-3" points="103.75 127.34 104.08 127.39 103.87 127.31 103.75 127.34"/>
    <path class="cls-3" d="m104.38,127.15l.08.16.2-.15c-.07,0-.22.02-.27-.02Z"/>
    <path class="cls-3" d="m59.64,125.85l-.03.04c.05.04.13.05.28.05l-.26-.09Z"/>
    <polygon class="cls-3" points="64.08 125.97 64 125.97 64.14 126.12 64.08 125.97"/>
    <path class="cls-3" d="m67.81,125.79c-.15,0-.33.03-.48.02.33-.03.52.16.48-.02Z"/>
  </g>
  <g>
    <line class="cls-5" x1="254.43" y1="126.73" x2="353.22" y2="126.73"/>
    <g>
      <path class="cls-3" d="m353.11,126.12c.15,0,.09-.1.12-.11-.24.02-.11.14-.12.11Z"/>
      <polygon class="cls-3" points="350.7 126.35 350.74 126.31 350.39 126.42 350.7 126.35"/>
      <path class="cls-3" d="m348.45,126.35c.21.18.82-.03,1.22.03l.07.04.18-.14c-.49.02-1.12.12-1.46.07Z"/>
      <path class="cls-3" d="m347.25,125.97c.07.07-.26.06.28.02-.03,0-.03-.01-.05-.02-.05,0-.12,0-.23,0Z"/>
      <path class="cls-3" d="m347.48,125.97c.24,0-.16-.06,0,0h0Z"/>
      <path class="cls-3" d="m346.38,126.01l.31-.06c-.07-.04-.34-.05-.24-.08-.32.03-.25.07-.07.14Z"/>
      <path class="cls-3" d="m346.09,126.14l.16-.03s-.07-.02-.16.03Z"/>
      <path class="cls-3" d="m346.59,126.06l-.34.06s.05.09.16-.02c-.03.05.04,0,.19-.04Z"/>
      <path class="cls-3" d="m346.79,126.09c.18.04.4.06.09.12.6-.02.51-.15-.09-.12Z"/>
      <path class="cls-3" d="m348.33,126.54l.23.05.2-.06c-.1.03-.45-.05-.44,0Z"/>
      <path class="cls-3" d="m344.44,125.92s.1.1.13.15l.23-.04c-.12-.03-.34-.05-.36-.11Z"/>
      <path class="cls-3" d="m344.56,126.07l-.34.07c.31,0,.36-.02.34-.07Z"/>
      <polygon class="cls-3" points="346.03 126.34 346.6 126.2 345.92 126.34 346.03 126.34"/>
      <polygon class="cls-3" points="343.12 125.91 343.31 125.83 342.97 125.96 343.12 125.91"/>
      <path class="cls-3" d="m342.24,125.93c.14-.07-.2-.12-.05-.17-.24.01-.44.08-.62.13.19-.03.4-.02.67.04Z"/>
      <path class="cls-3" d="m341.27,125.97c.1-.02.2-.05.31-.08-.1.02-.2.04-.31.08Z"/>
      <path class="cls-3" d="m343.63,126.11s-.08-.08-.27-.11l.14.11s.09,0,.14,0Z"/>
      <path class="cls-3" d="m343.5,126.12h0c-.15,0-.25,0-.29,0,.04,0,.13,0,.3,0Z"/>
      <path class="cls-3" d="m343.67,126.11s-.02,0-.03,0c.01.01.02.01.03,0Z"/>
      <path class="cls-3" d="m345.13,126.24c-.2.06-.63.12-.22.21.15-.07-.09-.12.22-.21Z"/>
      <path class="cls-3" d="m343.83,126.25l.37.02s-.07-.07.03-.1l-.39.07Z"/>
      <polygon class="cls-3" points="343.66 126.28 343.83 126.25 343.7 126.24 343.66 126.28"/>
      <path class="cls-3" d="m341.9,126.07c-.16.05-.33.05-.53.06.21.02.43.03.63.03.03-.03.12-.09-.11-.09Z"/>
      <path class="cls-3" d="m342.68,126.1s-.03,0-.04,0c.02,0,.04.01.04,0Z"/>
      <path class="cls-3" d="m339.44,126.13s.02.01.03.02c0,0,0-.01,0-.02h-.04Z"/>
      <path class="cls-3" d="m342.04,126.18c.16.02.25,0,.34-.04-.12.01-.24.02-.38.02-.01.02-.02.03.04.02Z"/>
      <path class="cls-3" d="m340.73,126.02c.08.02.18.04.27.06-.08-.03-.24-.09-.27-.06Z"/>
      <path class="cls-3" d="m342.59,126.08s.01,0,.02,0c-.05-.02-.05-.01-.02,0Z"/>
      <path class="cls-3" d="m342.59,126.08c-.08.02-.15.04-.21.07.1,0,.19-.02.26-.04-.02,0-.04-.02-.05-.03Z"/>
      <path class="cls-3" d="m338.86,126.82c.03-.1.44-.19.8-.08.35-.07.12-.4-.19-.58-.01.04-.01.08-.37.14.13.05.8.13.5.22-.48.05-.39-.03-.63-.09.2.12-.61.18-.51.36l.42-.06s-.14.07-.03.1Z"/>
      <path class="cls-3" d="m340.16,126.16h.15c-.17-.03-.29-.07-.52-.15-.25.05-.3.09-.32.12h.73s-.05.03-.05.03Z"/>
      <path class="cls-3" d="m340.98,126.15c-.12.11-.47.15-.26.27.44,0,.31-.09.57-.14-.71.03.2-.06-.31-.12.14-.02.26-.02.38-.03-.13-.01-.25-.03-.37-.05,0,0,.01,0,.02,0h0s0,0,0,0c.03.01.04.02,0,.01,0,0-.01,0-.01,0,0,.01-.02.03-.03.04-.2-.02-.03-.03.03-.04,0,0,0-.01,0-.02,0,0,0,0,0,0l-.71.06c.15.01.34.01.67,0Z"/>
      <path class="cls-3" d="m344.53,126.69s-.02-.02-.02-.02c-.05.01-.06.02.02.02Z"/>
      <path class="cls-3" d="m344.24,126.62c.05-.02.09-.06.26-.05.15.03,0,.05,0,.09.1-.03.35-.08.04-.13h-.05c-.28-.02-.65-.16-.6-.17.08.1.16.17.35.26Z"/>
      <path class="cls-3" d="m342.59,126.41l-.59.05.3.09-.02-.06c.33.02.26-.05.3-.09Z"/>
      <polygon class="cls-3" points="339.38 126.08 339.45 125.96 339.11 126.12 339.38 126.08"/>
      <polygon class="cls-3" points="338.61 126.09 338.64 125.99 338.44 126.05 338.61 126.09"/>
      <path class="cls-3" d="m295.42,127.32l-.17.03c.08,0,.13-.02.17-.03Z"/>
      <path class="cls-3" d="m296.68,127.33l.03-.05c-.06.03-.08.05-.03.05Z"/>
      <path class="cls-3" d="m319.81,126.1c-.25-.09-.53-.24-.5-.12l.08.11c.18-.02.31,0,.43.02Z"/>
      <path class="cls-3" d="m306.94,126.75s.05.02.07.03c.06-.04.12-.07.17-.1-.07.02-.16.05-.24.07Z"/>
      <path class="cls-3" d="m306.76,127.2l-.33-.07c.07.02.18.05.33.07Z"/>
      <path class="cls-3" d="m288.58,127.43l-.2.11c.32,0,.18-.06.2-.11Z"/>
      <path class="cls-3" d="m330.77,126.13c-.22-.04-.39-.06-.54-.07.26.06.47.16.54.07Z"/>
      <path class="cls-3" d="m295.92,126.17c-.11.02-.15.04-.15.07.11-.02.17-.04.15-.07Z"/>
      <path class="cls-3" d="m329.6,126.07s.08.02.11.03c.16-.02.32-.03.51-.03-.19-.05-.42-.07-.63,0Z"/>
      <path class="cls-3" d="m263.77,127.34s-.04,0-.06-.01c0,.01.02.02.06.01Z"/>
      <path class="cls-3" d="m256.54,126.25c.07,0,.19,0,.3,0-.05,0-.14,0-.3,0Z"/>
      <path class="cls-3" d="m335.53,126.04c.16,0,.03-.01,0,0h0Z"/>
      <path class="cls-3" d="m336.32,126.47s-.06.03-.06.05c.01-.03.04-.04.06-.05Z"/>
      <path class="cls-3" d="m327.98,126.74s0,0-.01,0c.05.02.04.02.01,0Z"/>
      <path class="cls-3" d="m335.78,126.09c-.06-.01-.13-.02-.21-.03.03,0,.1.02.21.03Z"/>
      <path class="cls-3" d="m335.74,126.04c.06,0,.1,0,.14.01.02-.02,0-.03-.14-.01Z"/>
      <path class="cls-3" d="m335.3,126.05c.09,0,.18,0,.26.01-.03,0-.05-.01-.04-.02-.05,0-.11,0-.23,0Z"/>
      <path class="cls-3" d="m277.06,127.05s-.02,0-.03-.01c-.16.05-.09.04.03.01Z"/>
      <path class="cls-3" d="m315.59,127.23s.01,0,.02,0c0,0-.02,0-.02,0h0Z"/>
      <path class="cls-3" d="m315.01,127.31c.25-.14.39-.12.58-.09l-.19-.31-.38.4Z"/>
      <path class="cls-3" d="m292.42,127.35l.41.1c-.49.16-.85.11-.47.24.06-.34,1.59-.03,1.65-.37l.27.07c-.08,0-.09.02-.17.01.52.16.39-.25,1.07-.2.24.03.4.08.24.12l.53-.08c.15,0,.12.07-.04.06l.8-.03h0c.11-.04.37-.13.5-.16.2.05-.1.04-.05.08l.44-.08c.18.09-.19.17-.49.16.41.34.37-.09,1.26.11l-.42.04c.27.19.6.12,1.07.24-.11-.06-.95-.3-.47-.39.14.03.31.04.57-.03,0,.12.26.09.57.08l-.02.16c.34-.05.32-.13.52-.2.38.02.46.14.55.24.61.03-.42-.2.3-.23.51.06.87,0,1.48-.1.36.06-.06.1.07.14l.32-.13c.08,0,.05.04.04.06.27-.05.02-.16.44-.2.11-.18.86.26,1.38.06.13.05-.06.1-.02.16.71-.13.61-.1,1.19-.27l.5.1c-.37-.12.1-.26.51-.38-.13-.06-.24-.11-.31-.13l.65-.09c.08.03.01.08-.09.15.04-.01.09-.03.12-.04.23.06.11.15-.05.24-.08-.03-.16-.07-.23-.1-.16.1-.31.2-.28.3.04-.02.12-.03.21-.04-.04.03-.07.05-.05.07.02.02.09-.02.2-.06l.15.18.04-.07.85.11c.61-.18,1.14-.44,2.11-.52-.24.13-.05.21-.06.37-.26-.16-.75.07-1.25.04.26.02.2.09.14.12l.9-.15c-.02.13.19.09.42.15-.18-.25.67-.17,1.03-.24.02.08-.06.17-.51.15.49.19.63-.29,1.12-.13-.11,0-.17-.01-.21.03.25-.07.87-.02.73.06h-.11c.72.03,2.19,0,2.3-.21,0,.03-.09.26-.14.3l1.29-.72c-.11.18.32.62-.28.72.17.03.38.06.75,0-.12-.03-.29-.26-.13-.28.44.2.3.11.85.28-.18-.04.02-.33.3-.32-.04.04.02.28-.08.31l.69-.28c-.17.05-.03.24.12.32-.07-.05.6,0,.78-.02l-.29-.07c.78.04.77-.4,1.54-.38-.09.06-.23.36.16.39.18-.14.8-.69,1.48-.8l.13.08.52-.09c-.33.22-1.24.67-1.74.85.29.07.08.1.52.09.15.08-.24.12-.37.12l1.02.05c-.05-.17.78-.17.74-.31l-1.1.17c-.04-.17.64-.48,1.36-.45.18.07-.14.3-.12.36.09-.06.68-.11.75-.07l-.31.09c.4.06.65-.22,1.14-.06.17.01.5.22.53.12-.27-.19-.32-.79-.14-.93.06.01.87.18,1.06.28.27.15-.41.36-.18.49.01-.05.16-.1.22-.12.17.04-.07.14.31.12.06-.17.77.01.18-.14.37-.05.39.04.83.03-.14-.11.39-.37.76-.42-.02.04.06.1.1.13.76.02,1.17.09,1.88.09.07.04.41.09.26.16.1-.03.2-.09.41-.09.42.15-.49.02-.17.2.03-.1.57-.14.88-.2-.1-.15-.72-.03-1.03.03,0-.21.54-.43,1.28-.53.59-.05.26.14.36.11,1.11.04.94-.37,1.86-.22.36.13.02.27.1.36-.48.05-.74-.09-1.06-.08l.4.06c-.15.04-.47.08-.65.04.31.12,1.87.02,2.73.13.15-.04.41-.09.29-.15l-.27.02c-.25-.11.51-.15.17-.2.36-.08.77-.2,1.28-.13l.1.15s-.33-.09-.48-.04c.21-.07.78.21,1.02,0l-.36-.11c.36-.08.81-.24,1.27-.19-.21-.15-.1.02-.43-.16.28.22-1.16,0-.71.22-.33-.21-.57-.09-1-.26.01.05.15.1-.23.07-.02.01-.06.03-.08.04-.01,0-.02,0-.03,0,0,0,.01,0,.02,0-.02,0-.02,0,0,0,.09.02.16.05.19.08-.19.12-.79.11-1,.17-.23-.02.09-.06-.03-.11l-.31.09c-.03-.11-.6-.19-.07-.25h-.48c-.28-.07-.67-.09-.91-.05-.23-.02-.57.12-.37.04l-.75.07v-.03c-.75-.01-1.53.19-2.38-.02-.25.03-.51.06-.92.03l-.08-.1c-.32.03-.96-.1-1.1,0-.34-.26-1.55-.06-2.11-.1l-.02.13c-.39,0-.76.03-1.24.08l.03.11c-.41.09-1.06-.08-1.72-.07.04-.04.21-.03.33,0-.78-.25-1.65.18-2.36,0-.18.04-.3.03-.43,0,.02,0,.03,0,.04,0-.02,0-.04,0-.07,0-.08-.02-.16-.04-.25-.06.07.03.15.05.21.06-.14,0-.34.02-.55.04l-.09-.12s-.03,0-.05,0c-.2-.04-.16.06-.05.15-.1.02-.2.04-.27.07-.16-.19-.53.07-.75-.14-.14.1-1.02.08-1.13.29,0-.03-.07-.04.04-.04-.23-.02-.45-.05-.66.01l-.1-.15-.49.21c-.3-.09-.42-.15-.13-.27-.72.18-.58.07-1.19.25l.03-.1c-.22,0-.57.14-.7.05-.49-.19-2.42-.03-3.67-.2.24.29-.58-.13-.63.1-.07-.07-.25-.11-.04-.17-.64.07-.96-.11-1.4.08-.07-.07.14-.1.07-.14-.05.01-.2.06-.27.02-.07-.04.09-.06.2-.09-.65.01-.72.22-.77.42-.33-.09-.5-.08-.74.05-.12-.07-.31-.13.1-.16-.23,0-1.4-.1-1.42.06-.07-.04-.32-.01-.38,0-.51,0-.56-.02-1.06,0l.14.03c-.2.19-.42.04-.83.07v-.02c-.92-.14-.39.07-1.31-.09l.05.12c-.09.26-.81-.15-1.35-.05l.19.07c-.29.09-.81-.35-1.11-.38-.06-.02.1-.04.19-.05-.77-.15-.1.16-.67.19-.11-.08.14-.22-.25-.23-.19-.07-1.11.27-1.64.11.12.07.23.13-.03.18-.41.02-1.1-.25-1.47-.04-.05-.02-.07-.03-.07-.05-.31.05-1.01.09-1.2.2-.29-.41-1.93.2-1.92-.18l-.96.02.03-.04c-.61-.03-.83.07-1.04.16-.14-.03-.04-.06-.03-.08-.89-.08-.98-.06-1.73.13l-.08-.12c-.2.07-1.29-.19-2.17-.05,0-.01.03-.04.1-.06-.98.15-2.36-.34-2.72.11l-.65.11c.84.03-.13.2.22.27-.33.03-.85-.14-.45-.16l.06.02c.15-.24-1.04-.08-1.02-.24-1.65.01-3.27-.12-4.82-.13l.18.18h-.54c-.14-.05-.19-.15.2-.15-.2-.1-.65.09-.66.13-.76-.07.29-.21.06-.22h-.31s.07.04.07.04c-.25.07-.28.15-.74.14-.29-.04-.15-.11-.27-.12,0-.01-.04-.02-.18,0l-.68-.02.27.14c-.3.07-.64,0-.33.16-.46-.25-2.54-.09-2.82-.17-.42.11-.84.1-1.36.09.13.03.21.19-.24.17.16-.33-.82-.15-1.18-.39.32.16-1.27.04-.76.27-.37-.03-.02-.13-.3-.2-.89.13-1.95-.08-3.05-.04-.02.04.17.11-.07.18l-.58-.22c-.22.02-.2.25-.59.1.06.04.14.09,0,.11-2.14-.21-4.38.18-6.56-.23.29.09.1.09-.13.1.15.02,0,.11.03.17l-.91-.17c-.17.17-.98.01-1.07.17l.29-.03c-.38.19.54.41.48.65.43-.21,1.13.31,1.84.01.16.05-.13.08-.05.13.18-.1.39-.12.79-.08l-.05.03c1.12-.02,1.61.08,2.87.14l-.09-.12c.27.02.33.05.46.08.31-.18-.76-.01-.48-.21.36.24,1.91,0,2.16.28.42,0-.12-.14.29-.14l.11.07.11-.1c.27.02.41.11.42.17-.07,0-.19.02-.26.02.35.09,1-.03,1.12,0l-.4-.05c1.14-.07,2.53.03,3.63-.12l-.08-.06c.84-.1.67.06,1.6.01h-.03c.18-.04.43-.07.68-.06-.23.07.44.13.13.2.91-.11.45-.09,1.05-.29l.14.09c.21-.08.22-.13.68-.15-.38.08.29.14-.13.25.97.2,1.44-.2,1.88.09.44-.26-.84-.14-.59-.2-.21-.08.37-.19.67-.17.31,0,.53.33,1.3.32-.08,0-.08.02-.16.02.29.07.57-.09.93.02.2-.16.46,0,.52-.19l-.71.05c.4-.05.78-.28,1.45-.17-.05.04-.25.09-.39.12.19.06.37-.04.58.02-.06.2-.87.04-1.3.19.21.08.82-.14.6.07.31-.27.77.03,1.29-.17l-.03.12c.08-.02.26-.07.41-.07l-.28.15c.43-.13.82.11,1.23.04-.86,0-.19-.14-.55-.23,1.06-.16.61.31,1.79.25-.16.02-.6-.07-.35-.13.22.02.52.07.66.13.78-.02-.12-.12.21-.2.27.14.38-.06.73-.1v.12c.89.08.24-.25,1.04-.16l-.34.17.42-.04-.09.14c.46-.1.6-.08,1.04-.04-.1-.08.06-.22.45-.22.27.07-.15.11.41.1-.13.08-.27.17-.51.06-.03.04-.12.08-.15.11.29.08.73.02.93.02-.08,0-.17-.01-.22-.03l.81-.17c.13.05.03.08-.07.12.16-.01.28-.07.52-.08-.06.1-.05.2-.39.25l.77-.11c.05.04.4.12.3.15.43.06,1.05-.19,1.62-.11.03-.02.09-.04.21-.05.53.02,1.01.14,1.64,0l.36.18c.5-.04-.49-.22.34-.29.58-.06.22.15.42.2.29-.09.8-.27,1.33-.13-.18.03-.32,0-.48.02Zm6.12-.08c-.12.03-.35.1-.44.03.14-.14.24-.07.44-.03Zm9.3-.29c-.09.04-.22.02-.38-.03.11,0,.24,0,.38.03Zm25.91-.84s0,0-.01,0c-.26-.05-.17-.03.01,0Zm.55.05c.06-.02.05-.03.03-.05-.04.03-.16.03-.3.02.04.03.11.05.27.03Zm-58.97.05l.11.03c-.24.03-.17,0-.11-.03Z"/>
      <path class="cls-3" d="m306.79,127.15s-.04-.04-.05-.07c-.05.02-.05.04.05.07Z"/>
      <path class="cls-3" d="m288.62,127.41s-.01,0-.02,0c-.01,0-.02.01-.02.02l.04-.02Z"/>
      <path class="cls-3" d="m325.79,127.22c-.11-.02-.18-.04-.22-.06,0,.03.05.05.22.06Z"/>
      <path class="cls-3" d="m337.21,125.99l-.35.03c.17,0,.23.02.32.04,0-.03-.07-.07.04-.07Z"/>
      <path class="cls-3" d="m340.26,126.74c.05-.01.11,0,.16-.02v-.06c-.23,0-.39.05-.16.07Z"/>
      <path class="cls-3" d="m337.54,126.39c.03.1.25.07.49.05-.01,0-.03,0-.04,0,.07-.14-.19-.09-.45-.05Z"/>
      <path class="cls-3" d="m338.09,126.44c.08,0,.15,0,.23,0,.03-.06-.09-.01-.23,0Z"/>
      <path class="cls-3" d="m335,126.13c.12.03.07-.13.14-.09.13-.13-.78.16-.14.09Z"/>
      <polygon class="cls-3" points="337.74 126.72 337.65 126.6 337.51 126.7 337.74 126.72"/>
      <path class="cls-3" d="m335.79,126.63l.39.03s.04-.03.11-.04c-.24,0-.51-.03-.5,0Z"/>
      <path class="cls-3" d="m336.29,126.62c.13,0,.25,0,.32-.02-.07,0-.22,0-.32.02Z"/>
      <polygon class="cls-3" points="337.2 126.76 337.08 126.74 336.8 126.73 337.2 126.76"/>
      <path class="cls-3" d="m331.56,126.61l-.43.04s.07.07.23.05c.1-.03.26-.05.2-.09Z"/>
      <path class="cls-3" d="m332.86,126.95c-.12-.03-.12-.05-.19-.1v.16s.19-.06.19-.06Z"/>
      <path class="cls-3" d="m331.6,126.99s-.62.12-.08.11c.04-.04.47-.08.08-.11Z"/>
      <polygon class="cls-3" points="325.13 126.79 325.24 126.79 325.22 126.54 325.13 126.79"/>
      <path class="cls-3" d="m319.42,127.4c.51.06.12-.16.58-.08.12-.06-.38-.06-.25-.11-.31.06-.47.03-.33.2Z"/>
      <path class="cls-3" d="m319.75,127.21s.1-.02.16-.04c-.09.02-.13.03-.16.04Z"/>
      <polygon class="cls-3" points="255.34 126.11 255.01 126.06 255.22 126.15 255.34 126.11"/>
      <path class="cls-3" d="m254.71,126.3l-.08-.16-.2.15c.07,0,.22-.02.27.02Z"/>
      <path class="cls-3" d="m299.45,127.6l.03-.04c-.05-.04-.13-.05-.28-.05l.26.09Z"/>
      <polygon class="cls-3" points="295.01 127.48 295.09 127.48 294.94 127.33 295.01 127.48"/>
      <path class="cls-3" d="m291.28,127.67c.15,0,.33-.03.48-.02-.33.03-.52-.16-.48.02Z"/>
    </g>
  </g>
  <g>
    <path class="cls-5" d="m130,134.54c-.63-.14-1-.49-1.03-.95v-.06c0-.75,1.12-1.29,2.78-1.29.37,0,.75-.03.8-.09.09-.06.17-2.87.26-8.83.09-4.82.17-8.89.23-9.03l.03-.11c0-.09-.06-.11-.2-.11l-1.23.09c-.34,0-.55-.06-.86-.2-.86-.37-1.61-1.29-1.61-1.95,0-.14.11-.37.26-.55.34-.37,1.52-.57,4.39-.72.8-.06,1.49-.09,2.09-.09,2.27,0,3.38.37,4.04,1.2.34.43.52.8.52,1.12,0,.23-.09.43-.26.63-.17.17-.4.2-1.92.2h-1.72v9.12l-.03,9.09h.75c.95,0,1.52.17,1.98.55.23.17.34.37.34.57,0,.17-.11.37-.29.6-.52.6-1.06.69-4.85.8l-3.5.11c-.57,0-.72-.06-.97-.11Z"/>
    <path class="cls-5" d="m147.26,119.25c.72-.52,1.46-.77,2.24-.77.2,0,.43.03.66.06,2.32.49,3.76,2.7,4.24,6.68.09.57.14,1.46.17,2.7.03,1.23.03,2.44.03,3.61,0,.83,0,1.55-.03,2.15-.03.6-.06.98-.09,1.12-.32.43-.8.66-1.43.66-.43,0-.89-.11-1.32-.32-.43-.2-.72-.49-.86-.86-.17-.37-.29-.95-.34-1.78-.03-.6-.06-1.46-.06-2.55l.06-3.99c0-1.18-.06-2.01-.14-2.52-.03-.37-.09-.69-.11-.95-.06-.26-.11-.4-.14-.43l-.06-.03c-.14,0-.4.23-.8.72-.43.49-.8,1-1.15,1.58-.89,1.69-1.55,3.18-2.04,4.47-.46,1.26-.89,2.78-1.29,4.53-.23.66-.43,1.15-.57,1.41-.14.29-.32.46-.52.55-.2.09-.46.11-.77.11-.43,0-.92-.06-1.41-.2-.49-.14-.86-.32-1.06-.52l-.32-.34.06-6.37c.03-1.81.03-3.24.06-4.33.03-1.09.03-1.92.06-2.5.03-.54.06-.95.11-1.2.03-.23.09-.37.17-.46.32-.32.75-.49,1.23-.49.37,0,.75.09,1.12.23.37.14.66.37.89.69.14.14.23.4.26.72.03.32.03.86.06,1.58,0,.52,0,1.21.03,2.04.86-2.27,1.81-3.87,2.9-4.85.03,0,.03-.03.06-.03l.11-.11Z"/>
    <path class="cls-5" d="m157.93,134.91c-.2-.11-.49-.34-.63-.52-.2-.32-.23-.52-.26-5.33-.06-4.01-.09-5.05-.23-5.25-.09-.14-.14-.32-.14-.49,0-.2.06-.4.17-.55.14-.17.17-.72.17-2.87,0-2.5-.03-2.67-.23-2.95-.14-.17-.29-.46-.32-.66v-.11c0-.46.4-.86,1.15-1,.98-.2,3.73-.37,5.51-.37.83,0,1.46.03,1.61.11.57.29,1.18.92,1.29,1.35l.03.17c0,.34-.29.69-.75.77-.26.06-1.2.14-2.15.17-1.75.09-2.47.17-2.49.34l.17,4.16.46-.09c.17-.03.34-.06.52-.06,1.12,0,2.27.72,2.27,1.46l-.06.26c-.26.57-1.26.77-3.13,1.15l.09,7.51c0,2.24-.14,2.29-.77,2.64-.37.2-.89.32-1.38.32-.34,0-.66-.06-.89-.17Z"/>
    <path class="cls-5" d="m168.66,134.94c-2.58-.49-4.39-1.89-5.13-3.99-.14-.4-.2-.69-.2-1.09l.03-.6c.03-.83.11-1.09.4-1.66.2-.37.54-.89.77-1.12.46-.46,2.06-1.43,3.07-1.86,1.12-.49,2.32-.69,3.07-.69l-.09-.75c-.03-.37-.17-1.03-.26-1.41-.17-.66-.2-.72-.52-.75h-.06c-.46,0-1.81.37-2.5.72-.37.17-.63.26-.92.26-.2,0-.43-.06-.72-.14-.83-.23-1.61-.98-1.61-1.52,0-.52.8-1,2.47-1.49.8-.2,1.52-.32,2.21-.32.4,0,.77.03,1.15.11,2.58.46,4.13,2.44,4.62,5.82.06.4.09,1.26.09,2.64l-.03,2.67c-.06,4.96-.03,4.76-.92,5.08-.26.09-.63.14-1.12.14l-.8-.03c-.49,0-1.06.03-1.41.06l-.6.03c-.37,0-.69-.03-1-.11Zm1.72-2.21l.14-2.98c.06-1.18.11-2.24.11-2.75,0-.17-.03-.29-.03-.32h-.03c-.17,0-.92.4-1.72.92-.95.63-1.46,1.52-1.46,2.44,0,.63.23,1.23.72,1.81.54.63,1,.92,1.61.92l.66-.03Z"/>
    <path class="cls-5" d="m184.09,119.25c.72-.52,1.46-.77,2.24-.77.2,0,.43.03.66.06,2.32.49,3.76,2.7,4.24,6.68.09.57.14,1.46.17,2.7.03,1.23.03,2.44.03,3.61,0,.83,0,1.55-.03,2.15-.03.6-.06.98-.09,1.12-.32.43-.8.66-1.43.66-.43,0-.89-.11-1.32-.32-.43-.2-.72-.49-.86-.86-.17-.37-.29-.95-.34-1.78-.03-.6-.06-1.46-.06-2.55l.06-3.99c0-1.18-.06-2.01-.14-2.52-.03-.37-.09-.69-.11-.95-.06-.26-.11-.4-.14-.43l-.06-.03c-.14,0-.4.23-.8.72-.43.49-.8,1-1.15,1.58-.89,1.69-1.55,3.18-2.04,4.47-.46,1.26-.89,2.78-1.29,4.53-.23.66-.43,1.15-.57,1.41-.14.29-.32.46-.52.55-.2.09-.46.11-.77.11-.43,0-.92-.06-1.41-.2-.49-.14-.86-.32-1.06-.52l-.32-.34.06-6.37c.03-1.81.03-3.24.06-4.33.03-1.09.03-1.92.06-2.5.03-.54.06-.95.11-1.2.03-.23.09-.37.17-.46.32-.32.75-.49,1.23-.49.37,0,.75.09,1.12.23.37.14.66.37.89.69.14.14.23.4.26.72.03.32.03.86.06,1.58,0,.52,0,1.21.03,2.04.86-2.27,1.81-3.87,2.9-4.85.03,0,.03-.03.06-.03l.11-.11Z"/>
    <path class="cls-5" d="m196.83,134.88c-.89-.26-1.26-.49-1.89-1.2-1.52-1.52-1.89-5.71-1.89-7.28,0,0-.09-1.4-.09-3.3,0-2.55.17-6.02.92-8.17.09-.23.4-.26.69-.26.8.03,1.86.72,2.24,1.61.09.2.11.63.11,1.49,0,1.98,0,.98-.06,2.98,2.81.14,3.61.03,4.56.86.34.32.52.63.52.92-.03.29-.2.52-.55.66-.23.11-.57.14-1.49.14h-1.86c-.69,0-1.15,0-1.18.03-.03.29-.03.23-.03.66v1.32c0,.86,0,1.61.09,2.29.06.72.23,1.78.4,2.32.32,1.2.77,2.15,1.03,2.15.17-.09.83-2.52.83-2.75l-.06.14c.14-.72.26-1.03.49-1.23.34-.37.95-.55,1.52-.55.57.03,1.15.2,1.52.57.2.2.32.43.32.83-.03.4-.14.98-.34,1.89-.37,2.04-1.06,3.15-3.15,3.81-.46.14-.89.23-1.32.23-.49,0-.86-.03-1.32-.17Z"/>
    <path class="cls-5" d="m207.06,135.29c-.72-.26-.95-.57-1.15-1.61-.34-1.86-.6-6.25-.6-9.75,0-1,.03-1.95.06-2.72.14-1.98.14-2.07.43-2.35.23-.2.52-.32.86-.32.86,0,1.98.63,2.29,1.49.06.17.11.8.11,1.43v1.09l.37-.43c1.41-1.75,2.07-2.15,3.7-2.24h.46c.55,0,.77.06,1.18.23.69.29,1.41,1,1.41,1.41,0,.52-.34.77-1.12.86-.46.06-.86.17-1.18.4-.63.4-1.78,1.89-2.27,2.87-.66,1.41-1.29,4.36-1.52,7.31-.09.95-.2,1.58-.32,1.75-.26.43-1.09.72-1.86.72-.32,0-.6-.06-.86-.14Z"/>
    <path class="cls-5" d="m221.63,142.6c-1.46-.37-2.49-1.2-3.1-2.47-.17-.37-.26-.69-.32-.98-.06-.37-.11-.97-.11-1.75,0-.26.03-.43.06-.52.06-.09.14-.2.26-.32.34-.46.89-.69,1.69-.69s1.32.23,1.52.66c.09.17.14.55.17,1.12.11,1.46.8,2.29,2.01,2.44.11,0,.23-.03.32-.09.09-.03.17-.11.29-.2.6-.43,1.12-1.18,1.52-2.24.43-1.06.63-2.78.63-5.22,0-.95-.03-2.01-.11-3.24-.26.77-.69,1.75-1.32,2.87v-.06c-.55,1.06-1.12,1.75-1.69,2.09-.4.32-.92.46-1.46.46h-.63c-.37-.03-.77-.17-1.23-.4t-.03-.03c-.86-.52-1.49-1.23-1.89-2.12-.52-1.15-.77-2.84-.77-5.08s.09-4.22.29-6.08c.11-.86.2-1.35.26-1.43.23-.23.52-.34.95-.34.72,0,1.41.34,2.04,1.03.23.26.34.55.34.8l-.03,1.06c0,3.18.03,5.42.09,6.77.09.72.2,1.52.4,2.41.06.34.11.49.17.49.14,0,.46-.34.98-1.03.95-1.61,1.69-3.5,2.21-5.71l.09-.34c.26-.86.52-2.18.77-3.93.09-.75.2-1.2.37-1.41.17-.17.72-.26,1.63-.26.46,0,.77.09,1,.26.32.2.52.4.6.63.09.26.11,1.06.11,2.47,0,2.9.06,4.99.17,6.25.17,2.09.26,3.79.26,5.11,0,1.23-.06,2.27-.23,3.07-.55,2.72-1.95,4.59-4.16,5.59-.8.37-1.66.55-2.58.55-.75,0-1.23-.06-1.52-.2Z"/>
  </g>
</svg>