<?xml version="1.0" encoding="UTF-8"?>
<svg id="Layer_1" data-name="Layer 1" xmlns="http://www.w3.org/2000/svg" xmlns:xlink="http://www.w3.org/1999/xlink" viewBox="0 0 691.35 440.27">
  <defs>
    <style>
      .cls-1 {
        fill: #fff;
      }

      .cls-2 {
        fill: #3a0319;
      }

      .cls-3 {
        fill: #8cd5e3;
      }

      .cls-4 {
        fill: #d4faff;
      }

      .cls-5 {
        fill: #ffcc4d;
      }

      .cls-6 {
        fill: url(#linear-gradient);
      }
    </style>
    <linearGradient id="linear-gradient" x1="272.04" y1="155.86" x2="277.65" y2="248.95" gradientUnits="userSpaceOnUse">
      <stop offset="0" stop-color="#ffff71"/>
      <stop offset="1" stop-color="#ffda73"/>
    </linearGradient>
  </defs>
  <g>
    <g>
      <path class="cls-3" d="m172.34,251.56c-9.82,0-17.82-8-17.82-17.83v-37.24h-3.92c-9.82,0-17.82-8-17.82-17.83s7.99-17.83,17.82-17.83h43.37c9.88,0,17.92,8,17.92,17.83s-8.04,17.83-17.92,17.83h-3.82v37.24c0,9.83-7.99,17.83-17.82,17.83Z"/>
      <path class="cls-4" d="m182.76,233.73c0,5.77-4.66,10.44-10.42,10.44s-10.42-4.67-10.42-10.44v-44.64h-11.31c-5.76,0-10.42-4.67-10.42-10.44s4.66-10.44,10.42-10.44h43.37c5.76,0,10.52,4.67,10.52,10.44s-4.76,10.44-10.52,10.44h-11.22v44.64Z"/>
      <path class="cls-3" d="m220.77,251.76c-19.02,0-34.49-15.49-34.49-34.54s15.47-34.64,34.49-34.64c23.86,0,34.59,20.25,34.59,34.64,0,19.04-15.52,34.54-34.59,34.54Zm-.24-35.63"/>
      <path class="cls-4" d="m247.97,217.22c0,14.91-12.21,27.14-27.19,27.14s-27.1-12.23-27.1-27.14,12.21-27.24,27.1-27.24c19.75,0,27.19,16.7,27.19,27.24Zm-19.95,0c0-5.07-2.18-7.26-7.24-7.26-3.97,0-7.15,3.28-7.15,7.26s3.18,7.16,7.15,7.16,7.24-3.18,7.24-7.16Z"/>
      <path class="cls-3" d="m270.57,197.9c-.7.19-1.92.63-2.83,1.06l-1.62.78h-1.84c-1.76,0-3.39-.54-4.72-1.51-.2.01-.41.02-.61.02-6.04,0-10.13-5.56-11.23-15.25-1.42-12.52,4.23-18.39,9.99-19.72.88-.2,1.77-.3,2.66-.3,11.39,0,17.17,15.6,19.59,24.89l3.81,14.61-13.2-4.59Z"/>
      <path class="cls-2" d="m264.27,192.35c-.5,0-.63-.44-.69-.65-.03-.1-.08-.36-.15-.77-.32-1.77-1.16-6.36-2.36-9.85.05,1.11.13,2.56.22,4.27l.05.97c.03.59.11,1.95-.59,3.15-.22.38-.5.71-.83.97-.32.34-.72.42-.98.42-2.12,0-3.49-5.19-3.88-8.69-.74-6.52.87-10.89,4.3-11.68.33-.08.67-.12,1.01-.12,7.3,0,12.23,18.58,12.44,19.37l.32,1.21-1.18-.41c-.25-.09-.58-.13-.96-.13-2.5,0-6.38,1.85-6.42,1.87l-.14.07h-.15Z"/>
      <path class="cls-3" d="m270.61,197.21c-.76.18-2.14.67-3.16,1.15l-1.5.71h-1.68c-1.42,0-3.1-.44-4.51-1.52-.27.03-.54.04-.82.04-5.74,0-9.49-5.2-10.57-14.65-1.37-12.08,3.99-17.73,9.47-18.99.83-.19,1.67-.29,2.51-.29,10.94,0,16.57,15.28,18.95,24.4l3.5,13.4-12.2-4.24Z"/>
      <path class="cls-3" d="m291.24,251.66c-2.49,0-4.9-.52-7.08-1.51-3.3,1-6.68,1.51-10.09,1.51-19.02,0-34.49-15.49-34.49-34.54,0-6.52,1.55-12.46,4.61-17.67,5.06-8.62,15.25-17.32,26.62-17.32,1.64,0,3.28.18,4.87.54.2.05.4.09.6.14l.41-18.23c-.11-4.62,1.57-8.99,4.77-12.31,3.08-3.21,7.27-5.04,11.48-5.04.57,0,1.14.03,1.7.1,8.47,1,14.68,8.97,14.02,17.89v69.12c0,9.56-7.81,17.34-17.42,17.34Z"/>
      <g>
        <path class="cls-5" d="m272.17,190.27s-4.7-22.85-12.94-21.43c-8.24,1.42-4.37,23.87-1.15,20.89.21-.15.52-.41.8-.84.81-1.24.73-3.05.73-3.06-.3-6.13-.44-9.2,0-9.35.37-.12,1.26,1.25,1.95,2.78,2.65,5.89,1.72,12.71,1.73,12.71,0,0,0,0,0,0,.17-.08.41-.19.69-.31.36-.16.83-.35,1.43-.56.15-.05.66-.22,1.33-.39,1.46-.36,2.64-.46,2.97-.48.67-.05,1.5-.06,2.46.01Z"/>
        <path class="cls-3" d="m263.13,192.74h0c.34-3.49.21-8.34-2.13-13.21-.33-.68-.67-1.31-1.03-1.91-.07,1.44.09,4.62.27,8.19,0,.08.09,2.04-.83,3.42-.26.39-.58.73-.95,1-.45.42-1.07.52-1.64.21-2.22-1.19-3.76-9.4-2.83-15.13.67-4.16,2.46-6.61,5.16-7.08,8.74-1.5,13.45,20.95,13.65,21.91l.17.8-.82-.06c-.79-.06-1.59-.06-2.37-.01-.52.03-1.58.14-2.87.46-.65.16-1.13.32-1.28.37-.58.2-1.04.39-1.39.54-.27.12-.5.22-.67.3l-.41.19Zm-3.46-16.88c.42,0,1.21.4,2.45,3.16,2.05,4.55,2.03,9.56,1.87,11.98.33-.14.73-.3,1.22-.47.16-.05.68-.23,1.38-.4,1.38-.34,2.52-.46,3.08-.5.57-.04,1.16-.05,1.73-.03-1.48-6.64-6.03-21.19-12.06-20.16-2.69.47-3.74,3.55-4.15,6.06-.94,5.78.73,13.06,2.2,13.85.07.04.13.07.28-.08.31-.23.53-.46.7-.73.69-1.05.62-2.67.62-2.69-.44-8.94-.41-9.68.42-9.96.06-.02.14-.05.25-.05Z"/>
      </g>
      <path class="cls-6" d="m301.27,164.89v69.43c0,5.47-4.47,9.94-10.02,9.94-2.28,0-4.57-.8-6.25-2.29-3.47,1.49-7.15,2.29-10.92,2.29-14.89,0-27.1-12.23-27.1-27.14,0-5.52,1.37-10.15,3.59-13.93,4.3-7.33,13.76-15.49,23.51-13.31,4.38.98,7.47,3.74,9.32,5.84.23-10.39.47-20.78.7-31.17-.24-6.01,4.89-10.45,9.69-9.88,4.29.5,8,4.95,7.49,10.23Zm-19.95,52.23c0-3.98-3.28-7.26-7.24-7.26s-7.15,3.28-7.15,7.26,3.18,7.16,7.15,7.16,7.24-3.18,7.24-7.16Z"/>
      <g>
        <path class="cls-5" d="m288.9,170.22c1.03-.43,3.1-1.27,4.68-.32.72.43,1.07,1.07,1.22,1.35,1.78,3.34-1.17,10.09-1.31,10.41-1.61,3.62-4.46,8.96-9.52,14.97-.82-1.17-2.25-2.9-4.52-4.4-1.85-1.23-3.61-1.87-4.86-2.21.03-.3.08-.76.17-1.31,1.63-10.42,9.83-16.67,14.15-18.48Z"/>
        <path class="cls-1" d="m275.84,190.44c1.03-3.52,3.87-11.57,10.08-14.26.86-.37,2.76-1.18,3.94-.37,1.83,1.25,1.03,5.47.02,7.85-2.2,5.2-3.49,7.39-7.32,11.2l-.85-.86c1.71-1.65,3.98-4.28,5.57-8.19,1.16-2.86,2.47-7.74,1.17-8.47-1.57-.89-6.19,4.65-6.75,5.31-2.55,3.05-4.05,6.04-4.91,8.11-.31-.11-.62-.22-.93-.34Z"/>
      </g>
      <path class="cls-1" d="m268.86,189.73s-.04,0-.36.04c-.28.03-.46.06-.48.06-.49.05-1.99-6.46-3.33-9.9-1.31-3.38-3.9-7.43-5.4-7.06-1.4.35-1.69,4.52-1.91,7.64-.23,3.32.08,5.29-.13,5.31-.27.03-1.05-3.27-1.07-6.79,0-.71.02-2.04.41-3.65.35-1.45.7-2.81,1.85-3.54.55-.34,1.17-.49,1.64-.47.5.01,2.54.24,6.18,8.82,2.81,6.62,2.85,9.45,2.58,9.55Z"/>
      <path class="cls-3" d="m346.82,251.66c-2.49,0-4.9-.52-7.08-1.51-3.3,1-6.68,1.51-10.09,1.51-19.02,0-34.49-15.49-34.49-34.54,0-23.81,20.03-34.56,34.34-34.63v-17.6c0-9.61,7.77-17.44,17.32-17.44s17.42,7.82,17.42,17.44v69.43c0,9.56-7.81,17.34-17.42,17.34Z"/>
      <path class="cls-4" d="m356.85,164.89v69.43c0,5.47-4.47,9.94-10.02,9.94-2.28,0-4.57-.8-6.25-2.29-3.47,1.49-7.15,2.29-10.92,2.29-14.89,0-27.1-12.23-27.1-27.14,0-18.79,15.88-27.24,27.1-27.24,2.48,0,4.96.4,7.24.99v-25.98c0-5.57,4.47-10.04,9.93-10.04s10.02,4.47,10.02,10.04Zm-19.95,52.23c0-3.98-3.28-7.26-7.24-7.26s-7.15,3.28-7.15,7.26,3.18,7.16,7.15,7.16,7.24-3.18,7.24-7.16Z"/>
      <path class="cls-3" d="m372.81,251.66c-9.55,0-17.32-7.78-17.32-17.34v-69.43c0-9.61,7.77-17.44,17.32-17.44s17.42,7.82,17.42,17.44v69.43c0,9.56-7.81,17.34-17.42,17.34Z"/>
      <path class="cls-4" d="m382.83,164.89v69.43c0,5.47-4.47,9.94-10.02,9.94s-9.93-4.47-9.93-9.94v-69.43c0-5.57,4.47-10.04,9.93-10.04s10.02,4.47,10.02,10.04Z"/>
      <path class="cls-3" d="m426.32,247.94c-21.87,8.96-39.96-2.6-46.53-18.65-10.58-25.83,8.74-43.89,19.17-48.16,11.52-4.72,31.84-3.97,40.61,17.44,1.69,4.12,1.62,9.16-.94,13.84,2.12,1.88,3.34,4.18,3.99,5.77,3.73,9.12,1.7,22.38-16.3,29.75Z"/>
      <path class="cls-4" d="m422.83,216.2l-12.41,5.08s1.32,1.84,5.1.29c7.27-2.98,16.63-9.42,20.25-.58,1.39,3.4,3.64,13.59-12.26,20.1-18.52,7.58-32-2.66-36.89-14.61-8.67-21.17,7.86-35.54,15.13-38.52,6.4-2.62,23.33-5.24,30.96,13.4,1.75,4.27.09,10.74-9.89,14.83Zm-5.63-9.04s-2.54-5.65-8.45-3.23c-6.21,2.54-3.76,8.23-3.76,8.23l12.22-5Z"/>
      <path class="cls-3" d="m455.53,251.59c-9.85,0-17.87-8.03-17.87-17.89v-36.31c0-9.92,8.02-17.99,17.87-17.99,2.57,0,5.09.56,7.44,1.65,3.46-1.08,7.09-1.65,10.69-1.65,9.53,0,18.28,4.03,24.65,11.36,3.09,3.64,4.56,8.25,4.2,13.06-.36,4.8-2.57,9.17-6.22,12.31-3.21,2.73-7.33,4.23-11.62,4.23-.46,0-.93-.02-1.39-.05-3.62-.28-7.03-1.64-9.77-3.85v17.25c0,9.86-8.06,17.89-17.98,17.89Z"/>
      <path class="cls-4" d="m495.13,203.26c-.21,2.83-1.47,5.35-3.67,7.24-2.09,1.78-4.82,2.62-7.65,2.41-2.73-.21-5.34-1.47-7.12-3.67-.84-.94-1.78-1.36-3.04-1.36-4.19,0-7.54,3.46-7.54,7.66v18.16c0,5.77-4.71,10.5-10.58,10.5s-10.48-4.72-10.48-10.5v-36.31c0-5.88,4.71-10.6,10.48-10.6,2.51,0,4.82.94,6.71,2.41,3.56-1.57,7.54-2.41,11.42-2.41,7.44,0,14.14,3.15,19.07,8.82,1.78,2.1,2.62,4.83,2.41,7.66Z"/>
      <path class="cls-3" d="m524.04,252.95c-19.15,0-28.93-10.14-31.7-19.62l-.06-.2-.07-.29c-1.03-4.49.12-9.54,3.02-13.18.08-.1.16-.2.24-.29-3.21-3.24-5.34-7.72-5.34-14,0-15.84,13.38-27.33,31.81-27.33,13.07,0,21.31,5.83,25.91,10.72l.11.12c3.82,4.24,5.01,9.93,3.18,15.24-.54,1.55-1.3,2.98-2.25,4.25,5.49,3.34,9.68,9.03,9.68,18.84,0,8.91-7.22,25.76-34.53,25.76Z"/>
      <path class="cls-4" d="m551.17,227.19c0,4.09-3.35,18.37-27.14,18.37-20.85,0-24.31-13.33-24.62-14.38-.94-4.09,1.68-9.55,7.12-9.55,8.07,0,3.98,7.45,17.5,7.45,3.35,0,9.64.42,9.64-2.73,0-9.34-36.15-.1-36.15-20.99,0-11.75,10.06-19.94,24.41-19.94,10.48,0,16.97,4.62,20.54,8.4,1.99,2.2,2.62,5.14,1.68,7.87-.94,2.73-3.25,4.72-6.18,5.35l-.21.1c-6.81,0-9.22-5.25-15.82-5.25-1.15,0-6.81.21-6.81,3.46,0,10.91,36.04-2.83,36.04,21.83Z"/>
    </g>
    <g>
      <path class="cls-5" d="m450.32,261.08v20.67h-3.39v-20.67h3.39Z"/>
      <path class="cls-5" d="m466.21,265.89c1.02.54,1.82,1.33,2.39,2.38.58,1.05.86,2.32.86,3.81v9.67h-3.36v-9.16c0-1.47-.37-2.59-1.1-3.38-.73-.78-1.73-1.17-3-1.17s-2.27.39-3.02,1.17c-.74.78-1.11,1.91-1.11,3.38v9.16h-3.39v-16.39h3.39v1.87c.55-.67,1.26-1.2,2.13-1.58.86-.38,1.78-.57,2.75-.57,1.29,0,2.44.27,3.46.8Z"/>
      <path class="cls-5" d="m480.35,268.13h-3.03v13.62h-3.42v-13.62h-1.93v-2.77h1.93v-1.16c0-1.88.5-3.26,1.5-4.12s2.57-1.29,4.71-1.29v2.83c-1.03,0-1.75.19-2.17.58-.42.39-.62,1.06-.62,2.01v1.16h3.03v2.77Z"/>
      <path class="cls-5" d="m482.96,269.11c.68-1.27,1.62-2.26,2.8-2.96,1.18-.7,2.48-1.06,3.91-1.06,1.29,0,2.41.25,3.38.76s1.73,1.14,2.3,1.89v-2.38h3.42v16.39h-3.42v-2.44c-.58.77-1.36,1.42-2.35,1.93-.99.52-2.12.77-3.39.77-1.41,0-2.7-.36-3.87-1.09s-2.1-1.73-2.78-3.03-1.03-2.77-1.03-4.42.34-3.1,1.03-4.37Zm11.69,1.49c-.47-.83-1.08-1.47-1.83-1.9-.75-.44-1.57-.65-2.44-.65s-1.68.21-2.44.64c-.75.43-1.36,1.05-1.83,1.87-.47.82-.7,1.8-.7,2.93s.23,2.12.7,2.97,1.08,1.5,1.84,1.95c.76.45,1.57.67,2.42.67s1.69-.22,2.44-.65,1.36-1.08,1.83-1.92c.47-.84.7-1.83.7-2.96s-.23-2.11-.7-2.94Z"/>
      <path class="cls-5" d="m514.66,265.89c1.02.54,1.82,1.33,2.39,2.38.58,1.05.86,2.32.86,3.81v9.67h-3.36v-9.16c0-1.47-.37-2.59-1.1-3.38-.73-.78-1.73-1.17-3-1.17s-2.27.39-3.02,1.17c-.74.78-1.11,1.91-1.11,3.38v9.16h-3.39v-16.39h3.39v1.87c.55-.67,1.26-1.2,2.13-1.58.86-.38,1.78-.57,2.75-.57,1.29,0,2.44.27,3.46.8Z"/>
      <path class="cls-5" d="m525.89,268.13v9.07c0,.61.14,1.06.43,1.32.29.27.78.4,1.47.4h2.08v2.83h-2.68c-1.53,0-2.7-.36-3.51-1.07-.81-.71-1.22-1.87-1.22-3.48v-9.07h-1.93v-2.77h1.93v-4.07h3.42v4.07h3.98v2.77h-3.98Z"/>
      <path class="cls-5" d="m538.06,265.79c.82-.47,1.8-.7,2.93-.7v3.51h-.86c-1.33,0-2.33.34-3.02,1.01-.68.67-1.03,1.84-1.03,3.51v8.62h-3.39v-16.39h3.39v2.38c.49-.83,1.15-1.48,1.98-1.95Z"/>
      <path class="cls-5" d="m558.57,265.36l-10.05,24.09h-3.51l3.33-7.97-6.45-16.12h3.78l4.61,12.49,4.79-12.49h3.51Z"/>
    </g>
  </g>
  <path class="cls-5" d="m435.61,264.54c-13.13,7.84-26.24,13.11-39.91,17.03-38.65,11.07-77.09,9.55-115.91-.32-44.61-11.33-77.03-8.77-124.97-4.68-1.29.11-2.36.21-3.06.27h0c5.44-1.86,13.13-4.21,22.51-6.18,5.91-1.24,30.1-6.5,65.18-2.72,15.54,1.67,31.33,3.41,46.28,7.65,38.08,10.82,75.8,10.14,113.65-.09,11.77-3.18,23.36-7.05,36.23-10.97Z"/>
</svg>