<?xml version="1.0" encoding="UTF-8"?>
<svg id="Layer_1" data-name="Layer 1" xmlns="http://www.w3.org/2000/svg" viewBox="0 0 691.35 440.27">
  <defs>
    <style>
      .cls-1 {
        fill: #fff;
      }

      .cls-2 {
        fill: #3a0319;
      }

      .cls-3 {
        fill: #6e6d5c;
      }

      .cls-4 {
        fill: #eaffdc;
      }

      .cls-5 {
        fill: #595844;
      }

      .cls-6 {
        fill: #b2de9a;
      }
    </style>
  </defs>
  <g>
    <path class="cls-4" d="m173.99,252.78c-9.73,0-17.65-7.92-17.65-17.66v-36.89h-3.88c-9.73,0-17.64-7.92-17.64-17.66s7.92-17.66,17.64-17.66h42.96c9.78,0,17.74,7.92,17.74,17.66s-7.96,17.66-17.74,17.66h-3.78v36.89c0,9.74-7.92,17.66-17.64,17.66Z"/>
    <path class="cls-6" d="m184.32,235.12c0,5.71-4.62,10.34-10.32,10.34s-10.32-4.63-10.32-10.34v-44.21h-11.21c-5.7,0-10.32-4.63-10.32-10.34s4.62-10.34,10.32-10.34h42.96c5.7,0,10.42,4.63,10.42,10.34s-4.72,10.34-10.42,10.34h-11.11v44.21Z"/>
    <path class="cls-4" d="m221.97,252.98c-18.84,0-34.16-15.34-34.16-34.21s15.32-34.3,34.16-34.3c23.63,0,34.26,20.06,34.26,34.3,0,18.86-15.37,34.21-34.26,34.21Zm-.24-35.29"/>
    <path class="cls-6" d="m248.9,218.77c0,14.77-12.09,26.88-26.93,26.88s-26.84-12.11-26.84-26.88,12.09-26.98,26.84-26.98c19.56,0,26.93,16.54,26.93,26.98Zm-19.76,0c0-5.02-2.16-7.19-7.18-7.19-3.93,0-7.08,3.25-7.08,7.19s3.15,7.09,7.08,7.09,7.18-3.15,7.18-7.09Z"/>
    <path class="cls-4" d="m271.28,199.64c-.69.19-1.91.63-2.81,1.05l-1.61.77h-1.82c-1.75,0-3.36-.54-4.67-1.5-.2.01-.4.02-.61.02-5.98,0-10.03-5.5-11.12-15.1-1.41-12.4,4.19-18.22,9.89-19.53.87-.2,1.76-.3,2.64-.3,11.28,0,17,15.45,19.41,24.66l3.77,14.47-13.07-4.55Z"/>
    <path class="cls-2" d="m265.05,194.14c-.5,0-.62-.43-.68-.64-.03-.1-.08-.35-.15-.76-.32-1.75-1.15-6.3-2.33-9.76.05,1.1.13,2.54.22,4.23l.05.96c.03.58.11,1.94-.58,3.12-.22.38-.5.7-.82.96-.32.34-.71.42-.97.42-2.1,0-3.45-5.14-3.85-8.6-.73-6.46.86-10.79,4.25-11.57.33-.08.66-.11,1-.11,7.23,0,12.12,18.4,12.32,19.18l.31,1.2-1.17-.41c-.25-.09-.57-.13-.95-.13-2.48,0-6.32,1.83-6.36,1.85l-.14.07h-.15Z"/>
    <path class="cls-4" d="m271.33,198.95c-.75.18-2.12.66-3.13,1.14l-1.49.71h-1.66c-1.41,0-3.07-.43-4.47-1.51-.27.03-.54.04-.81.04-5.69,0-9.4-5.15-10.47-14.51-1.36-11.97,3.96-17.56,9.38-18.81.82-.19,1.66-.28,2.49-.28,10.84,0,16.41,15.14,18.77,24.16l3.47,13.27-12.08-4.2Z"/>
    <path class="cls-4" d="m291.76,252.88c-2.46,0-4.85-.52-7.02-1.5-3.26,1-6.61,1.5-9.99,1.5-18.84,0-34.16-15.34-34.16-34.21,0-6.45,1.53-12.34,4.56-17.5,5.01-8.54,15.11-17.16,26.37-17.16,1.62,0,3.25.18,4.83.53.2.04.4.09.59.14l.41-18.06c-.11-4.58,1.56-8.9,4.73-12.2,3.05-3.18,7.2-5,11.37-5,.56,0,1.13.03,1.68.1,8.39.99,14.54,8.89,13.88,17.72v68.46c0,9.47-7.74,17.17-17.25,17.17Z"/>
    <g>
      <path class="cls-5" d="m272.88,192.07s-4.66-22.63-12.82-21.22c-8.16,1.41-4.33,23.64-1.14,20.69.2-.15.51-.41.79-.83.81-1.22.72-3.03.72-3.03-.3-6.07-.44-9.11,0-9.26.36-.12,1.24,1.24,1.93,2.76,2.62,5.83,1.7,12.59,1.71,12.59,0,0,0,0,0,0,.17-.08.4-.18.68-.3.36-.15.82-.35,1.42-.55.15-.05.65-.22,1.32-.38,1.45-.36,2.61-.45,2.95-.47.66-.05,1.49-.06,2.44.01Z"/>
      <path class="cls-5" d="m263.92,194.52h0c.34-3.45.21-8.26-2.11-13.08-.32-.67-.67-1.3-1.03-1.89-.06,1.42.09,4.58.26,8.11,0,.08.09,2.02-.82,3.39-.26.39-.58.72-.94.99-.45.42-1.06.51-1.63.21-2.2-1.18-3.72-9.31-2.8-14.99.67-4.12,2.43-6.55,5.11-7.01,8.65-1.49,13.32,20.75,13.52,21.7l.16.8-.81-.06c-.78-.06-1.57-.06-2.35-.01-.52.03-1.57.14-2.84.46-.64.16-1.12.32-1.27.37-.58.2-1.03.39-1.37.54-.27.12-.5.22-.67.3l-.41.19Zm-3.43-16.72c.41,0,1.2.4,2.43,3.13,2.03,4.51,2.01,9.47,1.85,11.87.33-.14.73-.3,1.21-.46.16-.05.67-.23,1.37-.4,1.36-.34,2.5-.45,3.05-.49.57-.04,1.14-.05,1.72-.03-1.47-6.58-5.98-20.99-11.95-19.97-2.67.46-3.71,3.52-4.11,6-.93,5.73.72,12.94,2.17,13.72.07.04.13.07.28-.08.31-.23.52-.45.7-.72.68-1.04.62-2.64.62-2.66-.43-8.85-.4-9.59.42-9.86.06-.02.14-.05.25-.05Z"/>
    </g>
    <path class="cls-6" d="m301.69,166.94v68.77c0,5.42-4.42,9.85-9.93,9.85-2.26,0-4.52-.79-6.19-2.26-3.44,1.48-7.08,2.26-10.81,2.26-14.75,0-26.84-12.11-26.84-26.88,0-5.47,1.36-10.05,3.55-13.8,4.26-7.26,13.63-15.34,23.28-13.18,4.33.97,7.4,3.7,9.23,5.78.23-10.29.46-20.58.69-30.87-.23-5.95,4.84-10.35,9.6-9.79,4.24.5,7.93,4.91,7.42,10.13Zm-19.76,51.73c0-3.94-3.24-7.19-7.18-7.19s-7.08,3.25-7.08,7.19,3.15,7.09,7.08,7.09,7.18-3.15,7.18-7.09Z"/>
    <g>
      <path class="cls-5" d="m289.45,172.21c1.02-.43,3.07-1.25,4.63-.32.71.42,1.06,1.06,1.2,1.33,1.76,3.3-1.16,10-1.3,10.31-1.6,3.58-4.41,8.88-9.42,14.83-.81-1.15-2.23-2.88-4.47-4.36-1.84-1.22-3.58-1.85-4.82-2.19.03-.29.08-.75.17-1.3,1.62-10.32,9.74-16.51,14.01-18.31Z"/>
      <path class="cls-1" d="m276.51,192.24c1.02-3.49,3.83-11.46,9.98-14.12.86-.37,2.73-1.16,3.9-.37,1.81,1.24,1.02,5.41.02,7.78-2.18,5.15-3.46,7.32-7.25,11.09l-.85-.85c1.69-1.63,3.94-4.24,5.51-8.11,1.15-2.84,2.45-7.66,1.16-8.39-1.56-.88-6.13,4.6-6.68,5.26-2.53,3.02-4.01,5.98-4.87,8.04-.31-.11-.62-.22-.92-.33Z"/>
    </g>
    <path class="cls-1" d="m269.6,191.54s-.04,0-.35.04c-.28.03-.45.06-.47.06-.49.05-1.97-6.4-3.3-9.81-1.3-3.34-3.86-7.36-5.35-6.99-1.39.35-1.68,4.47-1.9,7.56-.23,3.29.08,5.24-.13,5.26-.27.03-1.04-3.24-1.06-6.72,0-.7.02-2.02.41-3.62.35-1.43.7-2.78,1.84-3.5.54-.34,1.16-.48,1.62-.47.49.01,2.52.24,6.12,8.73,2.78,6.56,2.82,9.36,2.56,9.46Z"/>
    <path class="cls-4" d="m346.81,252.88c-2.46,0-4.85-.52-7.02-1.5-3.26,1-6.61,1.5-9.99,1.5-18.84,0-34.16-15.34-34.16-34.21,0-23.58,19.84-34.23,34.01-34.3v-17.43c0-9.52,7.7-17.27,17.15-17.27s17.25,7.75,17.25,17.27v68.77c0,9.47-7.74,17.17-17.25,17.17Z"/>
    <path class="cls-6" d="m356.74,166.94v68.77c0,5.42-4.42,9.85-9.93,9.85-2.26,0-4.52-.79-6.19-2.26-3.44,1.48-7.08,2.26-10.81,2.26-14.75,0-26.84-12.11-26.84-26.88,0-18.61,15.73-26.98,26.84-26.98,2.46,0,4.92.39,7.18.98v-25.74c0-5.51,4.42-9.95,9.83-9.95s9.93,4.43,9.93,9.95Zm-19.76,51.73c0-3.94-3.24-7.19-7.18-7.19s-7.08,3.25-7.08,7.19,3.15,7.09,7.08,7.09,7.18-3.15,7.18-7.09Z"/>
    <path class="cls-4" d="m372.55,252.88c-9.46,0-17.15-7.7-17.15-17.17v-68.77c0-9.52,7.7-17.27,17.15-17.27s17.25,7.75,17.25,17.27v68.77c0,9.47-7.74,17.17-17.25,17.17Z"/>
    <path class="cls-6" d="m382.48,166.94v68.77c0,5.42-4.42,9.85-9.93,9.85s-9.83-4.43-9.83-9.85v-68.77c0-5.51,4.42-9.95,9.83-9.95s9.93,4.43,9.93,9.95Z"/>
    <path class="cls-4" d="m425.55,249.2c-21.66,8.87-39.58-2.58-46.09-18.47-10.48-25.58,8.65-43.47,18.99-47.7,11.41-4.67,31.54-3.93,40.22,17.28,1.67,4.09,1.61,9.08-.93,13.71,2.1,1.86,3.31,4.14,3.95,5.72,3.7,9.03,1.69,22.16-16.14,29.46Z"/>
    <path class="cls-6" d="m422.09,217.76l-12.29,5.03s1.31,1.82,5.05.29c7.2-2.95,16.47-9.33,20.06-.58,1.38,3.37,3.61,13.46-12.14,19.91-18.34,7.51-31.69-2.63-36.54-14.47-8.59-20.97,7.79-35.2,14.99-38.15,6.34-2.6,23.1-5.19,30.67,13.28,1.73,4.23.09,10.63-9.8,14.68Zm-5.57-8.95s-2.52-5.6-8.37-3.2c-6.15,2.52-3.73,8.15-3.73,8.15l12.1-4.96Z"/>
    <path class="cls-4" d="m454.48,252.81c-9.76,0-17.7-7.95-17.7-17.72v-35.97c0-9.83,7.94-17.82,17.7-17.82,2.55,0,5.04.56,7.37,1.63,3.42-1.07,7.02-1.63,10.58-1.63,9.44,0,18.11,4,24.41,11.25,3.06,3.6,4.51,8.17,4.16,12.93-.35,4.75-2.54,9.08-6.16,12.19-3.18,2.71-7.26,4.19-11.51,4.19-.46,0-.92-.02-1.38-.05-3.58-.28-6.96-1.63-9.67-3.81v17.09c0,9.77-7.99,17.72-17.8,17.72Z"/>
    <path class="cls-6" d="m493.7,204.95c-.21,2.81-1.45,5.3-3.63,7.17-2.07,1.77-4.77,2.6-7.57,2.39-2.7-.21-5.29-1.46-7.06-3.64-.83-.94-1.76-1.35-3.01-1.35-4.15,0-7.47,3.43-7.47,7.59v17.98c0,5.72-4.67,10.39-10.48,10.39s-10.38-4.68-10.38-10.39v-35.97c0-5.82,4.67-10.5,10.38-10.5,2.49,0,4.77.94,6.64,2.39,3.53-1.56,7.47-2.39,11.31-2.39,7.37,0,14.01,3.12,18.89,8.73,1.76,2.08,2.59,4.78,2.39,7.59Z"/>
    <path class="cls-4" d="m522.33,254.16c-18.96,0-28.65-10.04-31.39-19.43l-.06-.2-.07-.28c-1.02-4.45.12-9.45,2.99-13.05.08-.1.16-.2.24-.29-3.18-3.21-5.28-7.65-5.28-13.87,0-15.69,13.25-27.07,31.5-27.07,12.94,0,21.1,5.77,25.67,10.61l.11.12c3.79,4.19,4.96,9.84,3.15,15.1-.53,1.54-1.29,2.95-2.23,4.21,5.44,3.31,9.59,8.94,9.59,18.66,0,8.82-7.15,25.51-34.2,25.51Z"/>
    <path class="cls-6" d="m549.21,228.65c0,4.05-3.32,18.19-26.88,18.19-20.65,0-24.07-13.2-24.39-14.24-.93-4.05,1.66-9.46,7.06-9.46,7.99,0,3.94,7.38,17.33,7.38,3.32,0,9.55.42,9.55-2.7,0-9.25-35.8-.1-35.8-20.79,0-11.64,9.96-19.75,24.18-19.75,10.38,0,16.81,4.57,20.34,8.32,1.97,2.18,2.59,5.09,1.66,7.8-.93,2.7-3.22,4.68-6.12,5.3l-.21.1c-6.75,0-9.13-5.2-15.67-5.2-1.14,0-6.75.21-6.75,3.43,0,10.81,35.7-2.81,35.7,21.62Z"/>
  </g>
  <g>
    <g>
      <path class="cls-5" d="m302.26,261.76v21.18h-3.48v-21.18h3.48Z"/>
      <path class="cls-5" d="m318.55,266.7c1.05.55,1.86,1.36,2.45,2.44.59,1.08.88,2.38.88,3.9v9.9h-3.44v-9.39c0-1.5-.38-2.66-1.13-3.46-.75-.8-1.78-1.2-3.08-1.2s-2.33.4-3.09,1.2c-.76.8-1.14,1.96-1.14,3.46v9.39h-3.48v-16.79h3.48v1.92c.57-.69,1.29-1.23,2.18-1.61.88-.39,1.82-.58,2.82-.58,1.32,0,2.5.27,3.55.82Z"/>
      <path class="cls-5" d="m333.04,268.98h-3.11v13.96h-3.5v-13.96h-1.98v-2.83h1.98v-1.19c0-1.93.51-3.34,1.54-4.22s2.64-1.33,4.83-1.33v2.89c-1.06,0-1.8.2-2.22.59-.43.4-.64,1.08-.64,2.06v1.19h3.11v2.83Z"/>
      <path class="cls-5" d="m335.7,269.99c.7-1.3,1.65-2.31,2.86-3.03,1.21-.72,2.54-1.08,4.01-1.08,1.32,0,2.47.26,3.46.78s1.77,1.16,2.36,1.94v-2.44h3.5v16.79h-3.5v-2.5c-.59.79-1.39,1.45-2.41,1.98-1.02.53-2.17.79-3.47.79-1.44,0-2.76-.37-3.96-1.11s-2.15-1.78-2.85-3.11-1.05-2.84-1.05-4.53.35-3.18,1.05-4.48Zm11.98,1.52c-.48-.85-1.1-1.5-1.87-1.95-.77-.45-1.61-.67-2.5-.67s-1.73.22-2.5.65c-.77.44-1.4,1.08-1.87,1.92-.48.84-.72,1.84-.72,3s.24,2.17.72,3.05,1.11,1.54,1.89,2c.78.46,1.61.69,2.48.69s1.73-.22,2.5-.67,1.4-1.1,1.87-1.97c.48-.86.72-1.87.72-3.03s-.24-2.16-.72-3.02Z"/>
      <path class="cls-5" d="m368.19,266.7c1.05.55,1.86,1.36,2.45,2.44.59,1.08.88,2.38.88,3.9v9.9h-3.44v-9.39c0-1.5-.38-2.66-1.13-3.46-.75-.8-1.78-1.2-3.08-1.2s-2.33.4-3.09,1.2c-.76.8-1.14,1.96-1.14,3.46v9.39h-3.48v-16.79h3.48v1.92c.57-.69,1.29-1.23,2.18-1.61.88-.39,1.82-.58,2.82-.58,1.32,0,2.5.27,3.55.82Z"/>
      <path class="cls-5" d="m379.69,268.98v9.29c0,.63.15,1.08.44,1.36.29.27.8.41,1.51.41h2.13v2.89h-2.74c-1.56,0-2.76-.37-3.6-1.1-.83-.73-1.25-1.92-1.25-3.57v-9.29h-1.98v-2.83h1.98v-4.17h3.5v4.17h4.08v2.83h-4.08Z"/>
      <path class="cls-5" d="m392.17,266.59c.84-.48,1.84-.72,3-.72v3.6h-.88c-1.36,0-2.39.35-3.09,1.04-.7.69-1.05,1.89-1.05,3.6v8.84h-3.48v-16.79h3.48v2.44c.51-.85,1.18-1.52,2.03-2Z"/>
      <path class="cls-5" d="m413.18,266.15l-10.3,24.68h-3.6l3.41-8.17-6.61-16.52h3.87l4.72,12.8,4.91-12.8h3.6Z"/>
    </g>
    <g>
      <path class="cls-3" d="m162.87,275.73c-.18,0-.11.1-.14.11.3-.02.13-.14.14-.11Z"/>
      <polygon class="cls-3" points="165.79 275.49 165.74 275.54 166.17 275.43 165.79 275.49"/>
      <path class="cls-3" d="m168.52,275.5c-.26-.18-.99.03-1.48-.03l-.08-.04-.22.14c.59-.02,1.36-.12,1.78-.07Z"/>
      <path class="cls-3" d="m169.98,275.88c-.09-.07.32-.06-.34-.02.03,0,.04.01.06.02.06,0,.14,0,.28,0Z"/>
      <path class="cls-3" d="m169.7,275.88c-.29,0,.19.06,0,0h0Z"/>
      <path class="cls-3" d="m171.03,275.84l-.38.06c.08.04.42.05.29.08.39-.03.31-.07.09-.14Z"/>
      <path class="cls-3" d="m171.39,275.71l-.2.03s.09.02.2-.03Z"/>
      <path class="cls-3" d="m170.78,275.79l.42-.06c-.05-.03-.06-.09-.19.02.03-.05-.05,0-.23.04Z"/>
      <path class="cls-3" d="m170.54,275.76c-.21-.04-.49-.06-.11-.12-.73.02-.62.15.11.12Z"/>
      <path class="cls-3" d="m168.66,275.31l-.28-.05-.25.06c.12-.03.55.05.53,0Z"/>
      <path class="cls-3" d="m173.4,275.93s-.13-.1-.16-.15l-.28.04c.14.03.42.05.44.11Z"/>
      <path class="cls-3" d="m173.24,275.78l.42-.07c-.37,0-.44.02-.42.07Z"/>
      <polygon class="cls-3" points="171.46 275.51 170.77 275.65 171.59 275.51 171.46 275.51"/>
      <polygon class="cls-3" points="175 275.94 174.76 276.02 175.18 275.89 175 275.94"/>
      <path class="cls-3" d="m176.06,275.92c-.18.07.24.12.06.17.29-.01.53-.08.76-.13-.24.03-.49.02-.81-.04Z"/>
      <path class="cls-3" d="m177.24,275.87c-.12.02-.24.05-.37.08.13-.02.25-.04.37-.08Z"/>
      <path class="cls-3" d="m174.37,275.73s.09.08.33.11l-.16-.11c-.05,0-.11,0-.16,0Z"/>
      <path class="cls-3" d="m174.53,275.73h0c.18,0,.3,0,.36,0-.05,0-.15,0-.36,0Z"/>
      <path class="cls-3" d="m174.33,275.73s.03,0,.04,0c-.02-.01-.03-.01-.04,0Z"/>
      <path class="cls-3" d="m172.56,275.61c.25-.06.76-.12.26-.21-.18.07.11.12-.26.21Z"/>
      <path class="cls-3" d="m174.13,275.6l-.45-.02s.09.07-.03.1l.48-.07Z"/>
      <polygon class="cls-3" points="174.34 275.57 174.13 275.6 174.29 275.61 174.34 275.57"/>
      <path class="cls-3" d="m176.48,275.77c.19-.05.4-.05.64-.06-.25-.02-.52-.03-.77-.03-.04.03-.15.09.13.09Z"/>
      <path class="cls-3" d="m175.53,275.74s.03,0,.04,0c-.03,0-.05-.01-.04,0Z"/>
      <path class="cls-3" d="m179.46,275.72s-.02-.01-.04-.02c0,0,0,.01,0,.02h.05Z"/>
      <path class="cls-3" d="m176.31,275.66c-.19-.02-.31,0-.41.04.14-.01.29-.02.46-.02.02-.02.02-.03-.04-.02Z"/>
      <path class="cls-3" d="m177.89,275.82c-.1-.02-.21-.04-.33-.06.1.03.3.09.33.06Z"/>
      <path class="cls-3" d="m175.64,275.77s-.02,0-.03,0c.06.02.05.01.03,0Z"/>
      <path class="cls-3" d="m175.64,275.77c.1-.02.18-.04.25-.07-.12,0-.22.02-.32.04.02,0,.05.02.06.03Z"/>
      <path class="cls-3" d="m180.17,275.03c-.03.1-.54.19-.97.08-.43.07-.15.4.23.58.01-.04.01-.08.45-.14-.15-.05-.98-.13-.6-.22.58-.05.48.03.76.09-.24-.12.74-.18.61-.36l-.51.06s.18-.07.03-.1Z"/>
      <path class="cls-3" d="m178.58,275.69h-.18c.21.03.35.07.63.15.3-.05.36-.09.38-.12h-.89s.06-.03.06-.03Z"/>
      <path class="cls-3" d="m177.59,275.7c.14-.11.58-.15.31-.27-.53,0-.37.09-.69.14.86-.03-.25.06.37.12-.17.02-.32.02-.46.03.15.01.3.03.44.05,0,0-.01,0-.02,0h0s0,0,0,0c-.04-.01-.05-.02,0-.01,0,0,.01,0,.02,0,0-.01.02-.03.04-.04.25.02.04.03-.04.04,0,0,0,.01-.01.02,0,0,0,0,0,0l.86-.06c-.18-.01-.41-.01-.81,0Z"/>
      <path class="cls-3" d="m173.28,275.16s.03.02.03.02c.06-.01.08-.02-.03-.02Z"/>
      <path class="cls-3" d="m173.63,275.22c-.06.02-.11.06-.32.05-.18-.03,0-.05,0-.09-.12.03-.43.08-.04.13h.06c.35.02.79.16.73.17-.1-.1-.19-.17-.42-.26Z"/>
      <path class="cls-3" d="m175.64,275.43l.71-.05-.36-.09.02.06c-.41-.02-.32.05-.37.09Z"/>
      <polygon class="cls-3" points="179.54 275.77 179.44 275.88 179.86 275.72 179.54 275.77"/>
      <polygon class="cls-3" points="180.47 275.76 180.43 275.86 180.68 275.8 180.47 275.76"/>
      <path class="cls-3" d="m232.9,274.53l.21-.03c-.1,0-.16.02-.21.03Z"/>
      <path class="cls-3" d="m231.38,274.52l-.04.05c.07-.03.1-.05.04-.05Z"/>
      <path class="cls-3" d="m203.29,275.75c.31.09.65.24.61.12l-.09-.11c-.21.02-.38,0-.52-.02Z"/>
      <path class="cls-3" d="m218.92,275.1s-.06-.02-.09-.03c-.07.04-.14.07-.21.1.09-.02.19-.05.3-.07Z"/>
      <path class="cls-3" d="m219.13,274.65l.4.07c-.09-.02-.22-.05-.4-.07Z"/>
      <path class="cls-3" d="m241.21,274.41l.25-.11c-.38,0-.21.06-.25.11Z"/>
      <path class="cls-3" d="m189.98,275.72c.26.04.47.06.66.07-.32-.06-.57-.16-.66-.07Z"/>
      <path class="cls-3" d="m232.3,275.68c.13-.02.18-.04.18-.07-.13.02-.21.04-.18.07Z"/>
      <path class="cls-3" d="m191.41,275.78s-.09-.02-.14-.03c-.19.02-.39.03-.62.03.23.05.5.07.76,0Z"/>
      <path class="cls-3" d="m271.33,274.5s.05,0,.07.01c0-.01-.02-.02-.07-.01Z"/>
      <path class="cls-3" d="m280.11,275.6c-.09,0-.23,0-.36,0,.06,0,.17,0,.36,0Z"/>
      <path class="cls-3" d="m184.21,275.8c-.2,0-.03.01,0,0h0Z"/>
      <path class="cls-3" d="m183.25,275.38s.07-.03.08-.05c-.02.03-.04.04-.08.05Z"/>
      <path class="cls-3" d="m193.37,275.11s.01,0,.02,0c-.06-.02-.05-.02-.02,0Z"/>
      <path class="cls-3" d="m183.91,275.75c.07.01.16.02.25.03-.04,0-.12-.02-.25-.03Z"/>
      <path class="cls-3" d="m183.95,275.81c-.07,0-.12,0-.17-.01-.02.02,0,.03.17.01Z"/>
      <path class="cls-3" d="m184.48,275.8c-.11,0-.22,0-.32-.01.04,0,.05.01.04.02.06,0,.14,0,.27,0Z"/>
      <path class="cls-3" d="m255.19,274.79s.03,0,.04.01c.2-.05.11-.04-.04-.01Z"/>
      <path class="cls-3" d="m208.42,274.62s-.01,0-.02,0c0,0,.02,0,.03,0h0Z"/>
      <path class="cls-3" d="m209.12,274.54c-.3.14-.47.12-.7.09l.23.31.47-.4Z"/>
      <path class="cls-3" d="m236.54,274.5l-.5-.1c.6-.16,1.03-.11.57-.24-.07.34-1.93.03-2,.37l-.33-.07c.09,0,.11-.02.2-.01-.64-.16-.47.25-1.29.2-.29-.03-.49-.08-.29-.12l-.64.08c-.19,0-.14-.07.04-.06l-.97.03h0c-.14.04-.45.13-.61.16-.25-.05.12-.04.06-.08l-.54.08c-.22-.09.23-.17.6-.16-.5-.34-.45.09-1.53-.11l.51-.04c-.33-.19-.72-.12-1.3-.24.14.06,1.15.3.57.39-.16-.03-.38-.04-.7.03,0-.12-.31-.09-.7-.08l.03-.16c-.42.05-.38.13-.63.2-.46-.02-.56-.14-.67-.24-.74-.03.51.2-.37.23-.62-.06-1.05,0-1.79.1-.43-.06.08-.1-.08-.14l-.38.13c-.09,0-.06-.04-.05-.06-.32.05-.03.16-.53.2-.14.18-1.04-.26-1.67-.06-.15-.05.07-.1.03-.16-.86.13-.74.1-1.45.27l-.6-.1c.44.12-.12.26-.62.38.16.06.29.11.38.13l-.79.09c-.1-.03-.02-.08.11-.15-.05.01-.11.03-.15.04-.28-.06-.14-.15.07-.24.1.03.19.07.29.1.2-.1.38-.2.34-.3-.05.02-.15.03-.26.04.05-.03.08-.05.06-.07-.03-.02-.11.02-.24.06l-.18-.18-.04.07-1.04-.11c-.74.18-1.39.44-2.56.52.29-.13.06-.21.08-.37.32.16.91-.07,1.52-.04-.32-.02-.25-.09-.17-.12l-1.09.15c.02-.13-.23-.09-.52-.15.21.25-.81.17-1.25.24-.03-.08.08-.17.62-.15-.6-.19-.77.29-1.35.13.13,0,.2.01.25-.03-.31.07-1.06.02-.88-.06h.13c-.88-.03-2.66,0-2.79.21,0-.03.11-.26.17-.3l-1.56.72c.14-.18-.39-.62.34-.72-.21-.03-.47-.06-.91,0,.14.03.35.26.16.28-.53-.2-.37-.11-1.03-.28.21.04-.02.33-.36.32.05-.04-.03-.28.1-.31l-.84.28c.21-.05.04-.24-.15-.32.09.05-.72,0-.95.02l.36.07c-.95-.04-.93.4-1.87.38.11-.06.28-.36-.2-.39-.22.14-.97.69-1.8.8l-.16-.08-.64.09c.4-.22,1.51-.67,2.12-.85-.35-.07-.1-.1-.63-.09-.19-.08.29-.12.45-.12l-1.23-.05c.05.17-.94.17-.9.31l1.34-.17c.05.17-.78.48-1.65.45-.22-.07.17-.3.15-.36-.11.06-.83.11-.91.07l.37-.09c-.49-.06-.79.22-1.38.06-.2-.01-.6-.22-.64-.12.33.19.39.79.17.93-.07-.01-1.06-.18-1.29-.28-.33-.15.5-.36.22-.49-.01.05-.2.1-.27.12-.21-.04.09-.14-.37-.12-.08.17-.94-.01-.22.14-.45.05-.48-.04-1.01-.03.17.11-.48.37-.93.42.03-.04-.07-.1-.12-.13-.92-.02-1.42-.09-2.28-.09-.08-.04-.5-.09-.32-.16-.12.03-.24.09-.5.09-.51-.15.59-.02.2-.2-.03.1-.69.14-1.07.2.12.15.87.03,1.25-.03,0,.21-.66.43-1.56.53-.72.05-.31-.14-.43-.11-1.34-.04-1.15.37-2.26.22-.44-.13-.02-.27-.12-.36.58-.05.9.09,1.29.08l-.49-.06c.19-.04.57-.08.79-.04-.37-.12-2.27-.02-3.31-.13-.18.04-.5.09-.35.15l.33-.02c.3.11-.62.15-.2.2-.44.08-.93.2-1.55.13l-.12-.15s.41.09.58.04c-.26.07-.95-.21-1.23,0l.43.11c-.44.08-.99.24-1.54.19.25.15.13-.02.52.16-.34-.22,1.41,0,.86-.22.4.21.69.09,1.22.26-.02-.05-.19-.1.28-.07.02-.01.07-.03.1-.04.01,0,.02,0,.03,0,0,0-.02,0-.03,0,.02,0,.02,0,0,0-.11-.02-.2-.05-.23-.08.23-.12.96-.11,1.21-.17.27.02-.11.06.03.11l.37-.09c.04.11.73.19.08.25h.58c.34.07.81.09,1.1.05.27.02.69-.12.45-.04l.91-.07v.03c.91.01,1.86-.19,2.88.02.3-.03.61-.06,1.12-.03l.1.1c.39-.03,1.17.1,1.33,0,.42.26,1.88.06,2.57.1l.03-.13c.47,0,.92-.03,1.5-.08l-.04-.11c.5-.09,1.29.08,2.09.07-.05.04-.26.03-.4,0,.95.25,2-.18,2.87,0,.21-.04.37-.03.52,0-.02,0-.04,0-.05,0,.02,0,.05,0,.09,0,.09.02.19.04.3.06-.09-.03-.18-.05-.25-.06.17,0,.42-.02.66-.04l.1.12s.04,0,.06,0c.24.04.19-.06.07-.15.12-.02.24-.04.33-.07.2.19.65-.07.91.14.17-.1,1.24-.08,1.37-.29,0,.03.08.04-.05.04.27.02.55.05.8-.01l.12.15.6-.21c.36.09.52.15.15.27.87-.18.71-.07,1.45-.25l-.04.1c.27,0,.69-.14.85-.05.59.19,2.94.03,4.46.2-.3-.29.71.13.77-.1.09.07.3.11.05.17.78-.07,1.17.11,1.71-.08.09.07-.17.1-.09.14.06-.01.25-.06.33-.02.08.04-.11.06-.24.09.79-.01.87-.22.93-.42.4.09.6.08.89-.05.14.07.37.13-.12.16.28,0,1.7.1,1.72-.06.09.04.39.01.46,0,.62,0,.68.02,1.29,0l-.17-.03c.24-.19.51-.04,1-.07v.02c1.12.14.47-.07,1.59.09l-.06-.12c.1-.26.99.15,1.64.05l-.23-.07c.35-.09.99.35,1.34.38.08.02-.12.04-.23.05.93.15.12-.16.81-.19.13.08-.16.22.3.23.23.07,1.35-.27,1.99-.11-.14-.07-.28-.13.04-.18.49-.02,1.33.25,1.78.04.06.02.09.03.09.05.38-.05,1.23-.09,1.45-.2.35.41,2.34-.2,2.34.18l1.16-.02-.03.04c.74.03,1-.07,1.26-.16.17.03.05.06.03.08,1.08.08,1.19.06,2.1-.13l.09.12c.25-.07,1.57.19,2.63.05-.01.01-.03.04-.12.06,1.2-.15,2.86.34,3.3-.11l.79-.11c-1.02-.03.15-.2-.27-.27.4-.03,1.04.14.54.16l-.08-.02c-.18.24,1.27.08,1.24.24,2.01-.01,3.97.12,5.85.13l-.22-.18h.66c.17.05.23.15-.24.15.25.1.79-.09.8-.13.92.07-.36.21-.08.22h.38s-.09-.04-.09-.04c.31-.07.34-.15.9-.14.36.04.18.11.32.12,0,.01.05.02.21,0l.83.02-.33-.14c.37-.07.78,0,.4-.16.56.25,3.08.09,3.43.17.51-.11,1.02-.1,1.65-.09-.16-.03-.25-.19.29-.17-.2.33.99.15,1.43.39-.39-.16,1.54-.04.93-.27.45.03.03.13.37.2,1.08-.13,2.37.08,3.7.04.02-.04-.2-.11.08-.18l.7.22c.26-.02.24-.25.72-.1-.07-.04-.17-.09,0-.11,2.6.21,5.32-.18,7.96.23-.36-.09-.12-.09.15-.1-.18-.02,0-.11-.03-.17l1.11.17c.2-.17,1.19-.01,1.3-.17l-.35.03c.47-.19-.65-.41-.58-.65-.52.21-1.38-.31-2.23-.01-.19-.05.16-.08.06-.13-.22.1-.48.12-.96.08l.05-.03c-1.36.02-1.95-.08-3.48-.14l.11.12c-.33-.02-.4-.05-.55-.08-.38.18.93.01.58.21-.44-.24-2.32,0-2.62-.28-.51,0,.15.14-.36.14l-.13-.07-.13.1c-.33-.02-.5-.11-.51-.17.08,0,.23-.02.32-.02-.43-.09-1.21.03-1.36,0l.49.05c-1.38.07-3.07-.03-4.41.12l.1.06c-1.02.1-.82-.06-1.94-.01h.04c-.22.04-.52.07-.83.06.28-.07-.53-.13-.16-.2-1.11.11-.55.09-1.28.29l-.17-.09c-.25.08-.27.13-.83.15.46-.08-.36-.14.16-.25-1.17-.2-1.74.2-2.28-.09-.54.26,1.02.14.71.2.25.08-.45.19-.81.17-.38,0-.64-.33-1.58-.32.09,0,.1-.02.19-.02-.35-.07-.69.09-1.12-.02-.24.16-.56,0-.63.19l.87-.05c-.49.05-.95.28-1.76.17.06-.04.3-.09.47-.12-.24-.06-.46.04-.7-.02.07-.2,1.05-.04,1.58-.19-.25-.08-.99.14-.73-.07-.38.27-.93-.03-1.57.17l.04-.12c-.1.02-.31.07-.5.07l.34-.15c-.52.13-1-.11-1.49-.04,1.04,0,.23.14.67.23-1.28.16-.74-.31-2.17-.25.19-.02.73.07.43.13-.27-.02-.63-.07-.8-.13-.95.02.15.12-.26.2-.32-.14-.47.06-.88.1v-.12c-1.09-.08-.29.25-1.27.16l.41-.17-.51.04.1-.14c-.55.1-.73.08-1.27.04.13.08-.07.22-.55.22-.33-.07.18-.11-.5-.1.15-.08.32-.17.62-.06.03-.04.15-.08.18-.11-.35-.08-.89-.02-1.13-.02.09,0,.21.01.27.03l-.99.17c-.16-.05-.03-.08.09-.12-.2.01-.34.07-.63.08.08-.1.06-.2.47-.25l-.94.11c-.06-.04-.48-.12-.36-.15-.52-.06-1.28.19-1.97.11-.04.02-.11.04-.25.05-.65-.02-1.22-.14-1.99,0l-.44-.18c-.6.04.59.22-.41.29-.71.06-.27-.15-.51-.2-.35.09-.97.27-1.62.13.22-.03.39,0,.59-.02Zm-7.43.08c.14-.03.43-.1.54-.03-.16.14-.29.07-.54.03Zm-11.29.29c.11-.04.27-.02.46.03-.14,0-.29,0-.46-.03Zm-31.46.84s.01,0,.02,0c.32.05.21.03-.02,0Zm-.67-.05c-.07.02-.06.03-.03.05.05-.03.2-.03.37-.02-.05-.03-.13-.05-.33-.03Zm71.6-.05l-.13-.03c.29-.03.21,0,.13.03Z"/>
      <path class="cls-3" d="m219.1,274.7s.05.04.06.07c.06-.02.06-.04-.06-.07Z"/>
      <path class="cls-3" d="m241.16,274.43s.02,0,.02,0c.01,0,.02-.01.02-.02l-.05.02Z"/>
      <path class="cls-3" d="m196.03,274.63c.14.02.21.04.26.06,0-.03-.05-.05-.26-.06Z"/>
      <path class="cls-3" d="m182.17,275.86l.43-.03c-.21,0-.28-.02-.38-.04,0,.03.09.07-.04.07Z"/>
      <path class="cls-3" d="m178.46,275.11c-.06.01-.13,0-.19.02l.02.06c.27,0,.45-.05.18-.07Z"/>
      <path class="cls-3" d="m181.77,275.46c-.03-.1-.3-.07-.6-.05.02,0,.04,0,.05,0-.09.14.23.09.55.05Z"/>
      <path class="cls-3" d="m181.1,275.41c-.09,0-.19,0-.28,0-.04.06.11.01.28,0Z"/>
      <path class="cls-3" d="m184.85,275.72c-.14-.03-.09.13-.17.09-.16.13.95-.16.17-.09Z"/>
      <polygon class="cls-3" points="181.53 275.12 181.64 275.25 181.8 275.15 181.53 275.12"/>
      <path class="cls-3" d="m183.89,275.22l-.48-.03s-.05.03-.13.04c.29,0,.62.03.61,0Z"/>
      <path class="cls-3" d="m183.29,275.22c-.15,0-.3,0-.38.02.08,0,.26,0,.38-.02Z"/>
      <polygon class="cls-3" points="182.18 275.09 182.32 275.11 182.66 275.12 182.18 275.09"/>
      <path class="cls-3" d="m189.03,275.24l.52-.04c.05-.04-.09-.07-.28-.05-.12.03-.32.05-.24.09Z"/>
      <path class="cls-3" d="m187.45,274.9c.14.03.15.05.23.1l.02-.16-.25.06Z"/>
      <path class="cls-3" d="m188.97,274.86c.05-.04.76-.12.1-.11-.05.04-.58.08-.1.11Z"/>
      <polygon class="cls-3" points="196.83 275.06 196.7 275.06 196.72 275.31 196.83 275.06"/>
      <path class="cls-3" d="m203.76,274.45c-.62-.06-.15.16-.71.08-.15.06.46.06.31.11.37-.06.57-.03.4-.2Z"/>
      <path class="cls-3" d="m203.37,274.64c-.06.01-.12.02-.19.04.11-.02.16-.03.19-.04Z"/>
      <polygon class="cls-3" points="281.57 275.74 281.97 275.79 281.71 275.7 281.57 275.74"/>
      <path class="cls-3" d="m282.33,275.55l.09.16.24-.15c-.09,0-.26.02-.33-.02Z"/>
      <path class="cls-3" d="m228.01,274.25l-.03.04c.06.04.15.05.34.05l-.31-.09Z"/>
      <polygon class="cls-3" points="233.4 274.37 233.31 274.37 233.48 274.51 233.4 274.37"/>
      <path class="cls-3" d="m237.93,274.18c-.18,0-.4.03-.59.02.4-.03.64.16.59-.02Z"/>
    </g>
    <g>
      <line class="cls-5" x1="429.27" y1="275.12" x2="549.21" y2="275.12"/>
      <g>
        <path class="cls-3" d="m549.07,274.51c.18,0,.11-.1.14-.11-.3.02-.13.14-.14.11Z"/>
        <polygon class="cls-3" points="546.15 274.75 546.2 274.71 545.77 274.81 546.15 274.75"/>
        <path class="cls-3" d="m543.41,274.75c.26.18.99-.03,1.48.03l.08.04.22-.14c-.59.02-1.36.12-1.78.07Z"/>
        <path class="cls-3" d="m541.96,274.36c.09.07-.32.06.34.02-.03,0-.04-.01-.06-.02-.06,0-.14,0-.28,0Z"/>
        <path class="cls-3" d="m542.23,274.37c.29,0-.19-.06,0,0h0Z"/>
        <path class="cls-3" d="m540.9,274.41l.38-.06c-.08-.04-.42-.05-.29-.08-.39.03-.31.07-.09.14Z"/>
        <path class="cls-3" d="m540.54,274.54l.2-.03s-.09-.02-.2.03Z"/>
        <path class="cls-3" d="m541.16,274.46l-.42.06c.05.03.06.09.19-.02-.03.05.05,0,.23-.04Z"/>
        <path class="cls-3" d="m541.39,274.48c.21.04.49.06.11.12.73-.02.62-.15-.11-.12Z"/>
        <path class="cls-3" d="m543.27,274.93l.28.05.25-.06c-.12.03-.55-.05-.53,0Z"/>
        <path class="cls-3" d="m538.54,274.32s.13.1.16.15l.28-.04c-.14-.03-.42-.05-.44-.11Z"/>
        <path class="cls-3" d="m538.7,274.47l-.42.07c.37,0,.44-.02.42-.07Z"/>
        <polygon class="cls-3" points="540.48 274.74 541.17 274.6 540.34 274.74 540.48 274.74"/>
        <polygon class="cls-3" points="536.94 274.31 537.18 274.22 536.76 274.36 536.94 274.31"/>
        <path class="cls-3" d="m535.88,274.33c.18-.07-.24-.12-.06-.17-.29.01-.53.08-.76.13.24-.03.49-.02.81.04Z"/>
        <path class="cls-3" d="m534.7,274.37c.12-.02.24-.05.37-.08-.13.02-.25.04-.37.08Z"/>
        <path class="cls-3" d="m537.56,274.51s-.09-.08-.33-.11l.16.11c.05,0,.11,0,.17,0Z"/>
        <path class="cls-3" d="m537.41,274.51h0c-.18,0-.3,0-.36,0,.05,0,.15,0,.36,0Z"/>
        <path class="cls-3" d="m537.61,274.51s-.03,0-.04,0c.02.01.03.01.04,0Z"/>
        <path class="cls-3" d="m539.38,274.64c-.25.06-.76.12-.26.21.18-.07-.11-.12.26-.21Z"/>
        <path class="cls-3" d="m537.81,274.65l.45.02s-.09-.07.03-.1l-.48.07Z"/>
        <polygon class="cls-3" points="537.59 274.68 537.81 274.65 537.65 274.64 537.59 274.68"/>
        <path class="cls-3" d="m535.46,274.47c-.19.05-.4.05-.64.06.25.02.52.03.77.03.04-.03.15-.09-.13-.09Z"/>
        <path class="cls-3" d="m536.41,274.5s-.03,0-.04,0c.03,0,.05.01.04,0Z"/>
        <path class="cls-3" d="m532.48,274.53s.02.01.04.02c0,0,0-.01,0-.02h-.05Z"/>
        <path class="cls-3" d="m535.63,274.58c.19.02.31,0,.41-.04-.14.01-.29.02-.46.02-.02.02-.02.03.04.02Z"/>
        <path class="cls-3" d="m534.04,274.42c.1.02.21.04.33.06-.1-.03-.3-.09-.33-.06Z"/>
        <path class="cls-3" d="m536.3,274.48s.02,0,.03,0c-.06-.02-.05-.01-.03,0Z"/>
        <path class="cls-3" d="m536.3,274.48c-.1.02-.18.04-.25.07.12,0,.22-.02.32-.04-.02,0-.05-.02-.06-.03Z"/>
        <path class="cls-3" d="m531.77,275.21c.03-.1.54-.19.97-.08.43-.07.15-.4-.23-.58-.01.04-.01.08-.45.14.15.05.98.13.6.22-.58.05-.48-.04-.76-.09.24.12-.74.18-.61.36l.51-.06s-.18.07-.03.1Z"/>
        <path class="cls-3" d="m533.36,274.56h.18c-.21-.03-.35-.07-.63-.15-.3.05-.36.08-.38.12h.89s-.06.03-.06.03Z"/>
        <path class="cls-3" d="m534.35,274.55c-.14.11-.58.15-.31.27.53,0,.37-.09.69-.14-.86.03.25-.06-.37-.12.17-.02.32-.02.46-.03-.15-.01-.3-.03-.44-.05,0,0,.01,0,.02,0h0s0,0,0,0c.04.01.05.02,0,.01,0,0-.01,0-.02,0,0,.02-.02.03-.04.04-.25-.02-.04-.03.04-.04,0,0,0-.01.01-.02,0,0,0,0,0,0l-.86.06c.18.01.41.01.81,0Z"/>
        <path class="cls-3" d="m538.66,275.09s-.03-.02-.03-.03c-.06.01-.08.02.03.03Z"/>
        <path class="cls-3" d="m538.3,275.02c.06-.01.11-.06.32-.05.18.03,0,.05,0,.09.12-.03.43-.08.04-.13h-.06c-.35-.02-.79-.16-.73-.17.1.1.19.17.42.26Z"/>
        <path class="cls-3" d="m536.3,274.81l-.71.05.36.09-.02-.06c.41.02.32-.05.37-.09Z"/>
        <polygon class="cls-3" points="532.4 274.48 532.49 274.36 532.08 274.52 532.4 274.48"/>
        <polygon class="cls-3" points="531.47 274.49 531.5 274.39 531.26 274.45 531.47 274.49"/>
        <path class="cls-3" d="m479.04,275.72l-.21.03c.1,0,.16-.02.21-.03Z"/>
        <path class="cls-3" d="m480.56,275.72l.04-.05c-.07.03-.1.05-.04.05Z"/>
        <path class="cls-3" d="m508.65,274.5c-.31-.09-.65-.24-.61-.12l.09.11c.21-.02.38,0,.52.02Z"/>
        <path class="cls-3" d="m493.02,275.15s.06.02.09.03c.07-.04.14-.07.21-.1-.09.02-.19.05-.3.07Z"/>
        <path class="cls-3" d="m492.81,275.6l-.4-.07c.09.02.22.05.4.07Z"/>
        <path class="cls-3" d="m470.73,275.83l-.25.11c.38,0,.21-.06.25-.11Z"/>
        <path class="cls-3" d="m521.95,274.53c-.26-.04-.47-.06-.66-.07.32.06.57.16.66.07Z"/>
        <path class="cls-3" d="m479.63,274.57c-.13.02-.18.04-.18.07.13-.02.21-.04.18-.07Z"/>
        <path class="cls-3" d="m520.53,274.46s.09.02.14.03c.19-.02.39-.03.62-.03-.24-.05-.5-.07-.76,0Z"/>
        <path class="cls-3" d="m440.6,275.74s-.05,0-.07-.01c0,.01.02.02.07.01Z"/>
        <path class="cls-3" d="m431.83,274.65c.09,0,.23,0,.36,0-.06,0-.17,0-.36,0Z"/>
        <path class="cls-3" d="m527.73,274.44c.2,0,.03-.01,0,0h0Z"/>
        <path class="cls-3" d="m528.69,274.87s-.07.03-.08.05c.02-.03.04-.04.08-.05Z"/>
        <path class="cls-3" d="m518.57,275.14s-.01,0-.02,0c.06.02.05.02.02,0Z"/>
        <path class="cls-3" d="m528.03,274.49c-.07-.01-.16-.02-.25-.03.04,0,.12.02.25.03Z"/>
        <path class="cls-3" d="m527.99,274.44c.07,0,.12,0,.17.01.02-.02,0-.03-.17-.01Z"/>
        <path class="cls-3" d="m527.46,274.45c.11,0,.22,0,.32.01-.04,0-.05-.01-.04-.02-.06,0-.14,0-.27,0Z"/>
        <path class="cls-3" d="m456.74,275.45s-.03,0-.04-.01c-.2.04-.11.04.04.01Z"/>
        <path class="cls-3" d="m503.52,275.63s.01,0,.02,0c0,0-.02,0-.03,0h0Z"/>
        <path class="cls-3" d="m502.81,275.71c.3-.14.47-.12.7-.09l-.23-.31-.47.4Z"/>
        <path class="cls-3" d="m475.39,275.75l.5.1c-.6.16-1.03.1-.57.24.07-.34,1.93-.03,2-.37l.33.07c-.09,0-.11.02-.2.01.64.16.47-.25,1.29-.2.29.03.49.08.29.12l.64-.08c.19,0,.14.07-.04.06l.97-.03h0c.14-.04.45-.13.61-.16.25.05-.12.04-.06.08l.54-.08c.22.09-.23.17-.6.16.5.34.45-.09,1.53.11l-.51.04c.33.19.72.12,1.3.24-.14-.06-1.15-.3-.57-.39.16.03.38.04.7-.03,0,.12.31.09.7.08l-.03.16c.42-.05.38-.13.63-.2.46.02.56.14.67.24.74.03-.51-.2.37-.23.62.06,1.05,0,1.79-.1.43.05-.08.1.08.14l.38-.13c.09,0,.06.04.05.06.32-.05.03-.16.53-.2.14-.18,1.04.26,1.67.06.16.05-.07.1-.03.16.86-.13.74-.1,1.45-.27l.6.1c-.44-.12.12-.26.62-.38-.16-.06-.29-.11-.38-.13l.79-.09c.1.03.02.08-.11.15.05-.01.11-.03.15-.04.28.06.14.15-.07.24-.1-.03-.19-.07-.29-.1-.2.1-.38.2-.34.3.05-.02.15-.03.26-.04-.05.03-.08.05-.06.07.03.02.11-.02.24-.06l.18.18.04-.07,1.04.11c.74-.18,1.39-.44,2.56-.52-.29.13-.06.21-.08.37-.32-.16-.91.07-1.52.04.32.02.25.09.17.12l1.09-.15c-.02.13.23.09.51.15-.21-.25.81-.17,1.25-.24.03.08-.08.17-.62.15.6.19.77-.29,1.35-.13-.13,0-.2-.01-.25.03.31-.07,1.06-.02.88.06h-.13c.88.03,2.66,0,2.79-.21,0,.03-.11.26-.17.3l1.56-.72c-.14.18.39.62-.34.72.21.03.47.06.91,0-.14-.03-.35-.26-.16-.28.53.2.37.11,1.03.28-.21-.04.02-.33.36-.32-.05.04.03.28-.09.31l.84-.28c-.21.05-.04.24.15.32-.09-.06.72,0,.95-.02l-.36-.07c.95.04.93-.4,1.87-.38-.11.06-.28.36.2.39.22-.14.97-.69,1.8-.8l.16.08.64-.09c-.4.22-1.51.67-2.12.85.35.07.1.1.63.09.19.08-.29.12-.45.12l1.23.05c-.05-.17.94-.17.9-.31l-1.34.17c-.05-.17.78-.48,1.65-.45.22.07-.17.3-.15.36.11-.06.83-.11.91-.07l-.37.09c.49.06.79-.22,1.38-.06.2.01.6.22.64.12-.33-.19-.39-.78-.17-.93.07.01,1.06.18,1.29.28.33.15-.5.36-.22.49.01-.05.2-.1.27-.12.21.04-.09.14.37.12.08-.17.94.01.22-.14.45-.05.48.03,1.01.03-.17-.11.48-.37.93-.42-.03.04.07.1.12.13.92.02,1.42.09,2.28.09.08.04.5.09.32.16.12-.03.24-.09.5-.09.51.15-.59.02-.2.2.03-.1.69-.14,1.07-.2-.12-.15-.87-.03-1.25.03,0-.21.66-.43,1.56-.53.72-.05.31.14.43.11,1.34.04,1.15-.37,2.26-.22.44.13.02.27.12.36-.58.05-.9-.09-1.29-.08l.49.06c-.19.04-.57.08-.79.04.37.12,2.27.02,3.31.13.18-.05.5-.09.35-.15l-.33.02c-.3-.11.62-.15.2-.2.44-.08.93-.2,1.55-.13l.12.15s-.41-.09-.58-.04c.26-.07.95.21,1.23,0l-.43-.11c.44-.08.99-.24,1.54-.19-.25-.15-.13.02-.52-.16.34.22-1.41,0-.86.22-.4-.21-.69-.09-1.22-.26.02.05.19.1-.28.07-.02.01-.07.03-.1.04-.01,0-.02,0-.03,0,0,0,.02,0,.03,0-.02,0-.02,0,0,0,.11.02.2.05.23.08-.23.12-.96.11-1.21.17-.27-.02.11-.06-.03-.11l-.37.09c-.04-.11-.73-.19-.08-.25h-.58c-.34-.07-.81-.09-1.1-.05-.27-.02-.69.12-.45.04l-.91.07v-.03c-.91-.01-1.86.19-2.88-.02-.3.03-.61.06-1.12.03l-.1-.1c-.39.03-1.17-.1-1.33,0-.42-.26-1.88-.06-2.57-.1l-.03.13c-.47,0-.92.03-1.5.08l.04.11c-.5.09-1.29-.08-2.09-.07.05-.04.26-.03.4,0-.95-.25-2,.18-2.87,0-.21.04-.37.03-.52,0,.02,0,.04,0,.05,0-.02,0-.05,0-.09,0-.09-.02-.19-.04-.3-.06.09.03.18.05.25.06-.17,0-.42.02-.66.04l-.1-.12s-.04,0-.06,0c-.24-.04-.19.06-.07.15-.12.02-.24.04-.33.07-.2-.19-.65.07-.91-.14-.17.1-1.24.08-1.37.29,0-.03-.08-.04.05-.04-.27-.02-.55-.05-.8.01l-.12-.15-.6.21c-.36-.09-.51-.15-.15-.27-.87.18-.71.07-1.45.25l.04-.1c-.27,0-.69.14-.85.05-.59-.19-2.94-.03-4.46-.2.3.29-.71-.13-.77.1-.09-.07-.3-.11-.05-.17-.78.07-1.17-.11-1.71.08-.09-.07.17-.1.09-.14-.06.01-.25.06-.33.02-.08-.04.11-.06.24-.09-.79.01-.87.22-.93.42-.4-.09-.6-.08-.89.05-.14-.07-.37-.13.12-.16-.28,0-1.7-.1-1.72.06-.09-.04-.39-.01-.46,0-.62,0-.68-.02-1.29,0l.17.03c-.24.19-.51.04-1,.07v-.02c-1.12-.14-.47.07-1.59-.09l.06.12c-.1.26-.99-.15-1.64-.05l.23.07c-.35.09-.99-.35-1.34-.38-.08-.02.12-.04.23-.05-.93-.15-.12.16-.81.19-.13-.08.16-.22-.3-.23-.23-.07-1.35.28-1.99.11.14.07.28.13-.04.18-.49.02-1.33-.25-1.78-.04-.06-.02-.09-.03-.09-.05-.38.05-1.23.09-1.45.2-.35-.41-2.34.2-2.34-.18l-1.16.02.03-.04c-.74-.03-1,.07-1.26.16-.17-.03-.05-.06-.03-.08-1.08-.08-1.19-.06-2.1.13l-.09-.12c-.25.07-1.57-.19-2.63-.05.01-.01.03-.04.12-.06-1.2.15-2.86-.34-3.3.11l-.79.11c1.02.04-.15.2.27.27-.4.03-1.04-.14-.54-.16l.08.02c.18-.24-1.27-.08-1.24-.24-2.01.01-3.97-.12-5.85-.13l.22.18h-.66c-.17-.05-.23-.15.24-.15-.25-.1-.79.09-.8.13-.92-.07.36-.21.08-.22h-.38s.09.03.09.03c-.31.07-.34.15-.9.15-.36-.04-.18-.11-.32-.12,0-.01-.05-.02-.21,0l-.83-.02.33.14c-.37.07-.78,0-.4.16-.56-.25-3.08-.09-3.43-.17-.51.11-1.02.1-1.65.09.16.03.25.19-.29.17.2-.33-.99-.15-1.43-.39.39.16-1.54.04-.93.27-.45-.03-.03-.13-.37-.2-1.08.13-2.37-.08-3.7-.04-.02.04.2.11-.08.18l-.7-.22c-.26.02-.24.25-.72.1.07.04.17.09,0,.11-2.6-.21-5.32.18-7.96-.23.36.09.12.09-.15.1.18.02,0,.11.03.17l-1.11-.17c-.2.17-1.19.01-1.3.17l.35-.03c-.47.19.65.41.58.65.52-.21,1.38.31,2.23.01.19.05-.16.08-.06.13.22-.1.48-.12.96-.08l-.05.03c1.36-.03,1.95.08,3.48.14l-.11-.12c.33.02.4.05.55.08.38-.18-.93-.01-.58-.21.44.24,2.32,0,2.62.28.51,0-.15-.14.36-.14l.13.07.13-.1c.33.02.5.11.51.17-.08,0-.23.02-.32.02.43.09,1.21-.03,1.36,0l-.49-.05c1.38-.07,3.07.03,4.41-.12l-.1-.06c1.02-.1.82.06,1.94.01h-.04c.22-.04.52-.07.83-.06-.28.07.53.13.16.2,1.11-.11.55-.09,1.28-.29l.17.09c.25-.08.27-.13.83-.15-.46.08.36.14-.16.25,1.17.2,1.74-.2,2.28.09.54-.26-1.02-.14-.71-.2-.25-.08.45-.19.81-.17.38,0,.64.33,1.58.32-.09,0-.1.02-.19.02.35.07.69-.09,1.12.02.24-.16.56,0,.63-.19l-.87.05c.49-.05.95-.28,1.76-.17-.06.04-.3.09-.47.12.24.06.46-.04.7.02-.07.2-1.05.04-1.58.19.25.08.99-.14.73.07.38-.27.93.03,1.57-.17l-.04.12c.1-.02.31-.07.5-.07l-.34.15c.52-.13,1,.11,1.49.04-1.04,0-.23-.14-.67-.23,1.28-.16.74.31,2.17.25-.19.02-.73-.07-.43-.13.27.02.63.07.8.13.95-.02-.15-.12.26-.19.32.14.47-.06.88-.11v.12c1.09.08.29-.25,1.27-.16l-.41.17.51-.04-.1.14c.55-.1.73-.08,1.27-.04-.13-.08.07-.22.55-.22.33.07-.18.11.5.1-.15.08-.32.17-.62.06-.03.04-.15.08-.18.11.35.08.89.02,1.13.02-.09,0-.21-.01-.27-.03l.99-.17c.16.05.03.08-.09.12.2-.01.34-.07.63-.08-.08.1-.06.2-.47.25l.94-.11c.06.04.48.12.36.15.52.06,1.28-.19,1.97-.11.04-.02.11-.04.25-.05.65.02,1.22.14,1.99,0l.44.18c.6-.04-.59-.22.41-.29.71-.06.27.15.51.2.35-.09.97-.27,1.62-.13-.22.03-.39,0-.59.02Zm7.43-.08c-.14.03-.43.1-.54.03.16-.14.29-.07.54-.03Zm11.29-.29c-.11.04-.27.02-.46-.03.14-.01.29,0,.46.03Zm31.46-.84s-.01,0-.02,0c-.32-.05-.21-.03.02,0Zm.67.05c.07-.02.06-.03.03-.05-.05.03-.2.03-.37.02.05.03.13.05.33.03Zm-71.6.05l.13.03c-.29.03-.21,0-.13-.03Z"/>
        <path class="cls-3" d="m492.83,275.54s-.05-.04-.06-.07c-.06.02-.06.04.06.07Z"/>
        <path class="cls-3" d="m470.77,275.81s-.01,0-.02,0c-.01,0-.02.01-.02.02l.05-.02Z"/>
        <path class="cls-3" d="m515.91,275.62c-.14-.02-.21-.04-.26-.06,0,.03.05.05.26.06Z"/>
        <path class="cls-3" d="m529.77,274.39l-.43.03c.21,0,.28.02.38.04,0-.03-.09-.07.04-.07Z"/>
        <path class="cls-3" d="m533.48,275.13c.06-.01.13,0,.19-.02l-.02-.06c-.27,0-.45.05-.18.07Z"/>
        <path class="cls-3" d="m530.17,274.79c.03.1.3.07.6.05-.02,0-.04,0-.05,0,.09-.14-.23-.09-.55-.05Z"/>
        <path class="cls-3" d="m530.84,274.83c.09,0,.19,0,.28,0,.04-.06-.11-.01-.28,0Z"/>
        <path class="cls-3" d="m527.08,274.53c.14.03.09-.13.17-.09.16-.13-.95.16-.17.09Z"/>
        <polygon class="cls-3" points="530.41 275.12 530.3 275 530.13 275.1 530.41 275.12"/>
        <path class="cls-3" d="m528.05,275.03l.48.03s.05-.03.13-.04c-.29,0-.62-.03-.61,0Z"/>
        <path class="cls-3" d="m528.65,275.02c.15,0,.3,0,.38-.02-.08,0-.26,0-.38.02Z"/>
        <polygon class="cls-3" points="529.75 275.16 529.61 275.13 529.28 275.12 529.75 275.16"/>
        <path class="cls-3" d="m522.91,275.01l-.52.04c-.05.04.09.07.28.05.12-.03.32-.05.24-.09Z"/>
        <path class="cls-3" d="m524.48,275.35c-.14-.03-.15-.05-.23-.1l-.02.16.25-.06Z"/>
        <path class="cls-3" d="m522.96,275.39c-.05.04-.76.12-.1.11.05-.04.58-.08.1-.11Z"/>
        <polygon class="cls-3" points="515.1 275.19 515.24 275.19 515.22 274.93 515.1 275.19"/>
        <path class="cls-3" d="m508.17,275.8c.62.06.15-.16.71-.08.15-.06-.46-.06-.31-.11-.37.06-.57.03-.4.2Z"/>
        <path class="cls-3" d="m508.57,275.6c.06-.01.12-.02.19-.04-.11.02-.16.03-.19.04Z"/>
        <polygon class="cls-3" points="430.37 274.51 429.97 274.46 430.23 274.54 430.37 274.51"/>
        <path class="cls-3" d="m429.61,274.7l-.09-.16-.24.15c.09,0,.26-.02.33.02Z"/>
        <path class="cls-3" d="m483.93,276l.03-.04c-.06-.04-.15-.05-.34-.05l.31.09Z"/>
        <polygon class="cls-3" points="478.54 275.88 478.63 275.88 478.46 275.73 478.54 275.88"/>
        <path class="cls-3" d="m474.01,276.06c.18,0,.4-.03.59-.02-.4.03-.64-.16-.59.02Z"/>
      </g>
    </g>
  </g>
</svg>