<?xml version="1.0" encoding="UTF-8"?>
<svg id="Layer_1" data-name="Layer 1" xmlns="http://www.w3.org/2000/svg" xmlns:xlink="http://www.w3.org/1999/xlink" viewBox="0 0 359.09 162.04">
  <defs>
    <style>
      .cls-1 {
        fill: url(#linear-gradient-2);
      }

      .cls-2 {
        fill: #fff;
      }

      .cls-3 {
        fill: #550d6e;
      }

      .cls-4 {
        fill: #3a0319;
      }

      .cls-5 {
        fill: #ec4266;
      }

      .cls-6 {
        fill: url(#linear-gradient);
      }
    </style>
    <linearGradient id="linear-gradient" x1="113.53" y1="20.36" x2="129.64" y2="114.33" gradientUnits="userSpaceOnUse">
      <stop offset="0" stop-color="#fed769"/>
      <stop offset="1" stop-color="#fd9491"/>
    </linearGradient>
    <linearGradient id="linear-gradient-2" x1="114.88" y1="59.94" x2="104.29" y2="40.32" gradientUnits="userSpaceOnUse">
      <stop offset="0" stop-color="#febc79"/>
      <stop offset="1" stop-color="#fd9491"/>
    </linearGradient>
  </defs>
  <g>
    <g>
      <path class="cls-3" d="m35.41,108.65c-8.17,0-14.81-6.65-14.81-14.83v-30.97h-3.26c-8.17,0-14.81-6.65-14.81-14.83s6.65-14.83,14.81-14.83h36.06c8.21,0,14.9,6.65,14.9,14.83s-6.68,14.83-14.9,14.83h-3.18v30.97c0,8.18-6.65,14.83-14.81,14.83Z"/>
      <path class="cls-5" d="m44.08,93.82c0,4.79-3.88,8.68-8.66,8.68s-8.67-3.89-8.67-8.68v-37.12h-9.41c-4.79,0-8.66-3.89-8.66-8.68s3.88-8.68,8.66-8.68h36.06c4.79,0,8.75,3.89,8.75,8.68s-3.96,8.68-8.75,8.68h-9.33v37.12Z"/>
      <path class="cls-3" d="m75.69,108.81c-15.81,0-28.68-12.88-28.68-28.72s12.86-28.8,28.68-28.8c19.84,0,28.76,16.84,28.76,28.8,0,15.83-12.9,28.72-28.76,28.72Zm-.2-29.62"/>
      <path class="cls-5" d="m98.3,80.1c0,12.4-10.15,22.57-22.61,22.57s-22.53-10.17-22.53-22.57,10.15-22.65,22.53-22.65c16.42,0,22.61,13.89,22.61,22.65Zm-16.59,0c0-4.22-1.82-6.03-6.02-6.03-3.3,0-5.94,2.73-5.94,6.03s2.64,5.95,5.94,5.95,6.02-2.65,6.02-5.95Z"/>
      <path class="cls-3" d="m117.09,64.03c-.58.16-1.6.53-2.36.88l-1.35.65h-1.53c-1.47,0-2.82-.45-3.92-1.26-.17.01-.34.02-.51.02-5.02,0-8.42-4.62-9.34-12.68-1.18-10.41,3.51-15.29,8.3-16.4.73-.17,1.47-.25,2.22-.25,9.47,0,14.27,12.97,16.29,20.7l3.17,12.15-10.98-3.82Z"/>
      <path class="cls-4" d="m111.86,59.42c-.42,0-.52-.36-.57-.54-.02-.08-.07-.3-.13-.64-.27-1.47-.96-5.29-1.96-8.19.04.93.11,2.13.18,3.55l.04.81c.03.49.09,1.62-.49,2.62-.18.32-.42.59-.69.81-.27.28-.6.35-.82.35-1.77,0-2.9-4.32-3.23-7.22-.62-5.42.72-9.05,3.57-9.71.28-.06.56-.1.84-.1,6.07,0,10.17,15.45,10.34,16.11l.26,1.01-.98-.34c-.21-.07-.48-.11-.8-.11-2.08,0-5.3,1.54-5.34,1.55l-.11.05h-.13Z"/>
      <path class="cls-3" d="m117.13,63.46c-.63.15-1.78.55-2.62.95l-1.25.59h-1.4c-1.18,0-2.57-.36-3.75-1.27-.22.02-.45.03-.68.03-4.77,0-7.89-4.33-8.79-12.18-1.14-10.05,3.32-14.74,7.88-15.79.69-.16,1.39-.24,2.09-.24,9.1,0,13.78,12.71,15.76,20.28l2.91,11.14-10.14-3.52Z"/>
      <path class="cls-3" d="m134.28,108.73c-2.07,0-4.07-.44-5.89-1.26-2.74.84-5.55,1.26-8.39,1.26-15.81,0-28.68-12.88-28.68-28.72,0-5.42,1.29-10.36,3.83-14.69,4.21-7.17,12.68-14.4,22.14-14.4,1.36,0,2.73.15,4.05.45.17.04.33.08.5.12l.34-15.16c-.1-3.84,1.31-7.47,3.97-10.24,2.56-2.67,6.04-4.19,9.55-4.19.47,0,.94.03,1.41.08,7.04.83,12.21,7.46,11.66,14.87v57.47c0,7.95-6.5,14.41-14.48,14.41Z"/>
      <path class="cls-6" d="m142.62,36.58v57.73c0,4.55-3.71,8.27-8.34,8.27-1.9,0-3.8-.66-5.2-1.9-2.89,1.24-5.94,1.9-9.08,1.9-12.38,0-22.53-10.17-22.53-22.57,0-4.59,1.14-8.44,2.98-11.58,3.57-6.09,11.44-12.88,19.55-11.07,3.64.81,6.21,3.11,7.75,4.85.19-8.64.39-17.28.58-25.92-.2-5,4.06-8.69,8.06-8.22,3.56.42,6.65,4.12,6.23,8.51Zm-16.59,43.43c0-3.31-2.72-6.03-6.02-6.03s-5.94,2.73-5.94,6.03,2.64,5.95,5.94,5.95,6.02-2.65,6.02-5.95Z"/>
      <g>
        <path class="cls-5" d="m132.34,41.01c.86-.36,2.58-1.05,3.89-.27.6.36.89.89,1.01,1.12,1.48,2.77-.97,8.39-1.09,8.66-1.34,3.01-3.7,7.45-7.91,12.45-.68-.97-1.87-2.41-3.76-3.66-1.54-1.02-3-1.55-4.04-1.84.02-.25.07-.63.14-1.09,1.36-8.67,8.18-13.86,11.76-15.37Z"/>
        <path class="cls-2" d="m121.48,57.82c.86-2.93,3.22-9.62,8.38-11.85.72-.31,2.29-.98,3.27-.31,1.52,1.04.86,4.55.02,6.53-1.83,4.32-2.9,6.15-6.09,9.31l-.71-.71c1.42-1.37,3.31-3.56,4.63-6.81.97-2.38,2.06-6.43.97-7.04-1.31-.74-5.15,3.86-5.61,4.42-2.12,2.54-3.36,5.02-4.09,6.75-.26-.09-.52-.19-.77-.28Z"/>
      </g>
      <g>
        <path class="cls-5" d="m118.43,57.12s-3.91-19-10.76-17.82c-6.85,1.18-3.63,19.85-.95,17.37.17-.12.43-.34.66-.7.68-1.03.6-2.54.6-2.54-.25-5.1-.37-7.65,0-7.77.31-.1,1.04,1.04,1.62,2.31,2.2,4.9,1.43,10.57,1.43,10.57,0,0,0,0,0,0,.14-.07.34-.16.57-.26.3-.13.69-.29,1.19-.46.13-.04.55-.18,1.11-.32,1.21-.3,2.19-.38,2.47-.4.55-.04,1.25-.05,2.05,0Z"/>
        <path class="cls-1" d="m110.9,59.17h0c.28-2.9.17-6.93-1.77-10.98-.27-.56-.56-1.09-.86-1.59-.05,1.2.08,3.84.22,6.81,0,.07.07,1.69-.69,2.85-.22.33-.48.61-.79.83-.37.35-.89.43-1.37.17-1.85-.99-3.12-7.81-2.35-12.58.56-3.46,2.04-5.5,4.29-5.89,7.26-1.25,11.19,17.42,11.35,18.22l.14.67-.68-.05c-.66-.05-1.32-.05-1.97,0-.43.03-1.32.12-2.39.38-.54.13-.94.27-1.07.31-.48.16-.86.32-1.15.45-.23.1-.42.18-.56.25l-.34.16Zm-2.88-14.03c.35,0,1.01.33,2.04,2.63,1.7,3.78,1.69,7.95,1.55,9.96.28-.12.61-.25,1.01-.39.13-.05.57-.19,1.15-.33,1.14-.28,2.1-.38,2.56-.41.48-.03.96-.04,1.44-.03-1.23-5.52-5.02-17.62-10.03-16.76-2.24.39-3.11,2.95-3.45,5.04-.78,4.81.61,10.86,1.83,11.51.06.03.11.06.23-.06.26-.19.44-.38.59-.6.57-.87.52-2.22.52-2.23-.36-7.43-.34-8.05.35-8.28.05-.02.12-.04.21-.04Z"/>
      </g>
      <path class="cls-2" d="m115.68,56.67s-.03,0-.3.03c-.23.03-.38.05-.4.05-.41.04-1.65-5.37-2.77-8.23-1.09-2.81-3.24-6.18-4.49-5.87-1.16.29-1.41,3.75-1.59,6.35-.2,2.76.06,4.4-.11,4.42-.23.03-.87-2.72-.89-5.65,0-.59.02-1.69.34-3.04.29-1.2.58-2.34,1.54-2.94.45-.29.97-.4,1.36-.39.41,0,2.11.2,5.14,7.33,2.34,5.5,2.37,7.85,2.15,7.94Z"/>
      <path class="cls-3" d="m180.5,108.73c-2.07,0-4.07-.44-5.89-1.26-2.74.84-5.55,1.26-8.39,1.26-15.81,0-28.68-12.88-28.68-28.72,0-19.79,16.65-28.74,28.55-28.8v-14.63c0-7.99,6.46-14.5,14.4-14.5s14.48,6.5,14.48,14.5v57.73c0,7.95-6.5,14.41-14.48,14.41Z"/>
      <path class="cls-5" d="m188.83,36.58v57.73c0,4.55-3.71,8.27-8.34,8.27-1.9,0-3.8-.66-5.2-1.9-2.89,1.24-5.94,1.9-9.08,1.9-12.38,0-22.53-10.17-22.53-22.57,0-15.62,13.2-22.65,22.53-22.65,2.06,0,4.13.33,6.02.83v-21.61c0-4.63,3.71-8.35,8.25-8.35s8.34,3.72,8.34,8.35Zm-16.59,43.43c0-3.31-2.72-6.03-6.02-6.03s-5.94,2.73-5.94,6.03,2.64,5.95,5.94,5.95,6.02-2.65,6.02-5.95Z"/>
      <path class="cls-3" d="m202.11,108.73c-7.94,0-14.4-6.47-14.4-14.41v-57.73c0-7.99,6.46-14.5,14.4-14.5s14.48,6.5,14.48,14.5v57.73c0,7.95-6.5,14.41-14.48,14.41Z"/>
      <path class="cls-5" d="m210.44,36.58v57.73c0,4.55-3.71,8.27-8.34,8.27s-8.25-3.72-8.25-8.27v-57.73c0-4.63,3.71-8.35,8.25-8.35s8.34,3.72,8.34,8.35Z"/>
      <path class="cls-3" d="m246.6,105.64c-18.18,7.45-33.23-2.16-38.69-15.5-8.8-21.48,7.27-36.49,15.94-40.05,9.58-3.92,26.48-3.3,33.77,14.5,1.4,3.43,1.35,7.62-.78,11.51,1.76,1.56,2.78,3.48,3.32,4.8,3.1,7.58,1.42,18.61-13.55,24.74Z"/>
      <path class="cls-5" d="m243.7,79.25l-10.32,4.23s1.1,1.53,4.24.24c6.05-2.48,13.83-7.83,16.84-.48,1.16,2.83,3.03,11.3-10.19,16.72-15.4,6.31-26.61-2.21-30.67-12.14-7.21-17.6,6.54-29.55,12.58-32.03,5.32-2.18,19.4-4.36,25.75,11.14,1.46,3.55.08,8.93-8.23,12.33Zm-4.68-7.51s-2.11-4.7-7.03-2.68c-5.16,2.11-3.13,6.84-3.13,6.84l10.16-4.16Z"/>
      <path class="cls-3" d="m270.88,108.67c-8.19,0-14.86-6.67-14.86-14.88v-30.19c0-8.25,6.67-14.96,14.86-14.96,2.14,0,4.23.47,6.19,1.37,2.87-.9,5.89-1.37,8.89-1.37,7.92,0,15.2,3.35,20.5,9.45,2.57,3.02,3.79,6.86,3.49,10.86-.3,3.99-2.13,7.62-5.18,10.23-2.67,2.27-6.09,3.52-9.66,3.52-.39,0-.77-.01-1.16-.04-3.01-.23-5.84-1.37-8.12-3.2v14.34c0,8.2-6.71,14.88-14.95,14.88Z"/>
      <path class="cls-5" d="m303.81,68.49c-.17,2.36-1.22,4.45-3.05,6.02-1.74,1.48-4.01,2.18-6.36,2.01-2.27-.17-4.44-1.22-5.92-3.05-.7-.79-1.48-1.13-2.53-1.13-3.48,0-6.27,2.88-6.27,6.37v15.1c0,4.8-3.92,8.73-8.8,8.73s-8.71-3.93-8.71-8.73v-30.19c0-4.89,3.92-8.81,8.71-8.81,2.09,0,4.01.79,5.58,2.01,2.96-1.31,6.27-2.01,9.5-2.01,6.18,0,11.76,2.62,15.85,7.33,1.48,1.75,2.18,4.01,2,6.37Z"/>
      <path class="cls-3" d="m327.85,109.8c-15.92,0-24.05-8.43-26.36-16.32l-.05-.17-.06-.24c-.86-3.73.1-7.93,2.51-10.96.07-.08.13-.16.2-.24-2.67-2.69-4.44-6.42-4.44-11.64,0-13.17,11.12-22.73,26.45-22.73,10.87,0,17.72,4.85,21.55,8.91l.09.1c3.18,3.52,4.17,8.26,2.64,12.67-.45,1.29-1.08,2.47-1.87,3.53,4.57,2.78,8.05,7.5,8.05,15.67,0,7.41-6,21.42-28.71,21.42Z"/>
      <path class="cls-5" d="m350.41,88.38c0,3.4-2.79,15.27-22.56,15.27-17.34,0-20.21-11.08-20.47-11.96-.78-3.4,1.39-7.94,5.92-7.94,6.71,0,3.31,6.2,14.55,6.2,2.79,0,8.01.35,8.01-2.27,0-7.77-30.05-.09-30.05-17.45,0-9.77,8.36-16.58,20.3-16.58,8.71,0,14.11,3.84,17.07,6.98,1.66,1.83,2.18,4.28,1.39,6.55-.78,2.27-2.7,3.93-5.14,4.45l-.17.09c-5.66,0-7.67-4.36-13.15-4.36-.96,0-5.66.17-5.66,2.88,0,9.08,29.97-2.36,29.97,18.15Z"/>
    </g>
    <g>
      <path class="cls-3" d="m266.55,116.56v17.19h-2.82v-17.19h2.82Z"/>
      <path class="cls-3" d="m279.77,120.57c.85.45,1.51,1.1,1.99,1.98.48.87.72,1.93.72,3.17v8.04h-2.79v-7.62c0-1.22-.31-2.16-.92-2.81-.61-.65-1.44-.98-2.5-.98s-1.89.33-2.51.98c-.62.65-.93,1.59-.93,2.81v7.62h-2.82v-13.63h2.82v1.56c.46-.56,1.05-1,1.77-1.31.72-.31,1.48-.47,2.29-.47,1.07,0,2.03.22,2.88.67Z"/>
      <path class="cls-3" d="m291.53,122.42h-2.52v11.33h-2.84v-11.33h-1.61v-2.3h1.61v-.96c0-1.57.42-2.71,1.25-3.42.83-.72,2.14-1.08,3.92-1.08v2.35c-.86,0-1.46.16-1.81.48-.35.32-.52.88-.52,1.67v.96h2.52v2.3Z"/>
      <path class="cls-3" d="m293.69,123.24c.57-1.05,1.34-1.88,2.32-2.46.98-.58,2.06-.88,3.25-.88,1.07,0,2.01.21,2.81.63.8.42,1.44.94,1.92,1.57v-1.98h2.84v13.63h-2.84v-2.03c-.48.64-1.13,1.18-1.95,1.61-.82.43-1.76.64-2.82.64-1.17,0-2.24-.3-3.22-.9-.97-.6-1.74-1.44-2.31-2.52s-.85-2.3-.85-3.67.29-2.58.85-3.64Zm9.72,1.24c-.39-.69-.89-1.22-1.52-1.58-.63-.36-1.3-.54-2.03-.54s-1.4.18-2.03.53c-.63.35-1.13.87-1.52,1.56-.39.68-.58,1.5-.58,2.44s.19,1.76.58,2.47c.39.71.9,1.25,1.53,1.62.63.37,1.31.56,2.02.56s1.4-.18,2.03-.54,1.13-.89,1.52-1.6c.39-.7.58-1.52.58-2.46s-.19-1.76-.58-2.45Z"/>
      <path class="cls-3" d="m320.05,120.57c.85.45,1.51,1.1,1.99,1.98.48.87.72,1.93.72,3.17v8.04h-2.79v-7.62c0-1.22-.31-2.16-.92-2.81-.61-.65-1.44-.98-2.5-.98s-1.89.33-2.51.98c-.62.65-.93,1.59-.93,2.81v7.62h-2.82v-13.63h2.82v1.56c.46-.56,1.05-1,1.77-1.31.72-.31,1.48-.47,2.29-.47,1.07,0,2.03.22,2.88.67Z"/>
      <path class="cls-3" d="m329.39,122.42v7.54c0,.51.12.88.36,1.1.24.22.65.33,1.22.33h1.73v2.35h-2.23c-1.27,0-2.24-.3-2.92-.89-.68-.59-1.01-1.56-1.01-2.89v-7.54h-1.61v-2.3h1.61v-3.39h2.84v3.39h3.31v2.3h-3.31Z"/>
      <path class="cls-3" d="m339.51,120.48c.68-.39,1.5-.58,2.44-.58v2.92h-.72c-1.1,0-1.94.28-2.51.84-.57.56-.85,1.53-.85,2.92v7.17h-2.82v-13.63h2.82v1.98c.41-.69.96-1.23,1.64-1.62Z"/>
      <path class="cls-3" d="m356.56,120.12l-8.36,20.03h-2.92l2.77-6.63-5.37-13.4h3.14l3.83,10.39,3.98-10.39h2.92Z"/>
    </g>
  </g>
  <g>
    <path class="cls-3" d="m35.41,108.65c-8.17,0-14.81-6.65-14.81-14.83v-30.97h-3.26c-8.17,0-14.81-6.65-14.81-14.83s6.65-14.83,14.81-14.83h36.06c8.21,0,14.9,6.65,14.9,14.83s-6.68,14.83-14.9,14.83h-3.18v30.97c0,8.18-6.65,14.83-14.81,14.83Z"/>
    <path class="cls-5" d="m44.08,93.82c0,4.79-3.88,8.68-8.66,8.68s-8.67-3.89-8.67-8.68v-37.12h-9.41c-4.79,0-8.66-3.89-8.66-8.68s3.88-8.68,8.66-8.68h36.06c4.79,0,8.75,3.89,8.75,8.68s-3.96,8.68-8.75,8.68h-9.33v37.12Z"/>
    <path class="cls-3" d="m75.69,108.81c-15.81,0-28.68-12.88-28.68-28.72s12.86-28.8,28.68-28.8c19.84,0,28.76,16.84,28.76,28.8,0,15.83-12.9,28.72-28.76,28.72Zm-.2-29.62"/>
    <path class="cls-5" d="m98.3,80.1c0,12.4-10.15,22.57-22.61,22.57s-22.53-10.17-22.53-22.57,10.15-22.65,22.53-22.65c16.42,0,22.61,13.89,22.61,22.65Zm-16.59,0c0-4.22-1.82-6.03-6.02-6.03-3.3,0-5.94,2.73-5.94,6.03s2.64,5.95,5.94,5.95,6.02-2.65,6.02-5.95Z"/>
    <path class="cls-3" d="m117.09,64.03c-.58.16-1.6.53-2.36.88l-1.35.65h-1.53c-1.47,0-2.82-.45-3.92-1.26-.17.01-.34.02-.51.02-5.02,0-8.42-4.62-9.34-12.68-1.18-10.41,3.51-15.29,8.3-16.4.73-.17,1.47-.25,2.22-.25,9.47,0,14.27,12.97,16.29,20.7l3.17,12.15-10.98-3.82Z"/>
    <path class="cls-4" d="m111.86,59.42c-.42,0-.52-.36-.57-.54-.02-.08-.07-.3-.13-.64-.27-1.47-.96-5.29-1.96-8.19.04.93.11,2.13.18,3.55l.04.81c.03.49.09,1.62-.49,2.62-.18.32-.42.59-.69.81-.27.28-.6.35-.82.35-1.77,0-2.9-4.32-3.23-7.22-.62-5.42.72-9.05,3.57-9.71.28-.06.56-.1.84-.1,6.07,0,10.17,15.45,10.34,16.11l.26,1.01-.98-.34c-.21-.07-.48-.11-.8-.11-2.08,0-5.3,1.54-5.34,1.55l-.11.05h-.13Z"/>
    <path class="cls-3" d="m117.13,63.46c-.63.15-1.78.55-2.62.95l-1.25.59h-1.4c-1.18,0-2.57-.36-3.75-1.27-.22.02-.45.03-.68.03-4.77,0-7.89-4.33-8.79-12.18-1.14-10.05,3.32-14.74,7.88-15.79.69-.16,1.39-.24,2.09-.24,9.1,0,13.78,12.71,15.76,20.28l2.91,11.14-10.14-3.52Z"/>
    <path class="cls-3" d="m134.28,108.73c-2.07,0-4.07-.44-5.89-1.26-2.74.84-5.55,1.26-8.39,1.26-15.81,0-28.68-12.88-28.68-28.72,0-5.42,1.29-10.36,3.83-14.69,4.21-7.17,12.68-14.4,22.14-14.4,1.36,0,2.73.15,4.05.45.17.04.33.08.5.12l.34-15.16c-.1-3.84,1.31-7.47,3.97-10.24,2.56-2.67,6.04-4.19,9.55-4.19.47,0,.94.03,1.41.08,7.04.83,12.21,7.46,11.66,14.87v57.47c0,7.95-6.5,14.41-14.48,14.41Z"/>
    <path class="cls-6" d="m142.62,36.58v57.73c0,4.55-3.71,8.27-8.34,8.27-1.9,0-3.8-.66-5.2-1.9-2.89,1.24-5.94,1.9-9.08,1.9-12.38,0-22.53-10.17-22.53-22.57,0-4.59,1.14-8.44,2.98-11.58,3.57-6.09,11.44-12.88,19.55-11.07,3.64.81,6.21,3.11,7.75,4.85.19-8.64.39-17.28.58-25.92-.2-5,4.06-8.69,8.06-8.22,3.56.42,6.65,4.12,6.23,8.51Zm-16.59,43.43c0-3.31-2.72-6.03-6.02-6.03s-5.94,2.73-5.94,6.03,2.64,5.95,5.94,5.95,6.02-2.65,6.02-5.95Z"/>
    <g>
      <path class="cls-5" d="m132.34,41.01c.86-.36,2.58-1.05,3.89-.27.6.36.89.89,1.01,1.12,1.48,2.77-.97,8.39-1.09,8.66-1.34,3.01-3.7,7.45-7.91,12.45-.68-.97-1.87-2.41-3.76-3.66-1.54-1.02-3-1.55-4.04-1.84.02-.25.07-.63.14-1.09,1.36-8.67,8.18-13.86,11.76-15.37Z"/>
      <path class="cls-2" d="m121.48,57.82c.86-2.93,3.22-9.62,8.38-11.85.72-.31,2.29-.98,3.27-.31,1.52,1.04.86,4.55.02,6.53-1.83,4.32-2.9,6.15-6.09,9.31l-.71-.71c1.42-1.37,3.31-3.56,4.63-6.81.97-2.38,2.06-6.43.97-7.04-1.31-.74-5.15,3.86-5.61,4.42-2.12,2.54-3.36,5.02-4.09,6.75-.26-.09-.52-.19-.77-.28Z"/>
    </g>
    <g>
      <path class="cls-5" d="m118.43,57.12s-3.91-19-10.76-17.82c-6.85,1.18-3.63,19.85-.95,17.37.17-.12.43-.34.66-.7.68-1.03.6-2.54.6-2.54-.25-5.1-.37-7.65,0-7.77.31-.1,1.04,1.04,1.62,2.31,2.2,4.9,1.43,10.57,1.43,10.57,0,0,0,0,0,0,.14-.07.34-.16.57-.26.3-.13.69-.29,1.19-.46.13-.04.55-.18,1.11-.32,1.21-.3,2.19-.38,2.47-.4.55-.04,1.25-.05,2.05,0Z"/>
      <path class="cls-1" d="m110.9,59.17h0c.28-2.9.17-6.93-1.77-10.98-.27-.56-.56-1.09-.86-1.59-.05,1.2.08,3.84.22,6.81,0,.07.07,1.69-.69,2.85-.22.33-.48.61-.79.83-.37.35-.89.43-1.37.17-1.85-.99-3.12-7.81-2.35-12.58.56-3.46,2.04-5.5,4.29-5.89,7.26-1.25,11.19,17.42,11.35,18.22l.14.67-.68-.05c-.66-.05-1.32-.05-1.97,0-.43.03-1.32.12-2.39.38-.54.13-.94.27-1.07.31-.48.16-.86.32-1.15.45-.23.1-.42.18-.56.25l-.34.16Zm-2.88-14.03c.35,0,1.01.33,2.04,2.63,1.7,3.78,1.69,7.95,1.55,9.96.28-.12.61-.25,1.01-.39.13-.05.57-.19,1.15-.33,1.14-.28,2.1-.38,2.56-.41.48-.03.96-.04,1.44-.03-1.23-5.52-5.02-17.62-10.03-16.76-2.24.39-3.11,2.95-3.45,5.04-.78,4.81.61,10.86,1.83,11.51.06.03.11.06.23-.06.26-.19.44-.38.59-.6.57-.87.52-2.22.52-2.23-.36-7.43-.34-8.05.35-8.28.05-.02.12-.04.21-.04Z"/>
    </g>
    <path class="cls-2" d="m115.68,56.67s-.03,0-.3.03c-.23.03-.38.05-.4.05-.41.04-1.65-5.37-2.77-8.23-1.09-2.81-3.24-6.18-4.49-5.87-1.16.29-1.41,3.75-1.59,6.35-.2,2.76.06,4.4-.11,4.42-.23.03-.87-2.72-.89-5.65,0-.59.02-1.69.34-3.04.29-1.2.58-2.34,1.54-2.94.45-.29.97-.4,1.36-.39.41,0,2.11.2,5.14,7.33,2.34,5.5,2.37,7.85,2.15,7.94Z"/>
    <path class="cls-3" d="m180.5,108.73c-2.07,0-4.07-.44-5.89-1.26-2.74.84-5.55,1.26-8.39,1.26-15.81,0-28.68-12.88-28.68-28.72,0-19.79,16.65-28.74,28.55-28.8v-14.63c0-7.99,6.46-14.5,14.4-14.5s14.48,6.5,14.48,14.5v57.73c0,7.95-6.5,14.41-14.48,14.41Z"/>
    <path class="cls-5" d="m188.83,36.58v57.73c0,4.55-3.71,8.27-8.34,8.27-1.9,0-3.8-.66-5.2-1.9-2.89,1.24-5.94,1.9-9.08,1.9-12.38,0-22.53-10.17-22.53-22.57,0-15.62,13.2-22.65,22.53-22.65,2.06,0,4.13.33,6.02.83v-21.61c0-4.63,3.71-8.35,8.25-8.35s8.34,3.72,8.34,8.35Zm-16.59,43.43c0-3.31-2.72-6.03-6.02-6.03s-5.94,2.73-5.94,6.03,2.64,5.95,5.94,5.95,6.02-2.65,6.02-5.95Z"/>
    <path class="cls-3" d="m202.11,108.73c-7.94,0-14.4-6.47-14.4-14.41v-57.73c0-7.99,6.46-14.5,14.4-14.5s14.48,6.5,14.48,14.5v57.73c0,7.95-6.5,14.41-14.48,14.41Z"/>
    <path class="cls-5" d="m210.44,36.58v57.73c0,4.55-3.71,8.27-8.34,8.27s-8.25-3.72-8.25-8.27v-57.73c0-4.63,3.71-8.35,8.25-8.35s8.34,3.72,8.34,8.35Z"/>
    <path class="cls-3" d="m246.6,105.64c-18.18,7.45-33.23-2.16-38.69-15.5-8.8-21.48,7.27-36.49,15.94-40.05,9.58-3.92,26.48-3.3,33.77,14.5,1.4,3.43,1.35,7.62-.78,11.51,1.76,1.56,2.78,3.48,3.32,4.8,3.1,7.58,1.42,18.61-13.55,24.74Z"/>
    <path class="cls-5" d="m243.7,79.25l-10.32,4.23s1.1,1.53,4.24.24c6.05-2.48,13.83-7.83,16.84-.48,1.16,2.83,3.03,11.3-10.19,16.72-15.4,6.31-26.61-2.21-30.67-12.14-7.21-17.6,6.54-29.55,12.58-32.03,5.32-2.18,19.4-4.36,25.75,11.14,1.46,3.55.08,8.93-8.23,12.33Zm-4.68-7.51s-2.11-4.7-7.03-2.68c-5.16,2.11-3.13,6.84-3.13,6.84l10.16-4.16Z"/>
    <path class="cls-3" d="m270.88,108.67c-8.19,0-14.86-6.67-14.86-14.88v-30.19c0-8.25,6.67-14.96,14.86-14.96,2.14,0,4.23.47,6.19,1.37,2.87-.9,5.89-1.37,8.89-1.37,7.92,0,15.2,3.35,20.5,9.45,2.57,3.02,3.79,6.86,3.49,10.86-.3,3.99-2.13,7.62-5.18,10.23-2.67,2.27-6.09,3.52-9.66,3.52-.39,0-.77-.01-1.16-.04-3.01-.23-5.84-1.37-8.12-3.2v14.34c0,8.2-6.71,14.88-14.95,14.88Z"/>
    <path class="cls-5" d="m303.81,68.49c-.17,2.36-1.22,4.45-3.05,6.02-1.74,1.48-4.01,2.18-6.36,2.01-2.27-.17-4.44-1.22-5.92-3.05-.7-.79-1.48-1.13-2.53-1.13-3.48,0-6.27,2.88-6.27,6.37v15.1c0,4.8-3.92,8.73-8.8,8.73s-8.71-3.93-8.71-8.73v-30.19c0-4.89,3.92-8.81,8.71-8.81,2.09,0,4.01.79,5.58,2.01,2.96-1.31,6.27-2.01,9.5-2.01,6.18,0,11.76,2.62,15.85,7.33,1.48,1.75,2.18,4.01,2,6.37Z"/>
    <path class="cls-3" d="m327.85,109.8c-15.92,0-24.05-8.43-26.36-16.32l-.05-.17-.06-.24c-.86-3.73.1-7.93,2.51-10.96.07-.08.13-.16.2-.24-2.67-2.69-4.44-6.42-4.44-11.64,0-13.17,11.12-22.73,26.45-22.73,10.87,0,17.72,4.85,21.55,8.91l.09.1c3.18,3.52,4.17,8.26,2.64,12.67-.45,1.29-1.08,2.47-1.87,3.53,4.57,2.78,8.05,7.5,8.05,15.67,0,7.41-6,21.42-28.71,21.42Z"/>
    <path class="cls-5" d="m350.41,88.38c0,3.4-2.79,15.27-22.56,15.27-17.34,0-20.21-11.08-20.47-11.96-.78-3.4,1.39-7.94,5.92-7.94,6.71,0,3.31,6.2,14.55,6.2,2.79,0,8.01.35,8.01-2.27,0-7.77-30.05-.09-30.05-17.45,0-9.77,8.36-16.58,20.3-16.58,8.71,0,14.11,3.84,17.07,6.98,1.66,1.83,2.18,4.28,1.39,6.55-.78,2.27-2.7,3.93-5.14,4.45l-.17.09c-5.66,0-7.67-4.36-13.15-4.36-.96,0-5.66.17-5.66,2.88,0,9.08,29.97-2.36,29.97,18.15Z"/>
  </g>
</svg>